<svg width="668" height="600" viewBox="0 0 668 600" fill="none" xmlns="http://www.w3.org/2000/svg">
<path d="M634 0C642.841 0 651.319 3.51189 657.57 9.76311C663.821 16.0143 667.333 24.4928 667.333 33.3333V566.667C667.333 575.507 663.821 583.986 657.57 590.237C651.319 596.488 642.841 600 634 600H34C25.1595 600 16.681 596.488 10.4298 590.237C4.17857 583.986 0.666679 575.507 0.666679 566.667V33.3333C0.666679 24.4928 4.17857 16.0143 10.4298 9.76311C16.681 3.51189 25.1595 0 34 0H634ZM600.667 66.6667H67.3333V533.333H600.667V66.6667ZM247.3 166.667L353.933 433.333H282.1L268.767 400H159.1L145.767 433.333H73.9667L180.633 166.667H247.3ZM567.333 166.667V433.333H467.333C440.812 433.333 415.376 422.798 396.623 404.044C377.869 385.29 367.333 359.855 367.333 333.333C367.333 306.812 377.869 281.376 396.623 262.623C415.376 243.869 440.812 233.333 467.333 233.333H500.633L500.667 166.667H567.333ZM500.667 300H467.333C458.837 300.009 450.666 303.263 444.488 309.095C438.31 314.927 434.592 322.898 434.094 331.38C433.596 339.861 436.356 348.213 441.809 354.728C447.262 361.243 454.997 365.43 463.433 366.433L467.333 366.667H500.667V300ZM213.967 262.833L185.733 333.333H242.133L213.967 262.833Z" fill="#3730A3"/>
</svg>
