<?xml version="1.0" encoding="UTF-8"?>
<!DOCTYPE svg PUBLIC "-//W3C//DTD SVG 1.1//EN" "http://www.w3.org/Graphics/SVG/1.1/DTD/svg11.dtd">
<!-- Creator: CorelDRAW -->
<svg xmlns="http://www.w3.org/2000/svg" xml:space="preserve" width="150mm" height="150mm" version="1.1" style="shape-rendering:geometricPrecision; text-rendering:geometricPrecision; image-rendering:optimizeQuality; fill-rule:evenodd; clip-rule:evenodd"
viewBox="0 0 15000 15000"
 xmlns:xlink="http://www.w3.org/1999/xlink"
 xmlns:xodm="http://www.corel.com/coreldraw/odm/2003">
 <defs>
  <style type="text/css">
   <![CDATA[
    .str0 {stroke:#332C2B;stroke-width:7.62;stroke-miterlimit:22.9256}
    .fil9 {fill:#332C2B}
    .fil2 {fill:#332C2B}
    .fil1 {fill:#016416}
    .fil3 {fill:#8C9F3C}
    .fil0 {fill:#F8DA15}
    .fil5 {fill:#F8DA15}
    .fil4 {fill:white}
    .fil7 {fill:white}
    .fil10 {fill:#332C2B;fill-rule:nonzero}
    .fil8 {fill:#332C2B;fill-rule:nonzero}
    .fil6 {fill:#332C2B;fill-rule:nonzero}
   ]]>
  </style>
 </defs>
 <g id="Layer_x0020_1">
  <metadata id="CorelCorpID_0Corel-Layer"/>
  <g id="_3000871559424">
   <polygon class="fil0" points="7498.52,689.47 9799.28,2361.05 12100.03,4032.65 11221.22,6737.34 10342.41,9442.04 7498.52,9442.04 4654.65,9442.04 3775.84,6737.34 2897.03,4032.65 5197.78,2361.05 "/>
   <polygon class="fil1" points="7498.53,1107.19 3294.3,4161.73 4900.17,9104.1 10096.88,9104.1 11702.75,4161.73 "/>
   <polygon class="fil2" points="7490.6,5208.47 7490.6,5208.14 7490.23,5208.31 7489.87,5208.14 7489.87,5208.47 6411.54,5704.13 6839.27,6204.44 6693.1,6717.6 7490.23,6483.43 8287.37,6717.6 8141.2,6204.44 8568.93,5704.13 "/>
   <path class="fil0" d="M7459.21 4736.19c-71.2,-57.72 -385.68,-293.39 -757.17,-278.62l-333.04 985.78c5.06,-0.26 10.89,-0.51 17.46,-0.69 139.8,-3.9 615.09,19.47 1072.71,467.46l0 -1172.88c0,-0.35 0.02,-0.71 0.04,-1.05z"/>
   <path class="fil0" d="M7499.78 4737.24l0 1172.88c457.62,-447.99 932.91,-471.36 1072.71,-467.46 6.57,0.18 12.4,0.43 17.46,0.69l-333.04 -985.78c-371.49,-14.77 -685.97,220.9 -757.17,278.62 0.02,0.34 0.04,0.7 0.04,1.05z"/>
   <path class="fil3" d="M5701.82 7237.98l-121.83 -161.74c-63.51,-84.31 -108.87,-144.73 -218.52,-181.28 -74.69,-16.89 -154.63,-14.41 -221.01,25.31 -42.73,25.58 -136.63,76.05 -195.51,64.75 -78.15,-15 -102.59,-73.32 -102.59,-73.32 0,0 -25.26,-56.04 -3.16,-109.73 0,0 -81.87,-68.07 -63.36,-169.55 18.5,-101.48 121.17,-103.87 185.64,-105.06 0,0 51.32,-97.39 149.21,-69.76 61.15,17.26 88.11,61.33 99.73,91.97 24.55,64.76 -16.38,94.16 40.97,170.79 33.13,44.3 96.92,131.46 130.08,112.23 0,0 18.16,-11.05 -0.79,-40.26 -18.94,-29.21 -149.45,-257.64 -149.45,-257.64 0,0 -60.07,-119.34 -131.47,-151.6 -71.4,-32.27 -146.91,-19.23 -188.79,-8.93 0,0 -148.55,91.83 -232.99,30.05 -84.44,-61.79 -58.42,-159.75 -23.01,-186.99 0,0 -70.26,-81.98 -42.11,-172.78 28.14,-90.79 157.98,-55.38 157.98,-55.38 0,0 58.37,-143.19 178.06,-79.55 79.99,42.54 88.23,102.18 86.02,135.18 -2.98,44.67 -18.05,102.18 2.05,143.57 15.44,31.78 65.38,151.63 104.42,155.27 0,0 9.99,-9.08 0.91,-39.05 -9.08,-29.96 -95.34,-413.13 -102.6,-457.62l-123.59 -121.48c0,0 -62.38,-57.63 -145.28,-27.63 -82.9,30 -91.01,47.17 -166.6,38.69 -69.74,-7.82 -125.24,-149.5 -40.53,-197.32 0,0 -77.36,-102.97 -17.62,-186.74 59.73,-83.77 172.34,-17.85 184.01,-3.43 0,0 69.71,-77.23 142.5,-44.96 72.78,32.27 86.51,100.93 80.33,142.13 -6.18,41.2 -37.81,181.42 -37.81,181.42 0,0 49.04,83.54 128.04,138.02l-5.45 -345.07 -1.28 -86.42c0,0 -61.52,-141.81 -94.69,-175.77 -33.16,-33.95 -48.17,-54.49 -113.71,-53.7 -65.54,0.79 -162.16,7.15 -220.6,-73.4 -58.44,-80.55 21.71,-175.44 50.95,-196.33 0,0 -64.09,-148.24 29.1,-186.14 93.18,-37.91 166.63,45.01 166.63,45.01 0,0 134.87,-61 194.81,41.63 59.94,102.62 -20.89,209.79 -20.89,209.79 0,0 -65.21,75.25 -37.96,135.19 27.24,59.95 61.32,143.17 61.32,143.17 0,0 49.04,-224.32 64.48,-300.61 0,0 24.13,-112.03 -20.05,-228.66 -27.54,-72.75 -65.56,-131.96 -132.66,-176.39 -60.33,-39.92 -122.27,-25.01 -162.03,-109.38 -37.24,-79.02 -4.59,-146.57 67.28,-157.63 0,0 -17.49,-132.61 81.75,-167.08 99.23,-34.47 163.99,53.27 170.25,71.02 0,0 94.75,-47.83 137.39,66.7 43.21,116.01 -34.47,147.94 -80.4,225.8 -22.6,38.3 -49.23,96.91 -38.19,146.83 18.16,82.14 15,106.63 32.38,99.52 0,0 8.55,1.1 11.99,-27.06 3.43,-28.16 28.16,-146.29 69.37,-221.84 41.21,-75.55 66.4,-150.85 57.32,-207.17 -9.09,-56.31 -37.42,-183.85 -42.88,-233.81 0,0 -9.45,-46.38 -69.48,-77.19 -60.03,-30.8 -105.58,-79.04 -101.63,-128.02 3.95,-48.97 19.75,-106.63 114.54,-105.84 0,0 4.78,-133.02 132.9,-150.11 0,0 114.52,-8.2 124.17,126.98 0,0 121.14,-2.63 112.36,100.07 -8.78,102.7 -119.08,152.08 -119.08,152.08 0,0 -92.89,65.79 -92.89,145.27l4.72 100.28c0,0 123.94,-134.34 160.84,-177.86 36.9,-43.52 122.99,-145.7 134.34,-217.6 11.36,-71.91 16.01,-138.84 -17.72,-210.42 0,0 -44.88,-56.2 -105.09,-106.24 -55.94,-46.5 -70.65,-118.01 -29.53,-182.71 53.66,-84.42 130.93,-50.79 130.93,-50.79 0,0 63.37,-127.05 159.88,-95.83 96.51,31.23 79.48,124.9 79.48,124.9 0,0 114.45,34.21 96.51,124.89 -17.94,90.67 -105.97,124.89 -105.97,124.89 0,0 -187.68,144.34 -168,268.57 0,0 256.81,-251.05 342.91,-318.71 0,0 40.81,-124.79 12.07,-217.99 -19.17,-62.23 -126.02,-92.99 -108.5,-211.67 14.27,-96.69 101.38,-127.43 194.39,-98.59 0,0 76.29,-119.52 165.07,-91.71 88.78,27.81 89.85,125.15 75.94,166.87l-4.18 12.53c0,0 93.86,23.19 84.23,149.42 -9.62,126.22 -193.61,115.52 -193.61,115.52 0,0 -51.34,-4.28 -87.71,41.72 -36.38,46 -51.61,82.74 -51.61,82.74 0,0 235.54,-108.3 280.75,-127.23 45.22,-18.93 130.31,-74.54 167.82,-111.27 0,0 24.3,-28.67 31.06,-76.03 9.43,-66.11 15.69,-131.12 117.72,-139.76 96.23,-8.16 134.13,74.17 134.13,74.17 0,0 132.25,-5.91 148.61,94.38 10.55,64.68 -13.22,119.57 -76.11,148.87 0,0 -4.45,120.15 -90.63,137.59 -58.72,11.88 -93.94,-10.16 -117.31,-31.47 -36.34,-33.13 -45.71,-107.84 -107.42,-102.91 -82.03,6.57 -169.59,39.52 -240.13,81.08l-102.17 60.21 -137.83 93.04 138.98 4.59c0,0 110.27,3.45 145.88,-67.77 35.61,-71.22 90.74,-91.89 124.05,-95.34 33.31,-3.44 128.65,34.46 120.61,128.65 0,0 127.76,26.95 88.7,145.26 0,0 -27.56,53.98 -78.1,66.62 0,0 -20.04,99.14 -122.27,107.19 0,0 -80.41,4.59 -130.95,-99.94 -50.54,-104.53 -113.72,-119.46 -113.72,-119.46l-236.62 -11.48c0,0 -136.68,46.19 -206.68,121.84 -43.98,47.53 -72.82,77.24 -88.17,92.75 -20.61,20.82 -57.16,64.24 -2.16,72.11 36.29,5.19 93.01,-28.39 127.72,-55.09 67.5,-51.9 125.02,-208.61 209.89,-201.23 77.91,6.78 105.01,74.53 105.01,74.53 0,0 151.32,-19.61 149.06,109.11 -2.26,128.72 -110.42,112.22 -110.42,112.22 0,0 -1.28,109.77 -91.91,118.7 0,0 -56.99,14.8 -117.8,-47.94 -60.8,-62.73 -153.46,-75.28 -153.46,-75.28 0,0 -158.06,-11.8 -272.62,88.58 -79.5,69.66 -131.55,155.9 -155.95,202.16 -21.62,40.98 -32.11,82.12 -46.44,126.23 0,0 50.26,-4.79 89.33,-34.69 57.34,-43.89 80.04,-123.89 91.89,-181.63 15.18,-74 68.29,-115.74 109.1,-121.44 40.81,-5.7 115.75,-2.85 133.78,74 0,0 126.37,-17.83 140.55,78.18 14.19,96.01 -75.28,138.57 -75.28,138.57 0,0 4.2,104.46 -79.86,130.81 -51.28,16.07 -96.01,4.6 -123.12,-6.79 -47.68,-20.04 -76.98,-77.23 -136.62,-60.97 -55.21,15.06 -164.14,56.57 -215.59,97.98 -51.44,41.41 -93.86,155.6 -93.86,155.6 0,0 -72.4,217.2 -33.79,217.2 23.11,0 55.45,-28.82 77.68,-51.96 40.36,-41.99 54,-91.66 46.74,-151.83 -6.53,-54.11 10.47,-133.37 53.82,-167.92 50.44,-40.2 118.51,-43.92 154.26,22.05 0,0 134.24,-60.19 176.97,45.05 42.73,105.24 -37.54,140.51 -37.54,140.51 0,0 25.51,145.09 -55.77,176.97 -69.67,27.33 -98.95,8.23 -156,-20 -37.2,-18.4 -81.88,-22.02 -117.51,-10.03 -84.34,28.38 -179.6,57.28 -204.8,170.02l-47.68 213.37c0,0 -31.1,131.63 -12.44,138.88 13.51,5.26 49.33,-38.44 68.04,-62.92 31.62,-41.37 55.34,-74.91 39.75,-132.96 -18.65,-69.43 -52.35,-109.35 -5.19,-163.76 47.16,-54.41 132.67,-15.54 132.67,-15.54 0,0 90.01,-85.92 175,-16.48 84.99,69.44 16.58,168.94 16.58,168.94 0,0 61.31,99.81 -5.44,148.68 -64.43,47.17 -157.15,19.68 -233.61,11.92 0,0 -165.67,69.13 -188.32,169.25 -22.64,100.12 -11.39,242.98 -11.39,242.98 0,0 -1.8,136.02 34.25,127.01 36.05,-9.01 54.08,-77.51 54.08,-77.51 0,0 27.94,-65.79 -1.8,-152.31 -29.75,-86.52 -28.85,-145.54 10.81,-178.45 39.66,-32.91 85.62,-41.46 138.8,-9.91 0,0 81,-110.63 183.85,-36.57 102.86,74.06 8.28,171.72 8.28,171.72 0,0 74.86,82.46 9.21,140.86 -48.41,43.08 -138.98,48.49 -201.99,26.48 0,0 -169.59,87.73 -189.97,239.77 -13.86,103.44 1.69,206.22 13.05,261.36 12.97,62.98 42.61,124.61 66.3,184.67 0,0 53.64,-100.12 60.79,-144.23 7.15,-44.1 3.58,-47.94 -8.86,-65.56 -12.44,-17.62 -98.99,-87.21 -111.94,-177.25 -12.96,-90.03 32.13,-134.75 120.23,-110.91 9.56,2.14 3.44,-104.66 117.9,-116.07 153.81,-15.34 146.24,155.26 146.24,155.26 0,0 123.2,49.08 77.12,156.25 -46.07,107.18 -214.35,102.17 -214.35,102.17 0,0 -117.75,159.07 -125.7,267.69 -7.95,108.63 223.51,469.59 223.51,469.59 0,0 37.62,-63.3 2.52,-144.83 -35.1,-81.53 -131.13,-149.39 -143.34,-213.97 -12.22,-64.58 5.19,-149.51 134.28,-118.94 2.51,-1.49 -1.82,-155.94 141.54,-147.21 143.37,8.73 107.58,169.85 107.58,169.85 0,0 128.34,21.82 97.69,125.26 -31.32,67.45 -73.73,92.46 -121.47,132.92 -47.74,40.46 -132.94,45.81 -143.81,154 -6.69,66.55 -6.92,86.68 -4.94,101.08 1.48,10.84 172.12,211.69 192.99,237.4l-72.16 69.43z"/>
   <path class="fil4" d="M4991.67 6918.55c-76.23,11.51 -98.52,-41.7 -98.52,-41.7 0,0 -20.13,-36.68 26.61,-99.96 0,0 -94.21,-19.41 -93.49,-106.43 0.72,-87.01 76.23,-97.08 76.23,-97.08 0,0 42.43,-5.75 82.7,11.51 0,0 35.53,-124.99 128.29,-66.74 0,0 79.11,51.77 28.77,107.87 0,0 -29.91,28.23 -64.43,33.27 -34.52,5.03 -19.21,29.48 -5.01,29.81 14.19,0.33 102.52,18.18 88.14,74.27 -11.81,46.03 -51.85,73.98 -97.09,49.62 -13.47,-7.26 -23.58,-10.03 -28.29,-6.76 -11.14,7.73 38.26,99.92 -43.91,112.32z"/>
   <path class="fil4" d="M5533.34 6533.96c0,0 -16.84,-0.44 -24.82,15.96 -7.98,16.4 -54.09,19.5 -72.7,-8.42 -18.62,-27.93 -14.51,-62.36 -3.99,-78.9 10.52,-16.55 33.79,-39.31 93.19,-41.97 0,0 30.59,-0.89 27.04,-18.62 -3.54,-17.73 5,-106.4 90.59,-97.02 57.31,6.29 68.1,48.04 68.98,74.95 0.69,21.23 -14.44,54.8 -12.35,61.76 2.66,8.86 11.08,8.86 28.37,11.08 17.29,2.21 82.9,26.59 74.92,79.35 -7.98,52.75 -41.35,97.29 -85.23,95.08 -43.89,-2.22 -43.9,-65.17 -55.42,-70.93 -10.17,-5.09 -9.96,28.72 -17.73,42.01 -8.24,14.12 -25.04,34.67 -52.32,32.91 -41.22,-2.66 -53.64,-30.15 -51.86,-51.87 1.77,-21.72 5.32,-42.56 -6.67,-45.37z"/>
   <path class="fil4" d="M5315.75 5986.38c3.62,-7.53 7.76,-19.62 -0.15,-22.75 -10.97,-4.34 -17.85,20.91 -17.85,20.91 0,0 -7.65,41.81 -43.86,41.3 -64.93,-0.91 -79,-157.54 -3.57,-167.77 0,0 32.88,-0.01 49.98,10.2 25.3,15.11 28.46,-10.25 29.51,-24.2 1.37,-17.95 6.23,-46.14 22.8,-61.84 25.63,-24.28 67.24,-22.69 86.33,-19.56 19.08,3.14 78.9,37.77 64.74,93.75 -14.16,55.97 -14.36,47.98 2.22,50.68 16.58,2.7 84.83,-3.47 97.17,55.14 12.34,58.61 -13.22,90.79 -41.27,107.62 -28.05,16.82 -68.34,21.41 -90.27,-9.7 -21.93,-31.1 -21.95,-53.66 -36.72,-49.46 -14.76,4.19 -6.12,28.05 -4.59,41.82 1.53,13.76 -3.06,69.86 -44.37,66.29 -41.31,-3.57 -74.46,-17.33 -80.58,-48.44 -6.1,-31.05 -3.06,-55.72 10.48,-83.99z"/>
   <path class="fil4" d="M4846.41 6251.1c0,0 -11.9,14.17 7.94,25.51 26.92,15.39 9.27,53.13 -14.5,68 -22.26,13.92 -65.76,37.26 -119.86,19.88 -70.59,-22.69 -38.46,-139.55 -6.23,-171.78 0,0 -95.82,-17.01 -64.07,-116.22 31.75,-99.2 129.83,-36.28 129.83,-36.28l29.48 17.58c0,0 31.29,-130.82 116.04,-100.83 84.75,29.99 84.76,111.49 65.2,131.7 -19.56,20.21 -107.08,27.13 -109.53,43.03 -2.46,15.89 24.12,16.95 24.12,16.95 0,0 85.4,15.64 59.33,76.28 -18.53,43.07 -48.25,44.03 -63.9,40.97 -16.44,-3.21 -41.62,-27.4 -53.85,-14.79z"/>
   <path class="fil4" d="M5286.95 5482.13c-3.61,-3.06 -13.43,-2.14 -24.35,9.7 -25.33,27.44 -53.01,6.51 -62.49,-23.39 -8.43,-26.58 -11.22,-68.06 32.15,-101.85 67.57,-52.65 86.29,17.21 111.16,8.05 24.87,-9.17 44.71,-65.11 105.42,-62.6 69.6,2.88 138.63,122.21 31.11,167.08 -25.89,10.81 16.06,32.12 16.06,32.12 0,0 64.22,37.63 18.06,86.8 -29.25,31.15 -65.54,29.88 -88.21,24.76 -36.19,-8.16 -38.34,-30.67 -30.7,-68.41 0,0 2.5,-23.58 -14.56,-23.08 -17.05,0.5 -18.06,29.1 -18.06,29.1 -7.88,50.05 -46.39,47.18 -78.14,30.37 -67.33,-35.66 16.31,-97.01 2.55,-108.65z"/>
   <path class="fil4" d="M4722.19 5591.72c-4.46,3.9 -11.46,13.68 -6.14,34.51 7.47,29.24 -24.26,66.57 -61.59,72.79 -37.33,6.22 -86.48,-23.64 -92.7,-60.35 -6.23,-36.7 11.2,-65.32 29.24,-83.37 18.04,-18.04 27.98,-27.95 28,-38.57 0.01,-10.63 -8.74,-15.19 -27.38,-29.87 -39.22,-30.87 -39.4,-92.08 2.41,-123.53 14.4,-10.83 43.21,-26 82.15,-14.49 29.48,8.71 50.08,51.46 67.81,42.97 16.46,-7.87 43.65,-68.68 90.87,-55.09 47.23,13.59 84.75,48.3 63.68,96.59 -14.11,32.37 -39.49,38.5 -55.43,41.02 -9.48,1.51 -43.24,14.26 -25.21,30.18 12.16,10.73 60.74,38.19 41.69,74.1 -48.1,90.7 -119.55,-2.51 -137.4,13.11z"/>
   <path class="fil4" d="M5333.46 5042.69c0,0 -8.61,-9.09 -22.02,5.75 -13.4,14.84 -28.72,26.81 -56.01,20.58 -20.35,-4.64 -31.38,-42.83 -34.08,-70.09 -4.54,-45.81 28.41,-76.9 75.38,-71.28 0,0 30.31,5.95 39.51,25.97 9.2,20.03 31.39,13.53 37.34,5.42 5.96,-8.12 38.97,-64.95 84.43,-54.66 45.45,10.28 92,36.79 77.38,102.28 0,0 -9.19,29.77 -25.97,43.29 -17.36,14 1.97,24.67 11.43,36.98 14.93,19.4 38.49,58.86 11.3,89.66 -36.26,41.07 -71.44,45.9 -99.04,34.64 -27.6,-11.27 -28.68,-50.33 -18.94,-76.85 9.74,-26.52 11.36,-37.89 3.79,-37.89 -29.99,0 -16.27,73.44 -74.14,61.7 -37.35,-7.58 -53.58,-40.05 -40.05,-63.32 13.53,-23.27 37.34,-41.13 29.69,-52.18z"/>
   <path class="fil4" d="M4807.93 4968.95c-8.88,5.16 -9.22,32.21 -13.33,43.92 -7.78,22.14 -28.02,49.69 -67.02,51.35 -69.25,2.94 -149.75,-112.6 -52.68,-176.66 53.21,-35.12 46.29,-34.59 37.25,-45.76 -9.05,-11.17 -48.83,-44.26 -43.48,-86.48 5.34,-42.23 34.29,-64.37 76.39,-66.17 42.11,-1.81 74.73,31.73 87.22,54.74 12.49,23 22.26,28.27 33.69,18.04 11.42,-10.23 52.33,-75.19 117.89,-26.47 65.57,48.73 44.52,110.69 19.25,126.32 -25.26,15.64 -66.77,19.25 -66.77,19.25 0,0 -31.88,4.22 -25.86,16.24 11.74,23.49 57.09,48.78 19.74,88.62 -27.07,28.87 -51.62,28.68 -68.46,21.46 -13.15,-5.63 -42.27,-45.12 -53.83,-38.4z"/>
   <path class="fil4" d="M5575.81 4644.49c0,0 -11.88,-8.32 -22.96,12.66 -11.08,20.98 -33.25,33.25 -57.4,30.88 -24.14,-2.38 -48.68,-30.88 -44.72,-58.59 2.85,-19.99 22.19,-32.56 33.64,-37.86 10.5,-4.88 36.96,-15.75 31.52,-30.26 -4.02,-10.7 -32.77,1.6 -44.1,3.24 -18.93,2.74 -52.45,3.23 -66.12,-23.75 -13.32,-26.3 -0.36,-58.1 9.25,-75.68 17.21,-31.49 56.88,-54.62 92.88,-46.22 46.31,10.81 48.37,61.24 67.41,54.55 19.04,-6.69 72.57,-45.65 119.92,-8.59 30.39,23.78 27.07,58.81 20.79,80.84 -7.61,26.73 -28.26,43.64 -52.18,57.59 -18.53,10.81 20.8,24.49 23.16,54.04 2.35,29.55 3.66,79.54 -41.32,97.89 -44.98,18.35 -87.02,3.87 -97.67,-27.5 -10.65,-31.37 6.03,-48.7 13.61,-55.04 7.59,-6.34 19.53,-17.76 14.29,-28.2z"/>
   <path class="fil4" d="M4959.74 4397.53c2.94,48.54 -82.43,84.57 -123.33,5.38 -19,-36.77 -20.83,-84.97 6.42,-106.09 23.08,-17.89 85.64,-25.77 89.08,-30.36 4.55,-6.08 0.62,-17.93 -7.59,-29.36 -33.16,-46.14 5.82,-93.18 38.81,-112.27 15.3,-8.85 33.94,-13.29 55.72,-6.98 50,14.47 60.53,59.21 60.53,59.21 0,0 0.65,30.26 28.29,15.13 27.63,-15.13 105.93,-17.76 117.77,41.45 7.56,37.83 -9.57,78.35 -22.94,102.67 -14.68,26.74 -40.93,55.94 -71.8,23.66 -41.16,-43.03 -50.31,-12.8 -31.59,5.92 27.58,27.58 12.87,67.86 -19.18,87.13 -37.45,22.51 -103.74,8.26 -101.22,-41.07 1.27,-24.78 -0.36,-32.13 -8.66,-32.35 -11.32,-0.29 -10.8,9.76 -10.31,17.93z"/>
   <path class="fil4" d="M5670.86 4213.23c0,0 -11.76,-42.59 30.63,-53.07 16.39,-4.05 60.4,-8.21 57.48,-31.05 -2.49,-19.41 -34.35,-5.47 -57.74,-9.95 -23.4,-4.48 -50.28,-22.9 -41.82,-55.26 8.47,-32.35 50.13,-61.07 76.66,-63.21 26.52,-2.14 65.7,4.48 93.08,71.18 0,0 112,-23.39 128.42,47.29 16.43,70.68 -89.59,98.55 -89.59,98.55 0,0 49.07,98.93 -20.71,127.23 -63.24,25.66 -159.21,-24.41 -89.52,-86.89 0,0 21.11,-17.65 11.17,-30.91 -8.12,-10.84 -28.44,11.04 -46,15.23 -15.94,3.8 -41.47,3.92 -52.06,-29.14z"/>
   <path class="fil4" d="M5279.52 3853.37c-4.12,-0.04 -9.23,4.03 -20.38,13.13 -34.9,28.48 -79.8,4.24 -99.47,-29.12 -39.73,-67.4 27.76,-107.93 97.31,-124.59 0,0 -21.71,-120.13 77.27,-127.21 98.98,-7.07 97.46,105.37 97.46,105.37 0,0 109.46,-17.66 102.08,83.64 -4.87,66.8 -35.39,77.28 -55.62,76.68 -31.88,-0.96 -40.92,-37.09 -62.26,-29.93 -28.54,9.58 8.93,76.19 -52.93,86.97 -82.96,14.47 -61.06,-54.72 -83.46,-54.94z"/>
   <path class="fil4" d="M6132.04 3754.16c0,0 -1.92,-15.97 -28.11,-12.13 -26.19,3.83 -60.36,-15.03 -61.97,-35.78 -1.6,-20.75 23.64,-65.16 63.89,-70.27 40.25,-5.11 91.99,4.47 118.19,82.41 0,0 105.9,-31.36 121.38,41.56 11.75,55.33 -59.24,86.53 -100.94,88.76 0,0 -9.78,97.34 -67.92,108.83 -58.13,11.5 -96.46,-17.24 -101.57,-40.88 -5.11,-23.64 42.16,-42.17 42.16,-42.17 0,0 38.97,-15.97 33.22,-30.02 0,0 -34.27,13.3 -64.63,13.03 -17.08,-0.15 -39.82,-10.39 -44.11,-29.65 -3.71,-16.65 9.94,-31.35 23.87,-40.34 18.39,-11.87 60.7,-6.7 66.54,-33.35z"/>
   <path class="fil4" d="M5647.22 3399.8c-1.03,14.95 -11.93,44.87 -36.21,41.67 -24.28,-3.19 -60.06,-23.64 -65.17,-69.01 -5.12,-45.37 23.64,-118.21 77.31,-125.24 11.22,-1.09 43.88,8.49 51.06,1.59 17.74,-17.05 39.33,-98.03 113.99,-84.55 43.57,7.86 73.49,36.74 68.35,107.29 0,0 103.66,34.2 75.31,106.38 -28.34,72.18 -47.05,74.48 -68.7,79.55 -17.34,4.05 -41.05,-12.93 -57.24,-50.14 -3.88,-8.92 -14.82,-18.15 -17.61,1.37 -2.22,15.55 -6.11,59.34 -33.89,72.67 -27.79,13.34 -67.46,4.79 -76.69,-16.67 -9.23,-21.45 -6.84,-41.34 -3.61,-56.97 2.87,-13.86 3.09,-31.67 -4.52,-32.85 -12.58,-1.95 -21.35,9.95 -22.38,24.91z"/>
   <path class="fil4" d="M6536.65 3494.97c0.76,-5.7 -2.34,-10.57 -9.42,-12.5 -11.96,-3.27 -53.88,-21.63 -50.32,-43.9 3.56,-22.27 36.84,-52.12 76.6,-50.77 36.04,1.22 66.12,15.33 85.14,70.71 4.78,13.91 4.51,37.47 17.73,41.07 14.7,4.01 83.54,20.91 66.24,90.99 -9.58,38.79 -27.96,54.03 -39.85,56.84 -12.54,2.96 -48.41,-4.58 -50.67,17.57 -4.27,41.86 -8.53,76.9 -68.05,69.37 -49.52,-6.25 -96.75,-52.92 -96.75,-75.12 0,-15.98 13.76,-25.86 21.45,-30.14 8.29,-4.6 27.57,-6.06 27.45,-16.24 -0.16,-12.17 -17.14,-15.23 -26.32,-17.26 -28.55,-6.32 -53.46,-21.68 -49.19,-53.4 7.68,-57.06 92.5,-21.25 95.96,-47.22z"/>
   <path class="fil4" d="M6150.53 3088.26c0,0 -12.15,-8.28 -25.96,11.05 -13.81,19.33 -37.01,49.15 -70.14,37 -33.14,-12.15 -70.7,-57.43 -61.31,-104.93 16.51,-83.52 119.85,-106.16 187.23,-71.8 9.34,-0.5 12.99,-24.75 29.17,-40.27 19.99,-19.16 52.92,-38.66 94.9,-22.04 58.1,23.01 67.22,68.42 52.86,115 -2.41,7.8 -9.84,25.4 7.88,30.81 8.7,2.66 65.65,36.48 52.32,91.74 -8.69,36.01 -34.11,62.31 -54.97,75.91 -40.94,26.67 -96.03,-8.71 -92.48,-53.05 2.8,-35.04 -24.01,3.67 -25.9,6.63 -11.52,18.02 -30.19,31.59 -52.47,28.41 -43.85,-6.26 -54.71,-28.4 -49.7,-46.36 4.37,-15.67 24.03,-44.02 8.57,-58.1z"/>
   <path class="fil4" d="M6713.62 3124.91c0,0 19.94,-8.92 5.77,-17.84 -14.17,-8.93 -61.92,-26.77 -55.1,-67.7 6.82,-40.93 41.46,-59.83 59.82,-61.4 18.37,-1.57 88.17,9.97 122.28,90.26 0,0 103.9,-21.52 123.32,51.43 19.41,72.94 -67.7,90.79 -67.7,90.79 0,0 8.77,90.41 -40.72,129.64 -47.52,37.67 -140.93,0.12 -105.04,-62.9 6.54,-11.49 27.89,-27.23 22.48,-38.07 -5.14,-10.29 -43.05,2.05 -56.36,2.66 -23.14,1.08 -58.27,-1.92 -65.48,-28.67 -10.95,-40.61 56.73,-88.2 56.73,-88.2z"/>
   <path class="fil0" d="M9161.59 7145.45l34.72 -38.58c0,0 27,-36.27 5.4,-52.47 -21.6,-16.2 -98.76,-76.38 -109.57,-145.05 -10.8,-68.68 10.55,-208.05 49.01,-310.88 0,0 7.72,-6.52 13.65,8.91 5.94,15.43 37.39,216.05 112.18,256.41 0,0 24.29,12.96 3.64,58.38 -20.64,45.42 8.26,75.35 8.26,75.35l54.71 -61.93c0,0 29.42,-22.71 1.03,-54.71 0,0 -55.74,-24.26 -95.48,-87.23 -39.75,-62.97 -30.34,-167.67 -19.5,-224.55 10.83,-56.87 19.52,-144.67 19.52,-144.67 0,0 35.21,130.9 69.52,188.68 34.3,57.77 61.39,76.73 61.39,76.73 0,0 25.27,38.82 18.95,70.42 -6.32,31.59 -0.9,65.9 15.35,71.32l48.75 -64.1c0,0 24.37,-41.53 -8.13,-63.19 -32.49,-21.67 -128.19,-81.26 -132.7,-180.56 0,0 -12.36,-110.52 1.18,-218.86l0 -58.68c0,0 34.31,55.98 49.66,103.83 15.34,47.84 49.65,125.48 85.76,145.34 36.11,19.86 38.82,57.78 34.31,73.13 -4.52,15.35 -11.74,112.85 11.74,109.23 0,0 9.02,3.62 24.37,-18.05l37.02 -69.52c0,0 12.63,-45.14 -18.96,-65 -31.6,-19.86 -101.02,-61.14 -129,-128.85 -27.99,-67.71 -46.05,-144.44 -41.53,-200.42 4.51,-55.98 11.73,-130.91 11.73,-130.91 0,0 22.58,55.98 57.79,117.37 35.21,61.39 53.26,116.46 94.79,143.55 41.53,27.08 44.24,63.2 42.43,72.22 -1.8,9.03 -2.7,80.35 31.6,83.06l26.18 -49.65c0,0 29.8,-63.2 -12.64,-89.38 -42.43,-26.18 -220.13,-112.58 -185.43,-428.97 0,0 10.52,-0.27 17.62,14.82 7.1,15.09 95.85,197.91 153.54,220.1 0,0 43.62,19.35 37.49,62.21 -6.12,42.87 -8.66,100.74 20.94,97.68 29.6,-3.07 29.6,-28.58 29.6,-28.58l36.74 -114.32c0,0 5.63,-26.85 -19.07,-31.48 -24.69,-4.63 -30.87,3.85 -47.84,-8.49 -16.98,-12.35 -231.1,-89.8 -168.54,-393.45 0,0 103.96,170.04 147.75,193.92 0,0 60.68,36.89 55.66,73.01 -5.02,36.12 -2,89.3 32.11,92.3 0,0 24.08,1.01 28.09,-21.07 4.01,-22.07 24.08,-116.38 24.08,-116.38 0,0 4.01,-36.12 -38.13,-48.16 -42.13,-12.04 -173.09,-21.05 -221.92,-207.21 0,0 -27.28,-115.92 -20.65,-175.63 0,0 138,177.8 189.75,200.36 51.75,22.56 42.46,66.35 42.46,66.35 0,0 -1.34,78.15 40.8,78.15 0,0 19.07,5.02 26.09,-25.08 7.02,-30.1 20.07,-99.33 -35.12,-159.53 0,0 -35.11,-15.05 -76.25,-18.06 -41.14,-3.01 -195.69,-143 -216.92,-361.95 0,0 151.82,152.76 222.05,173.83 70.24,21.07 66.22,95.32 66.22,95.32 0,0 3.02,71.24 34.12,71.24 31.1,0 25.08,-52.18 25.08,-52.18l0 -80.27c0,0 -19.06,-51.17 -71.23,-74.25 0,0 -60.96,1.47 -93.09,-15.16 -32.13,-16.64 -215.64,-135.28 -226.25,-333 0,0 131.37,143.87 207.63,164.94 76.25,21.07 105.35,57.2 103.35,77.26 -2.01,20.07 12.04,74.25 45.15,65.22 33.11,-9.03 28.09,-41.14 28.09,-41.14l-4.01 -68.23c0,0 -8.03,-47.15 -47.16,-49.16 -39.13,-2.01 -48.16,17.06 -109.37,-6.02 -61.21,-23.08 -152.67,-63 -276.08,-321.76 0,0 165.68,137.7 253.97,146.73 88.3,9.03 87.3,65.22 87.3,65.22 0,0 24.08,62.21 58.2,37.13 0,0 18.06,-7.03 14.05,-24.08 -4.02,-17.06 -17.06,-82.28 -17.06,-82.28 0,0 -16.06,-30.1 -63.22,-34.12 0,0 -44.15,20.07 -84.28,10.04 -40.14,-10.04 -216.49,-77.17 -309.38,-317.36 0,0 181.8,124.74 250.8,128.72 69,3.98 94.22,54.41 94.22,54.41 0,0 46.44,78.29 82.27,43.79l-17.25 -76.97c0,0 -18.58,-43.79 -86.26,-39.8 -67.67,3.98 -298.57,-43.8 -403.41,-285.31 0,0 155.17,93.43 220.39,104.47 65.22,11.03 121.41,15.05 151.52,66.22 30.1,51.18 74.25,28.1 74.25,28.1l-45.15 -99.34c0,0 -16.06,-54.19 -73.25,-24.08 -57.2,30.1 -126.43,-7.03 -126.43,-7.03 0,0 -236.61,-76.37 -277.74,-201.11 0,0 206.82,57.51 264.01,61.52 57.2,4.01 92.32,64.22 92.32,64.22 0,0 61.21,46.16 75.25,7.03l-30.1 -71.25c0,0 -27.46,-48.63 -89.3,-25.08 -61.85,23.55 -395.47,-82.33 -409.32,-204.65 0,0 36.87,-7.48 77.01,10.58 40.14,18.06 191.66,27.09 191.66,27.09 0,0 74.26,5.02 106.37,59.21 32.1,54.18 61.2,27.09 61.2,27.09l4.02 -25.09 -47.16 -75.25c0,0 -23.08,-45.16 -105.36,-28.1 -82.29,17.06 -266.13,6.95 -399.98,-142.79 0,0 178.09,47.65 254.1,23.82 76,-23.82 149.73,35.17 149.73,35.17 0,0 32.9,10.21 32.9,-4.54 0,-14.74 -38.57,-71.46 -38.57,-71.46 0,0 -31.76,-28.36 -64.66,-11.35 -32.89,17.02 -228,104.36 -454.87,-95.28 0,0 169.02,13.61 207.58,-3.41 38.57,-17.01 121.38,-32.89 203.05,21.56 0,0 28.36,31.76 40.84,9.07 0,0 -37.44,-81.67 -86.21,-112.3 -48.78,-30.63 -98.69,30.63 -157.68,41.97 -58.98,11.35 -214.15,55.39 -346.87,-75.06 0,0 169.89,30.16 247.95,3.57 78.05,-26.59 111.51,-36.89 149.25,-18.02 37.74,18.87 66.9,2.58 66.9,2.58 0,0 -54.9,-73.77 -71.19,-81.49 -16.3,-7.72 -26.59,-13.72 -46.32,0.86 -19.73,14.58 -172.41,145.82 -440.89,11.15 0,0 132.96,-18.01 172.41,-42.89 39.46,-24.87 148.39,-55.75 253.9,-15.44 0,0 17.2,-2.8 3.67,-19.72 -13.54,-16.92 -62.04,-51.89 -62.04,-51.89 0,0 -30.46,-14.66 -76.14,11.85 -45.69,26.51 -253.12,106.39 -424.85,2.68 0,0 95.79,-24.15 146.39,-59.57 50.59,-35.41 145.03,-45.53 216.7,-7.59 0,0 53.97,26.14 64.09,-10.96l-91.07 -78.42c0,0 -48.06,-31.19 -76.73,0 -28.67,31.2 -191.43,161.39 -434.53,32.03 0,0 133.19,-32.76 190.54,-64.8 57.34,-32.04 156.84,-19.39 197.31,-5.06 40.48,14.34 43.01,-18.55 43.01,-18.55l-84.33 -59.87c0,0 -21.08,-22.76 -75.89,10.12 -54.81,32.89 -266.96,126.4 -468.82,31.61 0,0 149.73,-43.4 198.22,-54.06 48.49,-10.67 125.1,-36.86 202.68,2.91 0,0 64,19.39 66.91,-27.16l-69.82 -51.39c0,0 -29.09,-11.64 -47.52,0.97 -18.42,12.6 -250.26,129.65 -442.63,2.68 0,0 94.9,-17.95 126.96,-33.34 32.07,-15.39 164.16,-23.08 225.72,17.95 0,0 34.59,5.03 35.93,-13.7 1.34,-18.72 -60.19,-36.11 -60.19,-36.11 0,0 -83.14,-21.17 -148.92,-7.56 0,0 -93.75,15.88 -142.14,-52.17 0,0 -17.39,-32.51 -71.83,-34.02 -54.43,-1.51 -57.45,-20.41 -35.53,-39.32 21.93,-18.9 183.72,-62.75 302.42,-3.78 0,0 144.24,83.02 190.53,138.36 46.29,55.34 59.73,-2.27 59.73,-2.27 0,0 3.02,-15.12 -34.78,-27.97 -37.8,-12.85 -96.72,-84.48 -107.83,-168.24 0,0 -27.25,-68.2 -46.58,-87.53 -19.33,-19.32 -33.82,-88.89 -33.82,-88.89 0,0 80.2,66.67 111.12,76.33 30.91,9.67 145.89,89.86 159.42,196.14 13.52,106.28 1.93,108.21 1.93,108.21l90.82 56.04 12.06 -13.44c0,0 8.9,-14.61 -5.08,-20.96 -13.97,-6.36 -80.05,-38.12 -80.68,-129.6 -0.63,-91.49 -21,-215.52 -21,-215.52 0,0 168.03,162.15 173.91,253.73 5.89,91.58 -31.92,108.39 -31.92,108.39l-17.05 33.38 114.36 82.26c0,0 8.76,-7.25 3.76,-39.1 -4.99,-31.85 -29.35,-19.36 -38.72,-101.79 -9.36,-82.44 0.15,-226.07 -7.45,-256.47 -7.6,-30.39 98.78,142.47 121.58,193.77 22.8,51.29 33.24,135.82 3.8,160.52 -29.45,24.69 -8.55,95.93 -8.55,95.93l99.19 88.22c0,0 9.37,-23.73 4.99,-44.96 -4.37,-21.24 -69.87,-16.31 -63.23,-154.99 6.65,-138.68 25.65,-246.96 25.65,-246.96 0,0 73.64,70.97 101.27,154.38 27.63,83.42 36.34,184.23 3.21,256.9 -33.12,72.67 -5.7,88.34 -5.7,88.34l62.69 56.04c0,0 27.55,-2.85 14.25,-52.24 -13.3,-49.4 -34.19,-45.6 -16.15,-177.63 18.05,-132.02 5.7,-205.16 5.7,-205.16 0,0 97.6,59.36 107.43,98.44 10.17,40.42 29.35,112.42 20.8,181.76 -8.55,69.34 -62.69,113.03 -56.04,146.28 6.65,33.24 -8.25,70.68 14.49,94.23 22.73,23.55 54.39,56.84 54.39,56.84 0,0 19.49,-6.5 13,-34.11 -6.5,-27.6 -36.54,-98.23 -11.37,-168.87 25.17,-70.64 39.38,-199.17 22.09,-252.27 -17.28,-53.09 79.91,85.35 98.79,156.83 18.89,71.47 54.33,193.87 -25.93,265.49 -80.26,71.62 -17.29,119.78 -17.29,119.78l77.29 93.34c0,0 13.97,-30.06 1.08,-50.47 -12.89,-20.4 -42.95,-77.31 -7.52,-138.52 35.44,-61.2 52.62,-167.51 42.95,-244.82 -9.66,-77.31 113.7,177.89 119.32,251.51 5.61,73.62 -11.94,130.76 -75.29,187.67 -63.36,56.91 -19.33,91.27 -19.33,91.27l48.49 74.22c0,0 28.42,-12.99 16.24,-46.28 -12.18,-33.29 -19.49,-98.25 26.79,-159.96 46.29,-61.71 59.51,-151.62 51,-234.17 -5.04,-48.92 89.79,125.23 95.48,174.21 5.7,48.98 7.74,164.58 -87.35,252.26 -95.09,87.68 -39.51,132.14 -39.51,132.14l37.9 65.14c0,0 30.3,21.11 39.47,-10.1 9.18,-31.21 -23.86,-68.84 -11.01,-115.66 12.85,-46.81 48.65,-111.07 102.81,-184.5 54.15,-73.43 41.3,-70.68 41.3,-70.68 0,0 49.61,119.06 46.82,174.41 -2.8,55.34 -16.63,156.89 -104.15,206.52 -87.52,49.62 -67.67,112.79 -67.67,112.79l54.47 116.85c0,0 35.75,-7.85 34.88,-52.31 -0.87,-44.47 -20.93,-60.16 10.46,-107.25 31.39,-47.08 152.75,-157.22 140.82,-238.11 -11.94,-80.89 62.32,100.78 33.15,189.63 -29.18,88.85 -33.96,145.48 -102.11,173.71 -68.15,28.23 -83.54,100.78 -83.54,100.78l30.75 83.3c0,0 15.82,29.67 34.28,13.18 18.46,-16.48 -9.23,-79.11 29.01,-126.58 36.75,-45.62 64.66,-59.06 101.81,-91.85 18.5,-16.33 45.3,-50.39 48.12,-112 4.36,-95.04 71.13,108.82 57.18,158.52 -13.94,49.7 -41.97,138.72 -106.25,182.44 -64.29,43.71 -124.29,69.43 -115.72,110.57 8.57,41.14 22.89,90.57 22.89,90.57 0,0 15.43,29.14 30.01,5.14 14.57,-24 -12.01,-96.85 37.71,-144.85 49.72,-48.01 88.29,-51.43 114.86,-100.29 26.57,-48.86 50.57,-84.86 56.57,-69.43 6,15.43 32.74,190.51 -20.4,260.8 -53.15,70.29 -94.16,84.51 -140.28,105.57 -46.13,21.06 -59.17,38.11 -52.15,56.16 7.02,18.05 13.04,73.2 13.04,73.2 0,0 4.01,46.13 26.07,41.11 21.42,-4.86 18.56,-63.34 29.72,-89.87 9.67,-23.01 29.1,-57.54 61.54,-68.57 50.13,-17.04 135.37,-81.22 149.41,-132.37 14.04,-51.14 38.02,149.97 6.02,193.54 -32,43.57 -91.98,111.68 -186.75,135.2 -79.92,19.83 -67.24,45.02 -63.38,101.56l6.09 89.36 4.2 28.99c0,0 30,-24 30.86,-49.72 0.86,-25.71 22.29,-71.14 63.43,-90.86 41.15,-19.71 100.31,-43.96 120.72,-67.77 20.4,-23.81 71.41,-96.36 71.41,-96.36 0,0 31.63,129.74 -6.92,202.29 -25.19,47.42 -90.71,91.39 -133.09,116.16 -36.62,21.4 -56.29,30.38 -101.54,28.76 -39.41,-1.4 -44.49,38.89 -44.59,66.93 -0.14,38.41 -4.43,119.62 -4.43,119.62 0,0 -8.29,35.12 16.14,27.53 24.44,-7.58 28.66,-32.02 28.66,-32.02 0,0 22.75,-96.91 79.21,-123.03 56.45,-26.12 90.16,-30.33 101.96,-41.29 11.8,-10.95 75.84,-56.46 84.27,-77.52 8.42,-21.07 -21.07,107.86 -16.86,130.61 4.21,22.75 -33.69,117.98 -94.38,141.57 -60.69,23.59 -83.34,41.05 -123.07,40.08 -39.74,-0.96 -78.74,22.32 -81.65,42.67 -2.91,20.35 -11.03,96.98 -11.03,96.98 0,0 -6.79,34.42 21.37,21.99 28.17,-12.42 27.34,-75.38 96.09,-109.34 68.76,-33.97 99.74,-11.73 163.42,-53.87 63.67,-42.14 57.12,-54.31 57.12,-54.31 0,0 19.66,94.58 -38.39,174.17 -58.06,79.6 -141.4,109.57 -227.55,103.01 -86.15,-6.56 -94.58,32.77 -94.58,32.77l-22.22 100c0,0 -12.55,40.36 17.42,43.17 29.96,2.81 22.47,-45.89 64.61,-80.54 42.14,-34.65 84.28,-41.2 125.48,-43.07 41.21,-1.88 139.54,-49.64 149.83,-81.47 10.3,-31.84 4.69,135.78 -49.63,164.81 -54.31,29.03 -74.91,107.69 -207.89,97.39 -132.97,-10.3 -137.16,34.3 -137.16,34.3l-33.59 94.12c0,0 -9.53,55.05 19.05,44.46 28.58,-10.58 43.4,-83.63 94.22,-99.51 50.81,-15.88 129.15,-12.7 164.08,-29.64 34.94,-16.94 93.16,-51.87 103.75,-70.92 10.58,-19.06 -25.17,161.5 -72.53,188.72 -47.35,27.23 -65.17,82.96 -193.16,91.28 -128,8.33 -112.39,-17.69 -168.58,27.06 -56.19,44.74 -40.59,94.69 -27.06,91.57 13.53,-3.12 98.88,-87.17 138.87,-91.88 40,-4.7 122.34,16.47 149.4,3.53 27.06,-12.94 121.38,-60.67 123.52,-62.35 2.13,-1.67 -45.18,137.2 -137.64,190.57 -92.45,53.37 -125.95,54.8 -200.06,44.22 -74.11,-10.59 -108.23,-34.12 -139.99,10.58 -31.76,44.71 -34.44,76.57 -34.44,76.57 0,0 -1.32,26.59 15.96,19.94 17.29,-6.65 94.74,-71.63 138.63,-71.63 43.88,0 93.16,16.3 134.96,10.78 41.8,-5.52 121.37,-29.58 143.98,-49.52 22.6,-19.95 -47.8,148.57 -200.73,196.44 -162.06,50.73 -138.32,-9.62 -223.78,-26.01 -23.33,-4.48 -57.9,-6.03 -71.45,19.36 -12.49,23.43 -24.95,41.68 -33.11,52.76 -17.31,23.51 -7.05,44.72 21.34,35.91 32.97,-10.23 61.39,-62.52 142.09,-51.15 80.71,11.37 106.86,22.73 148.91,10.23 42.06,-12.5 114.81,-32.97 114.81,-32.97 0,0 -101.83,162.19 -243.92,187.2 -97.43,17.14 -107.13,12.43 -175.58,-32.9 -14.38,-9.53 -48.2,-24.93 -85.87,6.75 -50.02,42.06 -54.16,75.19 -54.16,75.19 0,0 -4.47,12.29 33.52,-11.18 37.99,-23.46 96.09,-42.46 144.14,-15.64 48.05,26.82 137.44,26.82 137.44,26.82 0,0 98.33,-4.47 122.92,-24.58 24.58,-20.12 24.58,-20.12 24.58,-20.12 0,0 -129.63,184.34 -297.88,204.73 -168.24,20.4 -165.83,-55.47 -215.79,-60.62 -49.96,-5.14 -59.51,49.96 -59.51,49.96l-71.3 -50.43z"/>
   <polygon class="fil5" points="7494.87,2181.28 7647.35,2653.68 8143.75,2652.72 7741.59,2943.72 7895.9,3415.53 7494.87,3122.98 7093.83,3415.53 7248.13,2943.72 6845.98,2652.72 7342.38,2653.68 "/>
   <path class="fil6" d="M8185.58 6929.26l-697.55 -375.54 -697.38 375.45 -111.41 -204.07 562.26 -304.11 -1005.72 -541.45 17.09 -98.8c1.26,-10.96 13.83,-97.63 97.09,-105.71l4.66 -0.46 1133.45 613.06 1146.94 -620.36 4.66 0.45c83.26,8.08 95.83,94.75 97.09,105.72l17.09 98.8 -1019.25 548.73 575.79 311.44 -111.4 204.06 -13.41 -7.21zm-690.28 -406.5l691.41 372.23 82.01 -150.22 -598.77 -323.86 1049.86 -565.22 -13.33 -77.09 -0.12 -1.14c-0.02,-0.2 -6.03,-69.61 -65.13,-78.64l-1153.16 623.72 -1139.67 -616.42c-59.1,9.04 -65.11,78.44 -65.13,78.65l-0.12 1.14 -13.33 77.09 1036.33 557.93 -585.23 316.54 82.01 150.22 685.1 -368.84 7.27 3.91z"/>
   <path class="fil6" d="M7479.48 6174.72l-118.84 0c-5.63,0 -10.55,-3.02 -13.23,-7.54 -17.31,-23.97 -334.98,-453.12 -926.68,-459.9 -6.99,-0.06 -12.85,-4.78 -14.64,-11.19l-73.63 -231.09c-2.55,-8.06 1.92,-16.67 9.98,-19.22 1,-0.32 2.01,-0.53 3.01,-0.64l-0.01 -0.03c1.71,-0.18 584.47,-68.68 1134.04,485.23 549.56,-553.91 1132.32,-485.41 1134.03,-485.23 8.42,0.9 14.53,8.46 13.64,16.89 -0.15,1.41 -0.49,2.75 -0.98,4l-73.47 230.58c-2.05,6.49 -8.03,10.64 -14.48,10.69 -607.83,6.97 -926.54,459.72 -927.47,461.02 -2.99,4.16 -7.68,6.37 -12.44,6.37l0 0.06 -118.83 0zm-111.13 -30.77l222.25 0c41.72,-55.5 361.87,-455.37 936.23,-467.06l64.59 -202.74c-103.31,-6.07 -615.61,-8.33 -1100.95,488.63l-0.3 0.3c-6.07,5.91 -15.79,5.77 -21.69,-0.3 -485.34,-496.96 -997.64,-494.7 -1100.95,-488.63l64.59 202.74c574.36,11.69 894.51,411.55 936.23,467.06z"/>
   <path class="fil6" d="M7469.01 5919.82l0 -1175.55c-45.19,-38.01 -374.23,-302.32 -766.97,-286.7l-333.04 985.78c113.31,-5.89 617.87,-2.23 1100.01,476.47zm30.77 -1182.58l0 1209.91 -0.05 0c0,3.88 -1.47,7.76 -4.4,10.75l-2.36 2.4 -0.02 -0.02c-0.87,0.95 -1.86,1.89 -2.78,2.8 -6.07,5.91 -15.79,5.77 -21.69,-0.3 -542.19,-555.17 -1118.12,-487.32 -1119.79,-487.14 -2.13,0.21 -4.33,0 -6.49,-0.72 -8.03,-2.69 -12.36,-11.38 -9.68,-19.41l343.66 -1017.22c1.81,-6.06 7.26,-10.61 13.93,-10.94 428.08,-22.39 784.12,280.8 803.44,297.53 3.77,2.8 6.23,7.29 6.23,12.36zm-6.8 1223.07c-2.14,2.17 0.55,-0.55 0,0z"/>
   <path class="fil6" d="M7459.17 5947.15l0 -1209.91c0,-5.07 2.46,-9.56 6.23,-12.36 19.32,-16.73 375.36,-319.92 803.44,-297.53 6.67,0.33 12.12,4.88 13.93,10.94l343.66 1017.22c2.68,8.03 -1.65,16.72 -9.68,19.41 -2.16,0.72 -4.36,0.93 -6.49,0.71 -1.67,-0.17 -577.6,-68.02 -1119.79,487.15 -5.9,6.07 -15.62,6.21 -21.69,0.3 -0.92,-0.91 -1.91,-1.85 -2.78,-2.8l-0.02 0.02 -2.36 -2.4c-2.93,-2.99 -4.4,-6.87 -4.4,-10.75l-0.05 0zm30.77 -1202.88l0 1175.55c482.14,-478.7 986.7,-482.36 1100.01,-476.47l-333.04 -985.78c-392.74,-15.62 -721.77,248.69 -766.97,286.7zm-23.97 1216.04c-0.55,-0.55 2.13,2.16 0,0z"/>
   <path class="fil6" d="M7384.51 4835.85l-42.24 773.09 -11.77 -9.95c-0.63,-0.52 -216.26,-184.07 -372.63,-214.28 -39.36,-7.6 -72.91,-13.66 -101.09,-18.47 -37.08,-6.33 -64.47,-10.44 -83.57,-13.06 -11.54,-1.58 -22.84,-3.91 -33.65,-7.02 -28.38,-8.17 -52.98,-21.79 -69.45,-41.89 -16.74,-20.42 -25.01,-47.22 -20.32,-81.36 1.04,-7.64 2.77,-15.71 5.22,-24.21l0 -0.09 151.05 -506.36c7.6,-25.51 17.46,-46.84 33.95,-60.19 16.82,-13.62 39.75,-18.57 72.85,-10.7 0.61,0.09 210.23,36 468.22,207.71l3.67 2.43 -0.24 4.35zm-55.89 741.67l40.32 -738.07c-253.58,-167.8 -458.12,-202.85 -458.72,-202.96l-0.45 -0.12c-28.08,-6.75 -46.89,-3.1 -60.08,7.59 -13.6,11.01 -22.1,29.84 -28.91,52.68l-151.05 506.36 -0.03 -0.01c-2.19,7.63 -3.75,14.96 -4.71,21.96 -4.04,29.47 2.9,52.36 17.02,69.58 14.38,17.56 36.29,29.57 61.76,36.91 9.96,2.87 20.55,5.03 31.49,6.54 19.59,2.68 47.34,6.84 84.11,13.12 28.1,4.79 61.72,10.87 101.39,18.53 138.46,26.75 320.34,169.13 367.86,207.89z"/>
   <path class="fil2" d="M7305.92 4892.9c0,0 -33.81,-16.02 -44.94,-32.03 -11.12,-16.02 -27.59,-21.36 -54.28,-18.24 -26.7,3.11 -41.38,-7.12 -54.28,-22.7 -12.9,-15.57 -19.13,-21.35 -30.26,-18.68 -11.12,2.67 -28.03,-4.9 -32.03,-15.57 -4,-10.68 -15.57,-19.13 -33.37,-14.69 -17.79,4.45 -34.7,-8.9 -34.7,-8.9 0,0 1.33,-10.67 -17.8,-9.34 -19.13,1.34 -38.71,-2.22 -42.71,-7.56 -4.01,-5.34 -44.49,6.67 -44.49,6.67 0,0 32.48,8.9 39.15,22.69 6.67,13.79 32.92,3.12 32.92,3.12 0,0 17.36,0 26.25,17.79 8.9,17.8 40.49,-6.23 55.62,7.12 15.13,13.35 12.46,18.69 34.26,17.35 21.8,-1.33 27.14,18.24 33.81,22.25 6.68,4 9.35,17.35 56.95,16.02 47.61,-1.34 53.39,21.35 53.39,21.35 0,0 16.46,13.8 56.51,13.35z"/>
   <path class="fil2" d="M7304.45 5054.43c0,0 -16.02,-17.8 -39.16,-19.13 -23.13,-1.34 -19.57,-27.15 -41.38,-32.49 -21.8,-5.33 -44.05,4.9 -58.28,-1.77 -14.24,-6.68 -17.8,-20.03 -25.81,-20.03 -8.01,0 -30.65,-3.15 -45.34,-21.84 -14.68,-18.69 -8.01,-22.69 -24.47,-22.69 -16.46,0 -54.73,1.78 -57.84,-11.13 -3.12,-12.9 -16.02,-19.13 -37.38,-17.35 -21.36,1.78 -33.37,-12.46 -33.37,-12.46 0,0 -10.24,-10.23 -23.14,-8.46 -12.91,1.78 -61.55,11.16 -61.55,11.16 0,0 53.22,2.05 63.45,19.96 10.23,17.91 25.07,15.87 39.4,17.4 14.33,1.54 33.27,4.61 39.41,18.42 6.14,13.82 50.65,-9.2 63.45,8.7 12.79,17.91 15.35,29.17 48.61,33.27 33.27,4.09 21.49,16.37 36.85,26.6 15.35,10.24 35.31,-11.25 60.38,1.03 25.08,12.28 23.54,24.05 44.01,25.07 20.47,1.03 22,-5.11 52.16,5.74z"/>
   <path class="fil2" d="M7259.13 5201.62c-3.6,0.6 -49.1,-7.78 -59.28,-22.75 -10.17,-14.96 -14.96,-21.55 -31.13,-20.35 -16.16,1.2 -18.56,-0.6 -30.53,-14.97 -11.97,-14.37 -28.74,6.59 -38.92,1.8 -10.17,-4.79 -6.58,-30.54 -23.94,-35.93 -17.37,-5.38 -49.1,5.39 -68.85,-10.77 -19.76,-16.17 -16.17,-11.38 -30.54,-10.78 -14.37,0.6 -31.72,-1.79 -32.92,-14.37 -1.2,-12.57 -23.36,-22.15 -38.32,-23.35 -14.97,-1.19 -14.97,-1.19 -14.97,-1.19 0,0 -61.07,1.19 -69.45,-13.18 0,0 3,32.34 29.94,34.73 26.94,2.39 59.87,2.99 76.63,26.34 16.76,23.35 50.29,1.2 66.46,22.75 16.16,21.56 49.83,5.57 70.66,21.87 20.82,16.3 10.86,23.54 55.68,23.09 0,0 13.58,14.49 21.28,14.49 7.69,0 31.69,-13.14 40.74,-2.27 9.05,10.87 17.2,32.14 77.46,24.84z"/>
   <path class="fil2" d="M7240.98 5338.29c0,0 -35.94,-1.94 -53.06,-17.35 -17.13,-15.41 -11.42,-25.69 -32.54,-25.12 -21.12,0.57 -43.38,-2.28 -53.09,-15.98 -9.7,-13.7 -13.13,-15.41 -34.82,-13.13 -21.69,2.28 -26.62,1.69 -35.18,-10.29 -18.49,-25.89 -15.67,-5.79 -47.59,-10.83 -10.84,-1.71 -35.39,2.28 -37.67,-9.7 -2.29,-11.99 -35.39,-1.14 -35.39,-17.13 0,-15.98 -44.53,1.71 -43.96,-14.27 0.7,-19.56 -76.81,-8.86 -90.76,-4.57 0,0 43.39,6.86 52.52,28.55 9.13,21.69 43.38,-9.14 77.63,19.97 34.25,29.12 41.86,31.46 87.91,23.41 46.04,-8.05 7.13,19.96 87.6,24.84 0,0 3.16,21.4 24.85,20.25 21.69,-1.14 48.52,-6.27 64.5,12.56 15.99,18.84 69.05,8.79 69.05,8.79z"/>
   <g>
    <path class="fil6" d="M7611.56 4835.85l42.23 773.09 11.78 -9.95c0.63,-0.52 216.26,-184.07 372.62,-214.28 39.36,-7.6 72.91,-13.66 101.09,-18.47 37.08,-6.33 64.48,-10.44 83.57,-13.06 11.55,-1.58 22.85,-3.91 33.66,-7.02 28.38,-8.17 52.98,-21.79 69.45,-41.89 16.73,-20.42 25.01,-47.22 20.32,-81.36 -1.04,-7.64 -2.77,-15.71 -5.22,-24.21l0 -0.09 -151.05 -506.36c-7.61,-25.51 -17.46,-46.84 -33.95,-60.19 -16.83,-13.62 -39.75,-18.57 -72.85,-10.7 -0.61,0.09 -210.23,36 -468.22,207.71l-3.67 2.43 0.24 4.35zm55.88 741.67l-40.32 -738.07c253.59,-167.8 458.13,-202.85 458.73,-202.96l0.45 -0.12c28.08,-6.75 46.88,-3.1 60.08,7.59 13.6,11.01 22.1,29.84 28.91,52.68l151.05 506.36 0.02 -0.01c2.2,7.63 3.76,14.96 4.72,21.96 4.04,29.47 -2.9,52.36 -17.02,69.58 -14.39,17.56 -36.3,29.57 -61.76,36.91 -9.97,2.87 -20.55,5.03 -31.49,6.54 -19.59,2.68 -47.34,6.84 -84.11,13.12 -28.1,4.79 -61.72,10.87 -101.39,18.53 -138.46,26.75 -320.34,169.13 -367.87,207.89z"/>
    <path class="fil2" d="M7690.15 4892.9c0,0 33.81,-16.02 44.94,-32.03 11.12,-16.02 27.58,-21.36 54.28,-18.24 26.69,3.11 41.37,-7.12 54.28,-22.7 12.9,-15.57 19.13,-21.35 30.25,-18.68 11.12,2.67 28.03,-4.9 32.04,-15.57 4,-10.68 15.57,-19.13 33.37,-14.69 17.79,4.45 34.7,-8.9 34.7,-8.9 0,0 -1.33,-10.67 17.8,-9.34 19.13,1.34 38.7,-2.22 42.71,-7.56 4,-5.34 44.49,6.67 44.49,6.67 0,0 -32.48,8.9 -39.15,22.69 -6.68,13.79 -32.93,3.12 -32.93,3.12 0,0 -17.35,0 -26.25,17.79 -8.89,17.8 -40.48,-6.23 -55.61,7.12 -15.13,13.35 -12.46,18.69 -34.26,17.35 -21.8,-1.33 -27.14,18.24 -33.82,22.25 -6.67,4 -9.34,17.35 -56.95,16.02 -47.6,-1.34 -53.39,21.35 -53.39,21.35 0,0 -16.46,13.8 -56.5,13.35z"/>
    <path class="fil2" d="M7691.62 5054.43c0,0 16.02,-17.8 39.15,-19.13 23.14,-1.34 19.58,-27.15 41.38,-32.49 21.81,-5.33 44.05,4.9 58.29,-1.77 14.24,-6.68 17.8,-20.03 25.81,-20.03 8.01,0 30.65,-3.15 45.33,-21.84 14.69,-18.69 8.01,-22.69 24.48,-22.69 16.46,0 54.73,1.78 57.84,-11.13 3.12,-12.9 16.02,-19.13 37.38,-17.35 21.36,1.78 33.37,-12.46 33.37,-12.46 0,0 10.24,-10.23 23.14,-8.46 12.9,1.78 61.55,11.16 61.55,11.16 0,0 -53.22,2.05 -63.45,19.96 -10.24,17.91 -25.08,15.87 -39.4,17.4 -14.33,1.54 -33.27,4.61 -39.41,18.42 -6.14,13.82 -50.66,-9.2 -63.45,8.7 -12.79,17.91 -15.35,29.17 -48.62,33.27 -33.26,4.09 -21.49,16.37 -36.84,26.6 -15.35,10.24 -35.31,-11.25 -60.38,1.03 -25.08,12.28 -23.54,24.05 -44.01,25.07 -20.47,1.03 -22.01,-5.11 -52.16,5.74z"/>
    <path class="fil2" d="M7736.94 5201.62c3.59,0.6 49.1,-7.78 59.27,-22.75 10.18,-14.96 14.97,-21.55 31.14,-20.35 16.16,1.2 18.55,-0.6 30.53,-14.97 11.97,-14.37 28.74,6.59 38.91,1.8 10.18,-4.79 6.59,-30.54 23.95,-35.93 17.36,-5.38 49.09,5.39 68.85,-10.77 19.76,-16.17 16.17,-11.38 30.53,-10.78 14.37,0.6 31.73,-1.79 32.93,-14.37 1.2,-12.57 23.35,-22.15 38.32,-23.35 14.96,-1.19 14.96,-1.19 14.96,-1.19 0,0 61.07,1.19 69.45,-13.18 0,0 -2.99,32.34 -29.93,34.73 -26.94,2.39 -59.87,2.99 -76.63,26.34 -16.77,23.35 -50.29,1.2 -66.46,22.75 -16.16,21.56 -49.83,5.57 -70.66,21.87 -20.83,16.3 -10.87,23.54 -55.68,23.09 0,0 -13.58,14.49 -21.28,14.49 -7.7,0 -31.69,-13.14 -40.74,-2.27 -9.06,10.87 -17.21,32.14 -77.46,24.84z"/>
    <path class="fil2" d="M7755.08 5338.29c0,0 35.94,-1.94 53.07,-17.35 17.13,-15.41 11.42,-25.69 32.54,-25.12 21.12,0.57 43.38,-2.28 53.08,-15.98 9.71,-13.7 13.13,-15.41 34.82,-13.13 21.7,2.28 26.63,1.69 35.19,-10.29 18.49,-25.89 15.67,-5.79 47.58,-10.83 10.85,-1.71 35.4,2.28 37.68,-9.7 2.28,-11.99 35.39,-1.14 35.39,-17.13 0,-15.98 44.52,1.71 43.95,-14.27 -0.7,-19.56 76.81,-8.86 90.76,-4.57 0,0 -43.38,6.86 -52.51,28.55 -9.14,21.69 -43.38,-9.14 -77.63,19.97 -34.25,29.12 -41.87,31.46 -87.91,23.41 -46.05,-8.05 -7.13,19.96 -87.61,24.84 0,0 -3.15,21.4 -24.84,20.25 -21.69,-1.14 -48.52,-6.27 -64.51,12.56 -15.98,18.84 -69.05,8.79 -69.05,8.79z"/>
   </g>
   <path class="fil7" d="M7488.07 6322.54l-1139.67 -616.42c-59.1,9.04 -65.11,78.44 -65.13,78.65l-0.12 1.14 -13.33 77.09 1036.33 557.93 -585.23 316.54 82.01 150.22 685.1 -368.84 7.27 3.91 691.41 372.23 82.01 -150.22 -598.77 -323.86 1049.86 -565.22 -13.33 -77.09 -0.12 -1.14c-0.02,-0.2 -6.03,-69.61 -65.13,-78.64l-1153.16 623.72z"/>
   <path class="fil6" d="M8661.7 5748.88l-907.81 488.55 -10.9 -20.28 907.81 -488.55 10.9 20.28zm-2323.92 -12.13l907.81 488.55 -10.91 20.28 -907.81 -488.55 10.91 -20.28zm965.9 519.49l118.56 68.45 -11.45 19.92 -118.55 -68.45 11.44 -19.92zm392.66 11.77l-118.56 68.45 -11.44 -19.92 118.56 -68.45 11.44 19.92z"/>
   <path class="fil0" d="M7468.48 5962.78c-485.34,-496.96 -997.64,-494.7 -1100.95,-488.63l64.59 202.74c574.36,11.69 894.51,411.55 936.23,467.06l222.25 0c41.72,-55.5 361.87,-455.37 936.23,-467.06l64.59 -202.74c-103.31,-6.07 -615.61,-8.33 -1100.95,488.63l-0.3 0.3c-6.07,5.91 -15.79,5.77 -21.69,-0.3z"/>
   <g>
    <path class="fil8" d="M5415.32 7475.6l462.31 -426.05c9.67,-10.17 149.96,-152.64 290.86,-2.14 339.32,327.04 829.69,484.85 1318.2,484.85 500.69,0 998.81,-165.73 1329.83,-484.85 140.9,-150.5 281.19,-8.03 290.86,2.14l475.88 438.56 -11.99 14.08c-84.37,99.05 -175.78,190.01 -273.08,272.89 -498.83,424.92 -1152.35,637.37 -1805.68,637.37 -653.34,0 -1306.85,-212.45 -1805.69,-637.37 -97.3,-82.88 -188.71,-173.84 -273.07,-272.89l-12 -14.08 13.57 -12.51zm488.73 -398.21l-449.11 413.89c79.69,92.09 165.63,176.98 256.82,254.66 491.54,418.7 1136.06,628.05 1780.75,628.05 644.68,0 1289.2,-209.35 1780.74,-628.05 91.19,-77.68 177.13,-162.56 256.82,-254.66l-449.11 -413.89 -0.98 -0.98c-0.34,-0.36 -118.14,-128.57 -235.79,-2.42l-0.75 0.75c-338.4,326.45 -846.59,495.98 -1356.75,495.98 -497.88,0 -998.22,-161.43 -1345.12,-495.98l-0.75 -0.75c-117.65,-126.15 -235.45,2.06 -235.79,2.42l-0.98 0.98z"/>
    <path class="fil7" d="M5904.05 7077.39l-449.11 413.89c79.69,92.09 165.63,176.98 256.82,254.66 491.54,418.7 1136.06,628.05 1780.75,628.05 644.68,0 1289.2,-209.35 1780.74,-628.05 91.19,-77.68 177.13,-162.56 256.82,-254.66l-449.11 -413.89 -0.98 -0.98c-0.34,-0.36 -118.14,-128.57 -235.79,-2.42l-0.75 0.75c-338.4,326.45 -846.59,495.98 -1356.75,495.98 -497.88,0 -998.22,-161.43 -1345.12,-495.98l-0.75 -0.75c-117.65,-126.15 -235.45,2.06 -235.79,2.42l-0.98 0.98z"/>
    <g>
     <path class="fil8" d="M5574.39 7339.71c-76.35,-44.52 -204.88,-107.85 -373.79,-148.91 -174.1,-42.33 -391.04,-60.91 -637.79,-10.67 87.22,56.93 327.4,225.92 390.79,398.59l6.33 17.25 -18.11 3.18c-0.72,0.12 -241.65,40.3 -339.93,246.04 75.75,-1.75 310.1,1.48 498.63,96.82l35.98 18.21c173.19,87.73 230.43,116.72 322.5,126.36 23.51,-18.15 43.1,-37.84 57.52,-58.34 16.37,-23.26 26.07,-47.48 27.23,-71.49 1.13,-23.55 -6.02,-47.4 -23.27,-70.5 -11.19,-15 -26.58,-29.68 -46.64,-43.79 -31.17,-21.94 -82.74,-61.92 -117.45,-107.95 -24.15,-32.05 -40.32,-67.26 -36.97,-102.35 2.3,-24.19 13.51,-49.69 31.03,-74.94 15.8,-22.78 36.81,-45.54 61,-67.01l-0.16 -0.19 163.1 -150.31zm-366.58 -178.72c186.49,45.33 325.01,117.41 400.02,162.99l17.44 10.59 -171.54 158.09 0.96 1.12 -11.84 9.91c-27.18,22.74 -50.55,47.02 -67.16,70.96 -14.66,21.12 -23.97,41.74 -25.75,60.4 -2.5,26.24 10.97,54.43 30.97,80.95 32.25,42.77 81.04,80.54 110.6,101.34 22.85,16.08 40.56,33.04 53.61,50.52 21.76,29.13 30.75,59.73 29.27,90.33 -1.45,30.14 -13.12,59.81 -32.75,87.71 -17.3,24.6 -40.82,47.87 -68.92,68.86l-4.69 3.5 -5.95 -0.56c-101.51,-9.57 -158.64,-38.52 -339.39,-130.08l-35.99 -18.21c-220.36,-111.44 -507.03,-92.66 -507.86,-92.61l-24.25 1.5 9.11 -22.53c82.37,-203.65 291.14,-267.88 354.38,-282.99 -85.44,-196.04 -402.1,-386.07 -403.04,-386.64l-32.39 -19.62 36.9 -8.44c267.19,-61.1 501.76,-42.42 688.26,2.91z"/>
     <path class="fil9" d="M5456.49 8101.73l4.11 12.42c0,0 181.91,23.41 355.62,-256.13 -33.5,-25.68 -66.4,-52.24 -98.64,-79.7 -97.3,-82.88 -188.71,-173.85 -273.08,-272.9l-11.5 -13.51c-54.09,45.26 -94.06,97.02 -98.32,141.7 -7.36,77.15 97.59,160.82 147.99,196.29 121.85,85.73 85.25,194.58 -19.15,272.54 -2.37,-0.22 -4.7,-0.46 -7.03,-0.71z"/>
     <path class="fil4" d="M5136.5 7960.22c173.19,87.73 230.43,116.72 322.5,126.36 23.51,-18.15 43.1,-37.84 57.52,-58.34 16.37,-23.26 26.07,-47.48 27.23,-71.49 1.13,-23.55 -6.02,-47.4 -23.27,-70.5 -11.19,-15 -26.58,-29.68 -46.64,-43.79 -31.17,-21.94 -82.74,-61.92 -117.45,-107.95 -24.15,-32.05 -40.32,-67.26 -36.97,-102.35 2.3,-24.19 13.51,-49.69 31.03,-74.94 15.8,-22.78 36.81,-45.54 61,-67.01l-0.16 -0.19 163.1 -150.31c-76.35,-44.52 -204.88,-107.85 -373.79,-148.91 -174.1,-42.33 -391.04,-60.91 -637.79,-10.67 87.22,56.93 327.4,225.92 390.79,398.59l6.33 17.25 -18.11 3.18c-0.72,0.12 -241.65,40.3 -339.93,246.04 75.75,-1.75 310.1,1.48 498.63,96.82l35.98 18.21z"/>
    </g>
    <g>
     <path class="fil8" d="M9422.67 7339.72c76.34,-44.53 204.87,-107.86 373.78,-148.92 174.1,-42.32 391.05,-60.91 637.79,-10.66 -87.21,56.93 -327.4,225.91 -390.78,398.58l-6.34 17.25 18.11 3.18c0.72,0.13 241.65,40.3 339.93,246.05 -75.75,-1.76 -310.1,1.47 -498.63,96.81l-35.98 18.21c-173.19,87.73 -230.42,116.72 -322.49,126.36 -23.52,-18.15 -43.11,-37.84 -57.53,-58.34 -16.36,-23.26 -26.07,-47.48 -27.22,-71.49 -1.14,-23.55 6.01,-47.4 23.26,-70.5 11.19,-14.99 26.59,-29.68 46.64,-43.79 31.17,-21.94 82.74,-61.92 117.45,-107.95 24.16,-32.05 40.32,-67.26 36.98,-102.34 -2.31,-24.2 -13.52,-49.7 -31.03,-74.94 -15.81,-22.78 -36.82,-45.54 -61.01,-67.02l0.17 -0.19 -163.1 -150.3zm366.57 -178.73c-186.49,45.34 -325,117.41 -400.02,162.99l-17.44 10.59 171.54 158.09 -0.96 1.13 11.84 9.9c27.18,22.74 50.56,47.02 67.17,70.96 14.65,21.12 23.96,41.74 25.74,60.4 2.5,26.25 -10.97,54.43 -30.97,80.95 -32.25,42.77 -81.03,80.54 -110.59,101.34 -22.86,16.09 -40.56,33.04 -53.62,50.52 -21.75,29.14 -30.75,59.73 -29.27,90.33 1.45,30.14 13.12,59.82 32.75,87.71 17.31,24.6 40.82,47.87 68.92,68.86l4.7 3.51 5.94 -0.56c101.51,-9.58 158.64,-38.52 339.4,-130.08l35.98 -18.22c220.36,-111.44 507.03,-92.66 507.86,-92.61l24.25 1.5 -9.11 -22.53c-82.37,-203.64 -291.13,-267.88 -354.38,-282.99 85.44,-196.04 402.1,-386.07 403.04,-386.64l32.39 -19.62 -36.89 -8.44c-267.2,-61.1 -501.77,-42.42 -688.27,2.91z"/>
     <path class="fil9" d="M9540.56 8101.73l-4.11 12.42c0,0 -181.91,23.41 -355.61,-256.12 33.49,-25.69 66.39,-52.25 98.63,-79.71 97.3,-82.88 188.71,-173.85 273.08,-272.9l11.5 -13.5c54.09,45.25 94.07,97.01 98.32,141.69 7.36,77.16 -97.59,160.82 -147.99,196.29 -121.84,85.73 -85.25,194.58 19.15,272.54 2.37,-0.22 4.71,-0.46 7.03,-0.71z"/>
     <path class="fil7" d="M9860.55 7960.22c-173.19,87.73 -230.42,116.72 -322.49,126.36 -23.52,-18.15 -43.11,-37.84 -57.53,-58.34 -16.36,-23.26 -26.07,-47.48 -27.22,-71.49 -1.14,-23.55 6.01,-47.4 23.26,-70.5 11.19,-14.99 26.59,-29.68 46.64,-43.79 31.17,-21.94 82.74,-61.92 117.45,-107.95 24.16,-32.05 40.32,-67.26 36.98,-102.34 -2.31,-24.2 -13.52,-49.7 -31.03,-74.94 -15.81,-22.78 -36.82,-45.54 -61.01,-67.02l0.17 -0.19 -163.1 -150.3c76.34,-44.53 204.87,-107.86 373.78,-148.92 174.1,-42.32 391.05,-60.91 637.79,-10.66 -87.21,56.93 -327.4,225.91 -390.78,398.58l-6.34 17.25 18.11 3.18c0.72,0.13 241.65,40.3 339.93,246.05 -75.75,-1.76 -310.1,1.47 -498.63,96.81l-35.98 18.21z"/>
    </g>
    <path class="fil10 str0" d="M6028.59 7271.71l-248.03 292.22 -76.11 -64.6 248.04 -292.22 76.1 64.6zm247.79 196.35l-149.15 104.64 -75.85 205.71 -82.32 -61.45 65.83 -155.84 -98.26 131.64 -79.99 -59.71 229.27 -307.16 79.99 59.71 -89.07 119.34 124.99 -92.53 74.56 55.65zm231.21 126.62l-186.58 334.81 -87.19 -48.59 78.31 -140.52 -25.4 -14.16 -78.31 140.53 -87.2 -48.59 186.58 -334.81 87.2 48.59 -66.75 119.79 25.39 14.15 66.76 -119.79 87.19 48.59zm138.08 53.85l-109.28 286.6 56.14 21.41 -27.27 71.54 -149.42 -56.97 136.55 -358.14 93.28 35.56zm278.53 86.79l-43.87 385.02 -98.39 -26.3 12.54 -67.87 -34.73 -9.27 -22.98 65.07 -99.64 -26.62 147.8 -357.25 139.27 37.22zm-114.78 224.63c6.61,-43.21 15.66,-96.47 27.09,-159.87 -28.54,68.61 -48.43,118.97 -59.79,151.13l32.7 8.74zm397.75 -55.4l-91.5 -13.86 4.24 -28.03c1.98,-13.1 2.06,-21.66 0.28,-25.61 -1.77,-3.94 -5.33,-6.28 -10.76,-7.1 -5.91,-0.9 -10.74,0.82 -14.52,5.24 -3.76,4.33 -6.38,11.36 -7.86,21.18 -1.91,12.62 -1.6,22.39 0.87,29.3 2.4,6.81 10.49,15.96 24.36,27.37 39.72,32.73 64.02,58.38 72.83,76.79 8.89,18.42 10.48,46.19 4.87,83.24 -4.09,26.99 -10.29,46.38 -18.55,58.28 -8.24,11.82 -22,20.69 -41.43,26.56 -19.37,5.97 -41.02,7.1 -65.06,3.46 -26.35,-3.99 -48.02,-12.42 -65.2,-25.23 -17.09,-12.8 -27.3,-27.33 -30.8,-43.62 -3.4,-16.37 -2.95,-38.76 1.34,-67.11l3.77 -24.83 91.5 13.86 -6.97 46.07c-2.16,14.22 -2.26,23.51 -0.32,27.97 1.94,4.46 6.19,7.15 12.73,8.14 6.55,0.99 11.81,-0.83 15.79,-5.53 3.97,-4.63 6.73,-12.05 8.25,-22.11 3.37,-22.28 2.55,-37.35 -2.49,-45.06 -5.26,-7.83 -18.85,-21.65 -40.84,-41.48 -21.98,-19.91 -36.32,-34.17 -43.19,-42.72 -6.8,-8.55 -11.89,-19.69 -15.12,-33.41 -3.23,-13.73 -3.36,-30.65 -0.31,-50.77 4.39,-28.99 11.28,-49.67 20.74,-61.96 9.45,-12.29 22.94,-20.95 40.61,-26.04 17.68,-5.08 38.13,-5.82 61.53,-2.27 25.55,3.87 46.64,11.31 63.44,22.27 16.71,11.02 27.03,23.2 30.95,36.7 3.93,13.42 3.66,35.19 -0.9,65.29l-2.28 15.02zm151.87 -103.85l99.17 1.08c31.34,0.34 55.05,3.03 71.15,8.12 16.1,5.03 28.99,15.1 38.76,30.07 9.77,15.04 14.44,39.08 14.08,72.19 -0.24,22.37 -3.89,37.92 -11.01,46.65 -7.12,8.8 -21.08,15.36 -41.81,19.9 23.04,5.5 38.61,14.31 46.72,26.43 8.11,12.2 12.02,30.74 11.75,55.77l-0.39 35.54c-0.28,25.92 -3.47,45.03 -9.51,57.48 -6.03,12.37 -15.49,20.83 -28.46,25.29 -12.97,4.47 -39.48,6.44 -79.54,6l-115.07 -1.25 4.16 -383.27zm99.11 66.5l-0.93 85.28c4.2,-0.12 7.43,-0.16 9.78,-0.14 9.52,0.11 15.69,-2.25 18.32,-6.99 2.72,-4.81 4.16,-18.61 4.41,-41.3 0.13,-12.03 -0.83,-20.44 -2.95,-25.31 -2.13,-4.79 -4.93,-7.89 -8.39,-9.22 -3.46,-1.25 -10.23,-2.05 -20.24,-2.32zm-1.58 144.88l-1.17 107.56c13.74,-0.33 22.56,-2.42 26.4,-6.33 3.84,-3.92 5.8,-13.67 5.97,-29.17l0.39 -35.86c0.18,-16.47 -1.41,-26.42 -4.76,-30.02 -3.35,-3.5 -12.3,-5.54 -26.83,-6.18zm195.66 -215.96l165.59 -14.29 6.58 76.28 -66.14 5.71 6.29 72.9 61.8 -5.34 6.24 72.42 -61.79 5.33 7.25 84 72.9 -6.29 6.58 76.28 -172.35 14.87 -32.95 -381.87zm213.56 -20.69l68.86 -15.14c45.9,-10.09 77.36,-15.19 94.39,-15.22 17.03,-0.02 32.28,6.14 45.74,18.47 13.44,12.26 23.69,34.4 30.69,66.27 6.41,29.1 7.08,49.46 2.03,61.07 -4.98,11.6 -17.94,20.74 -38.8,27.39 20.3,0.58 34.72,4.11 43.12,10.69 8.38,6.51 14.11,13.03 17.16,19.39 3.13,6.33 7.98,24.62 14.62,54.83l21.74 98.83 -90.4 19.88 -27.38 -124.55c-4.41,-20.03 -8.71,-32.07 -12.92,-36.19 -4.14,-4.13 -12.86,-4.69 -26.19,-1.76l37.15 168.95 -97.49 21.44 -82.32 -374.35zm111.54 42.45l18.32 83.3c10.88,-2.4 18.12,-5.56 21.8,-9.51 3.68,-3.95 3.74,-14.22 0.11,-30.71l-4.52 -20.58c-2.62,-11.91 -6.47,-19.25 -11.46,-22.04 -5,-2.79 -13.13,-2.9 -24.25,-0.46zm329.5 -160.52l173.93 346.29 -96.74 31.82 -26.64 -63.67 -34.14 11.23 16.36 67.05 -97.97 32.23 -71.74 -379.9 136.94 -45.05zm26.82 250.83c-18.1,-39.79 -39.67,-89.32 -64.79,-148.64 13.65,73.04 24.55,126.08 32.64,159.21l32.15 -10.57zm316.42 -414.98l178.3 339.29 -77.21 40.58 -120.58 -228.94 89.7 245.17 -54.05 28.4 -150.05 -206.89 117.45 224.02 -77.21 40.58 -178.3 -339.29 114.02 -59.93c14,18.83 30.21,41.15 48.5,66.76l57.78 79.57 -63.17 -168.98 114.82 -60.34zm181.59 -126.24l270.44 277.53 -82.59 59.56 -44.64 -52.64 -29.15 21.02 35.86 58.98 -83.65 60.32 -183.19 -340.45 116.92 -84.32zm101.37 230.99c-29.28,-32.46 -64.81,-73.16 -106.69,-122.11 35.1,65.5 61.51,112.76 79.24,141.9l27.45 -19.79zm44.34 -356.16l207.17 226.19 44.31 -40.58 51.71 56.46 -117.92 108 -258.88 -282.65 73.61 -67.42z"/>
   </g>
   <path class="fil10" d="M3318.47 10029.85l751.74 0c149.2,0 259.91,6.13 332.98,18.37 73.51,12.7 138.71,38.51 196.46,77.45 57.77,39.39 105.9,91.45 144.4,156.66 38.51,65.19 57.76,138.7 57.76,219.65 0,87.52 -23.63,168.47 -70.89,241.54 -47.25,73.51 -111.57,128.2 -192.52,164.96 114.2,33.69 201.72,90.58 263.41,171.09 61.26,80.51 91.89,175.03 91.89,283.98 0,85.76 -19.69,168.9 -59.51,249.85 -39.82,80.95 -94.07,145.71 -163.21,194.28 -68.7,48.13 -153.59,77.88 -254.66,89.26 -63.01,6.56 -215.72,10.94 -457.7,12.69l-640.15 0 0 -1879.78zm380.68 312.42l0 433.19 248.53 0c147.46,0 239.35,-2.19 275.23,-6.56 64.76,-7.44 115.96,-29.76 153.15,-66.95 37.19,-37.19 55.57,-85.76 55.57,-146.15 0,-58.19 -16.19,-105.01 -48.13,-141.33 -31.94,-36.32 -79.64,-58.2 -142.65,-65.64 -37.63,-4.37 -145.71,-6.56 -323.8,-6.56l-217.9 0zm0 745.61l0 504.08 351.8 0c136.52,0 223.6,-3.94 260.35,-11.38 56.45,-10.5 102.39,-35.44 137.84,-75.26 35.44,-40.26 53.38,-93.2 53.38,-160.15 0,-56.88 -13.56,-104.58 -41.14,-143.96 -27.13,-39.38 -66.94,-68.26 -118.58,-86.2 -51.63,-17.94 -164.08,-27.13 -336.92,-27.13l-306.73 0zm1515.29 821.75l0 -1879.78 608.65 0c230.59,0 380.68,9.19 450.69,28 107.65,28.45 197.78,89.71 270.42,184.22 72.63,94.51 108.95,216.59 108.95,366.24 0,115.52 -21,212.22 -62.57,290.98 -42.01,78.76 -94.95,140.46 -159.28,185.53 -64.32,44.63 -129.95,74.39 -196.46,88.83 -90.58,17.93 -221.41,27.12 -392.93,27.12l-246.79 0 0 708.86 -380.68 0zm380.68 -1562.11l0 535.58 206.97 0c149.21,0 248.54,-10.06 298.85,-29.75 50.32,-19.69 89.7,-50.32 118.15,-92.76 28.44,-42.01 42.88,-90.58 42.88,-146.59 0,-68.7 -20.13,-125.14 -59.95,-169.77 -40.25,-44.64 -90.57,-72.64 -152.27,-84.02 -45.07,-8.31 -135.65,-12.69 -272.16,-12.69l-182.47 0zm2045.18 -317.67l380.68 0 0 1191.05c0,155.78 -13.56,275.67 -41.13,359.68 -36.76,109.39 -103.26,197.34 -199.97,263.85 -96.26,66.07 -223.59,99.33 -381.99,99.33 -185.53,0 -328.17,-51.63 -427.94,-155.34 -100.21,-103.7 -150.53,-255.97 -151.4,-456.38l359.68 -42c4.38,107.2 19.69,182.9 46.82,227.1 40.7,67.38 102.39,101.07 185.53,101.07 83.57,0 143.08,-24.06 177.65,-72.64 34.57,-48.13 52.07,-148.33 52.07,-300.6l0 -1215.12zm785.43 1879.78l0 -1879.78 608.65 0c230.6,0 380.69,9.19 450.7,28 107.64,28.45 197.77,89.71 270.41,184.22 72.64,94.51 108.95,216.59 108.95,366.24 0,115.52 -21,212.22 -62.56,290.98 -42.01,78.76 -94.96,140.46 -159.28,185.53 -64.32,44.63 -129.96,74.39 -196.47,88.83 -90.57,17.93 -221.4,27.12 -392.93,27.12l-246.78 0 0 708.86 -380.69 0zm380.69 -1562.11l0 535.58 206.96 0c149.21,0 248.54,-10.06 298.86,-29.75 50.32,-19.69 89.7,-50.32 118.14,-92.76 28.44,-42.01 42.88,-90.58 42.88,-146.59 0,-68.7 -20.13,-125.14 -59.95,-169.77 -40.25,-44.64 -90.57,-72.64 -152.27,-84.02 -45.07,-8.31 -135.64,-12.69 -272.16,-12.69l-182.46 0zm1370.45 1562.11l0 -1879.78 380.68 0 0 740.36 740.36 0 0 -740.36 380.68 0 0 1879.78 -380.68 0 0 -821.75 -740.36 0 0 821.75 -380.68 0z"/>
   <path class="fil10" d="M3343.57 12369.24l187.86 0c37.29,0 64.95,1.53 83.22,4.59 18.37,3.17 34.66,9.62 49.1,19.35 14.43,9.85 26.45,22.86 36.08,39.15 9.62,16.29 14.43,34.66 14.43,54.9 0,21.87 -5.9,42.09 -17.71,60.36 -11.81,18.37 -27.88,32.04 -48.12,41.22 28.55,8.42 50.42,22.64 65.83,42.76 15.32,20.12 22.97,43.74 22.97,70.96 0,21.44 -4.92,42.22 -14.88,62.44 -9.94,20.24 -23.5,36.42 -40.78,48.55 -17.17,12.04 -38.38,19.47 -63.64,22.32 -15.75,1.63 -53.91,2.73 -114.38,3.16l-159.98 0 0 -469.76zm95.13 78.07l0 108.26 62.12 0c36.84,0 59.81,-0.55 68.77,-1.64 16.19,-1.86 28.98,-7.44 38.28,-16.73 9.29,-9.3 13.88,-21.43 13.88,-36.53 0,-14.54 -4.04,-26.24 -12.02,-35.31 -7.99,-9.08 -19.9,-14.55 -35.65,-16.41 -9.41,-1.09 -36.42,-1.64 -80.92,-1.64l-54.46 0zm0 186.34l0 125.97 87.92 0c34.11,0 55.88,-0.99 65.06,-2.85 14.11,-2.62 25.59,-8.85 34.45,-18.8 8.86,-10.07 13.34,-23.3 13.34,-40.03 0,-14.21 -3.39,-26.13 -10.28,-35.97 -6.78,-9.84 -16.73,-17.06 -29.63,-21.54 -12.91,-4.49 -41.01,-6.78 -84.2,-6.78l-76.66 0zm801.87 205.35l-102.46 0 -40.57 -106.94 -188.41 0 -39.04 106.94 -100.6 0 182.39 -469.76 100.5 0 188.19 469.76zm-173.87 -186.33l-65.28 -173.86 -63.42 173.86 128.7 0zm224.5 -283.43l172.99 0c39.04,0 68.78,2.95 89.23,8.97 27.45,8.08 51.07,22.52 70.64,43.3 19.68,20.66 34.56,46.03 44.84,76.1 10.17,29.97 15.3,67.04 15.3,110.99 0,38.72 -4.81,71.96 -14.43,99.95 -11.7,34.23 -28.43,61.89 -50.19,83 -16.4,16.07 -38.6,28.54 -66.48,37.5 -20.89,6.68 -48.77,9.95 -83.77,9.95l-178.13 0 0 -469.76zm95.13 79.38l0 311 70.53 0c26.36,0 45.39,-1.54 57.09,-4.49 15.41,-3.83 28.1,-10.38 38.16,-19.57 10.17,-9.19 18.37,-24.28 24.71,-45.27 6.46,-20.99 9.63,-49.75 9.63,-86.06 0,-36.3 -3.17,-64.08 -9.63,-83.54 -6.34,-19.47 -15.31,-34.56 -26.79,-45.5 -11.48,-10.82 -26.03,-18.25 -43.74,-22.08 -13.12,-2.95 -39.04,-4.49 -77.53,-4.49l-42.43 0zm801.87 390.38l-102.46 0 -40.57 -106.94 -188.41 0 -39.04 106.94 -100.6 0 182.4 -469.76 100.49 0 188.19 469.76zm-173.87 -186.33l-65.28 -173.86 -63.42 173.86 128.7 0zm224.51 186.33l0 -469.76 92.06 0 193.34 314.81 0 -314.81 87.92 0 0 469.76 -95.03 0 -190.38 -308.8 0 308.8 -87.91 0zm656.1 0l0 -469.76 152.1 0c57.63,0 95.14,2.29 112.63,7 26.9,7.1 49.43,22.41 67.58,46.03 18.15,23.62 27.23,54.13 27.23,91.53 0,28.87 -5.25,53.03 -15.64,72.72 -10.5,19.68 -23.73,35.1 -39.8,46.36 -16.08,11.16 -32.48,18.59 -49.1,22.2 -22.64,4.48 -55.34,6.78 -98.2,6.78l-61.67 0 0 177.14 -95.13 0zm95.13 -390.38l0 133.85 51.72 0c37.29,0 62.11,-2.52 74.68,-7.44 12.58,-4.92 22.42,-12.57 29.53,-23.18 7.11,-10.49 10.72,-22.64 10.72,-36.63 0,-17.17 -5.03,-31.28 -14.98,-42.43 -10.06,-11.15 -22.64,-18.15 -38.06,-20.99 -11.26,-2.08 -33.9,-3.18 -68.02,-3.18l-45.59 0zm342.49 390.38l0 -469.76 347.73 0 0 79.38 -252.6 0 0 104.33 234.88 0 0 79.39 -234.88 0 0 127.28 261.78 0 0 79.38 -356.91 0zm437.62 0l0 -469.76 92.06 0 193.34 314.81 0 -314.81 87.92 0 0 469.76 -95.03 0 -190.38 -308.8 0 308.8 -87.91 0zm597.16 0l0 -197.7 -172.23 -272.06 111.21 0 111.1 186 108.15 -186 109.13 0 -172.23 272.72 0 197.04 -95.13 0zm314.27 0l0 -469.76 347.73 0 0 79.38 -252.6 0 0 104.33 234.89 0 0 79.39 -234.89 0 0 127.28 261.79 0 0 79.38 -356.92 0zm440.24 0l0 -465.83 95.14 0 0 386.45 235.54 0 0 79.38 -330.68 0zm398.15 0l0 -469.76 347.73 0 0 79.38 -252.6 0 0 104.33 234.89 0 0 79.39 -234.89 0 0 127.28 261.79 0 0 79.38 -356.92 0zm437.62 0l0 -469.76 92.07 0 193.33 314.81 0 -314.81 87.92 0 0 469.76 -95.02 0 -190.38 -308.8 0 308.8 -87.92 0zm692.3 -172.55l0 -79.39 204.04 0 0 187.43c-19.79,19.35 -48.55,36.3 -86.27,51.07 -37.62,14.65 -75.79,21.97 -114.49,21.97 -49.1,0 -91.85,-10.27 -128.38,-30.94 -36.41,-20.67 -63.86,-50.31 -82.23,-88.69 -18.37,-38.38 -27.56,-80.26 -27.56,-125.42 0,-48.99 10.28,-92.51 30.73,-130.68 20.56,-38.04 50.52,-67.35 89.99,-87.69 30.18,-15.64 67.58,-23.4 112.42,-23.4 58.28,0 103.88,12.25 136.68,36.74 32.7,24.6 53.81,58.39 63.21,101.69l-94.48 17.72c-6.56,-23.07 -19.03,-41.33 -37.29,-54.79 -18.15,-13.33 -40.9,-20 -68.23,-20 -41.34,0 -74.25,13.12 -98.64,39.47 -24.38,26.35 -36.63,65.39 -36.63,117.11 0,55.88 12.36,97.76 37.07,125.65 24.82,27.88 57.19,41.88 97.32,41.88 19.8,0 39.7,-3.94 59.6,-11.7 20.01,-7.76 37.07,-17.28 51.39,-28.43l0 -59.6 -108.25 0zm510.33 0l0 -79.39 204.05 0 0 187.43c-19.8,19.35 -48.55,36.3 -86.28,51.07 -37.62,14.65 -75.78,21.97 -114.49,21.97 -49.1,0 -91.85,-10.27 -128.37,-30.94 -36.42,-20.67 -63.87,-50.31 -82.23,-88.69 -18.38,-38.38 -27.56,-80.26 -27.56,-125.42 0,-48.99 10.27,-92.51 30.72,-130.68 20.56,-38.04 50.52,-67.35 90,-87.69 30.18,-15.64 67.58,-23.4 112.41,-23.4 58.29,0 103.88,12.25 136.69,36.74 32.69,24.6 53.8,58.39 63.21,101.69l-94.48 17.72c-6.57,-23.07 -19.03,-41.33 -37.3,-54.79 -18.14,-13.33 -40.89,-20 -68.23,-20 -41.34,0 -74.25,13.12 -98.63,39.47 -24.39,26.35 -36.64,65.39 -36.64,117.11 0,55.88 12.36,97.76 37.07,125.65 24.83,27.88 57.2,41.88 97.33,41.88 19.79,0 39.69,-3.94 59.59,-11.7 20.02,-7.76 37.07,-17.28 51.4,-28.43l0 -59.6 -108.26 0zm715.04 172.55l-102.46 0 -40.57 -106.94 -188.41 0 -39.04 106.94 -100.6 0 182.39 -469.76 100.5 0 188.19 469.76zm-173.87 -186.33l-65.28 -173.86 -63.42 173.86 128.7 0zm224.5 186.33l0 -469.76 199.78 0c50.19,0 86.72,4.26 109.46,12.68 22.85,8.42 41.01,23.4 54.68,44.95 13.67,21.64 20.56,46.25 20.56,74.03 0,35.31 -10.28,64.4 -30.95,87.36 -20.67,22.97 -51.51,37.4 -92.62,43.42 20.45,11.91 37.29,25.04 50.52,39.36 13.34,14.33 31.27,39.8 53.8,76.33l57.3 91.63 -113.4 0 -68.01 -102.56c-24.39,-36.42 -41.12,-59.38 -50.2,-68.9 -8.96,-9.4 -18.48,-15.96 -28.53,-19.46 -10.17,-3.5 -26.14,-5.25 -48.01,-5.25l-19.25 0 0 196.17 -95.13 0zm95.13 -270.96l70.21 0c45.48,0 73.81,-1.97 85.18,-5.8 11.27,-3.83 20.23,-10.5 26.57,-19.9 6.45,-9.41 9.63,-21.22 9.63,-35.32 0,-15.86 -4.27,-28.54 -12.69,-38.38 -8.42,-9.74 -20.34,-15.86 -35.65,-18.37 -7.76,-1.1 -30.83,-1.65 -69.22,-1.65l-74.03 0 0 119.42zm801.87 270.96l-102.46 0 -40.57 -106.94 -188.41 0 -39.04 106.94 -100.6 0 182.4 -469.76 100.49 0 188.19 469.76zm-173.87 -186.33l-65.28 -173.86 -63.42 173.86 128.7 0zm-8136.87 449.54l95.14 0 0 297.65c0,38.93 -3.39,68.89 -10.28,89.89 -9.18,27.34 -25.81,49.32 -49.98,65.93 -24.05,16.52 -55.87,24.82 -95.45,24.82 -46.37,0 -82.02,-12.9 -106.95,-38.81 -25.04,-25.92 -37.61,-63.97 -37.84,-114.05l89.89 -10.5c1.09,26.79 4.92,45.71 11.7,56.75 10.17,16.84 25.59,25.26 46.37,25.26 20.88,0 35.76,-6.01 44.39,-18.15 8.64,-12.03 13.01,-37.07 13.01,-75.13l0 -303.66zm619.47 469.77l-102.46 0 -40.57 -106.94 -188.41 0 -39.04 106.94 -100.6 0 182.4 -469.77 100.49 0 188.19 469.77zm-173.87 -186.33l-65.28 -173.87 -63.42 173.87 128.7 0zm223.19 186.33l0 -469.77 142.49 0 84.2 320.4 83.21 -320.4 142.81 0 0 469.77 -87.92 0 -0.33 -369.82 -92.61 369.82 -91.42 0 -92.18 -369.82 -0.33 369.82 -87.92 0zm544.56 0l0 -469.77 95.14 0 0 469.77 -95.14 0zm185.57 0l0 -469.77 92.07 0 193.33 314.82 0 -314.82 87.92 0 0 469.77 -95.03 0 -190.37 -308.81 0 308.81 -87.92 0zm897 0l-102.46 0 -40.57 -106.94 -188.41 0 -39.04 106.94 -100.6 0 182.39 -469.77 100.5 0 188.19 469.77zm-173.87 -186.33l-65.28 -173.87 -63.42 173.87 128.7 0zm224.5 186.33l0 -469.77 92.07 0 193.33 314.82 0 -314.82 87.92 0 0 469.77 -95.02 0 -190.38 -308.81 0 308.81 -87.92 0zm711.22 0l0 -469.77 152.1 0c57.63,0 95.14,2.29 112.63,7 26.9,7.11 49.43,22.42 67.58,46.03 18.15,23.63 27.23,54.13 27.23,91.53 0,28.87 -5.25,53.03 -15.64,72.72 -10.49,19.68 -23.73,35.1 -39.8,46.36 -16.08,11.16 -32.48,18.59 -49.1,22.2 -22.64,4.49 -55.33,6.78 -98.2,6.78l-61.67 0 0 177.15 -95.13 0zm95.13 -390.38l0 133.84 51.72 0c37.29,0 62.11,-2.51 74.69,-7.44 12.58,-4.92 22.41,-12.57 29.52,-23.18 7.11,-10.49 10.72,-22.63 10.72,-36.63 0,-17.16 -5.03,-31.27 -14.98,-42.43 -10.06,-11.15 -22.64,-18.15 -38.05,-20.99 -11.27,-2.08 -33.91,-3.17 -68.02,-3.17l-45.6 0zm342.49 390.38l0 -469.77 199.78 0c50.19,0 86.71,4.26 109.46,12.68 22.85,8.43 41,23.41 54.67,44.95 13.67,21.65 20.56,46.25 20.56,74.03 0,35.32 -10.28,64.4 -30.95,87.37 -20.66,22.96 -51.5,37.39 -92.61,43.41 20.45,11.92 37.28,25.04 50.52,39.37 13.33,14.32 31.27,39.8 53.79,76.32l57.3 91.64 -113.4 0 -68.01 -102.57c-24.39,-36.41 -41.11,-59.38 -50.19,-68.89 -8.97,-9.4 -18.48,-15.97 -28.54,-19.47 -10.17,-3.5 -26.13,-5.25 -48,-5.25l-19.25 0 0 196.18 -95.13 0zm95.13 -270.97l70.2 0c45.49,0 73.81,-1.97 85.19,-5.79 11.26,-3.84 20.22,-10.51 26.57,-19.91 6.45,-9.4 9.62,-21.21 9.62,-35.32 0,-15.85 -4.27,-28.54 -12.68,-38.38 -8.42,-9.73 -20.35,-15.85 -35.65,-18.37 -7.76,-1.09 -30.84,-1.64 -69.22,-1.64l-74.03 0 0 119.41zm359 38.93c0,-47.9 7.21,-88.14 21.54,-120.72 10.61,-23.95 25.26,-45.5 43.74,-64.52 18.48,-19.03 38.71,-33.14 60.69,-42.43 29.31,-12.36 63.1,-18.59 101.37,-18.59 69.33,0 124.66,21.54 166.32,64.52 41.55,43.08 62.33,102.9 62.33,179.55 0,76 -20.67,135.49 -61.9,178.35 -41.22,42.98 -96.44,64.4 -165.44,64.4 -69.87,0 -125.54,-21.32 -166.76,-64.07 -41.22,-42.65 -61.89,-101.48 -61.89,-176.49zm97.76 -3.18c0,53.26 12.36,93.61 36.96,121.16 24.6,27.45 55.87,41.23 93.71,41.23 37.95,0 69,-13.67 93.39,-40.89 24.27,-27.34 36.41,-68.24 36.41,-122.81 0,-53.9 -11.81,-94.15 -35.54,-120.61 -23.62,-26.57 -55,-39.8 -94.26,-39.8 -39.15,0 -70.75,13.45 -94.7,40.24 -23.95,26.9 -35.97,67.36 -35.97,121.48zm432.26 -234.55l172.99 0c39.04,0 68.78,2.95 89.23,8.97 27.44,8.09 51.06,22.52 70.64,43.3 19.68,20.66 34.55,46.03 44.83,76.1 10.17,29.97 15.31,67.04 15.31,111 0,38.71 -4.81,71.95 -14.43,99.94 -11.7,34.23 -28.44,61.9 -50.2,83 -16.4,16.07 -38.6,28.54 -66.48,37.5 -20.89,6.68 -48.77,9.96 -83.76,9.96l-178.13 0 0 -469.77zm95.13 79.39l0 310.99 70.53 0c26.35,0 45.38,-1.53 57.08,-4.49 15.42,-3.82 28.1,-10.38 38.17,-19.56 10.17,-9.19 18.37,-24.29 24.71,-45.28 6.45,-20.99 9.62,-49.75 9.62,-86.06 0,-36.3 -3.17,-64.08 -9.62,-83.54 -6.34,-19.46 -15.31,-34.55 -26.79,-45.49 -11.49,-10.82 -26.03,-18.26 -43.74,-22.09 -13.12,-2.95 -39.04,-4.48 -77.53,-4.48l-42.43 0zm378.68 -79.39l95.14 0 0 254.57c0,40.46 1.2,66.59 3.5,78.51 4.04,19.24 13.55,34.77 28.64,46.37 15.21,11.7 35.87,17.49 62.11,17.49 26.58,0 46.7,-5.47 60.26,-16.51 13.56,-11.05 21.65,-24.49 24.39,-40.57 2.73,-16.07 4.15,-42.64 4.15,-79.82l0 -260.04 95.14 0 0 247.02c0,56.43 -2.52,96.34 -7.66,119.63 -5.14,23.29 -14.55,42.98 -28.32,59.05 -13.67,16.08 -32.04,28.76 -55,38.27 -23.08,9.51 -53.04,14.32 -90.11,14.32 -44.72,0 -78.62,-5.13 -101.69,-15.52 -23.08,-10.39 -41.34,-23.84 -54.79,-40.46 -13.45,-16.62 -22.2,-33.9 -26.47,-52.16 -6.23,-26.9 -9.29,-66.7 -9.29,-119.3l0 -250.85zm475.13 469.77l0 -469.77 95.13 0 0 208.1 191.7 -208.1 127.5 0 -177.26 182.94 186.44 286.83 -122.69 0 -129.25 -220.56 -76.44 78.51 0 142.05 -95.13 0zm709.91 0l0 -469.77 95.13 0 0 185.02 185.02 0 0 -185.02 95.13 0 0 469.77 -95.13 0 0 -205.36 -185.02 0 0 205.36 -95.13 0zm896.99 0l-102.45 0 -40.58 -106.94 -188.41 0 -39.04 106.94 -100.6 0 182.4 -469.77 100.49 0 188.19 469.77zm-173.86 -186.33l-65.29 -173.87 -63.42 173.87 128.71 0zm227.12 186.33l0 -465.83 95.14 0 0 386.44 235.54 0 0 79.39 -330.68 0zm821.33 0l-102.46 0 -40.57 -106.94 -188.41 0 -39.04 106.94 -100.6 0 182.4 -469.77 100.49 0 188.19 469.77zm-173.87 -186.33l-65.28 -173.87 -63.42 173.87 128.7 0zm227.13 186.33l0 -465.83 95.13 0 0 386.44 235.54 0 0 79.39 -330.67 0zm-8130.53 732.97l0 -469.77 95.13 0 0 208.1 191.7 -208.1 127.5 0 -177.26 182.94 186.44 286.83 -122.69 0 -129.25 -220.56 -76.44 78.52 0 142.04 -95.13 0zm472.51 0l0 -469.77 347.73 0 0 79.39 -252.6 0 0 104.32 234.88 0 0 79.39 -234.88 0 0 127.28 261.78 0 0 79.39 -356.91 0zm436.3 0l0 -469.77 142.49 0 84.2 320.4 83.21 -320.4 142.81 0 0 469.77 -87.92 0 -0.33 -369.82 -92.61 369.82 -91.42 0 -92.18 -369.82 -0.33 369.82 -87.92 0zm547.85 0l0 -469.77 347.73 0 0 79.39 -252.6 0 0 104.32 234.89 0 0 79.39 -234.89 0 0 127.28 261.78 0 0 79.39 -356.91 0zm437.62 0l0 -469.77 92.06 0 193.34 314.82 0 -314.82 87.92 0 0 469.77 -95.03 0 -190.38 -308.81 0 308.81 -87.91 0zm579.45 0l0 -390.38 -139.1 0 0 -79.39 372.67 0 0 79.39 -138.44 0 0 390.38 -95.13 0zm295.13 0l0 -469.77 347.73 0 0 79.39 -252.6 0 0 104.32 234.89 0 0 79.39 -234.89 0 0 127.28 261.79 0 0 79.39 -356.92 0zm437.62 0l0 -469.77 199.78 0c50.19,0 86.72,4.27 109.46,12.69 22.85,8.42 41.01,23.4 54.68,44.94 13.67,21.65 20.56,46.26 20.56,74.03 0,35.32 -10.28,64.41 -30.95,87.37 -20.67,22.97 -51.51,37.4 -92.62,43.41 20.45,11.92 37.29,25.05 50.52,39.37 13.34,14.33 31.27,39.8 53.8,76.32l57.3 91.64 -113.4 0 -68.01 -102.57c-24.39,-36.41 -41.12,-59.37 -50.2,-68.89 -8.96,-9.4 -18.48,-15.97 -28.53,-19.47 -10.17,-3.5 -26.14,-5.24 -48.01,-5.24l-19.25 0 0 196.17 -95.13 0zm95.13 -270.97l70.21 0c45.48,0 73.81,-1.97 85.18,-5.79 11.27,-3.83 20.23,-10.5 26.57,-19.9 6.45,-9.41 9.63,-21.22 9.63,-35.33 0,-15.85 -4.27,-28.53 -12.69,-38.38 -8.42,-9.73 -20.34,-15.85 -35.65,-18.37 -7.76,-1.09 -30.83,-1.64 -69.22,-1.64l-74.03 0 0 119.41zm375.4 270.97l0 -469.77 95.14 0 0 469.77 -95.14 0zm608.75 0l-102.45 0 -40.57 -106.94 -188.42 0 -39.03 106.94 -100.6 0 182.39 -469.77 100.5 0 188.18 469.77zm-173.86 -186.33l-65.29 -173.87 -63.41 173.87 128.7 0zm224.5 186.33l0 -469.77 92.07 0 193.33 314.82 0 -314.82 87.92 0 0 469.77 -95.03 0 -190.38 -308.81 0 308.81 -87.91 0zm1189.02 0l-102.46 0 -40.57 -106.94 -188.41 0 -39.04 106.94 -100.6 0 182.4 -469.77 100.49 0 188.19 469.77zm-173.87 -186.33l-65.28 -173.87 -63.42 173.87 128.7 0zm442.99 13.78l0 -79.39 204.04 0 0 187.43c-19.79,19.35 -48.55,36.3 -86.27,51.06 -37.62,14.66 -75.79,21.98 -114.5,21.98 -49.09,0 -91.85,-10.28 -128.37,-30.95 -36.41,-20.66 -63.86,-50.3 -82.23,-88.68 -18.38,-38.38 -27.56,-80.26 -27.56,-125.42 0,-48.99 10.28,-92.51 30.73,-130.68 20.56,-38.05 50.52,-67.35 89.99,-87.69 30.18,-15.64 67.58,-23.4 112.41,-23.4 58.29,0 103.89,12.24 136.69,36.73 32.7,24.61 53.8,58.4 63.21,101.7l-94.48 17.72c-6.56,-23.08 -19.03,-41.34 -37.29,-54.79 -18.15,-13.34 -40.9,-20.01 -68.23,-20.01 -41.34,0 -74.25,13.13 -98.64,39.47 -24.39,26.36 -36.63,65.4 -36.63,117.12 0,55.88 12.36,97.76 37.07,125.65 24.82,27.88 57.19,41.88 97.32,41.88 19.79,0 39.7,-3.94 59.6,-11.7 20.01,-7.77 37.07,-17.28 51.39,-28.44l0 -59.59 -108.25 0zm715.03 172.55l-102.46 0 -40.57 -106.94 -188.41 0 -39.04 106.94 -100.6 0 182.4 -469.77 100.49 0 188.19 469.77zm-173.87 -186.33l-65.28 -173.87 -63.42 173.87 128.7 0zm223.19 186.33l0 -469.77 142.49 0 84.2 320.4 83.21 -320.4 142.81 0 0 469.77 -87.92 0 -0.33 -369.82 -92.61 369.82 -91.42 0 -92.18 -369.82 -0.33 369.82 -87.92 0zm971.03 0l-102.46 0 -40.57 -106.94 -188.41 0 -39.04 106.94 -100.6 0 182.39 -469.77 100.5 0 188.19 469.77zm-173.87 -186.33l-65.28 -173.87 -63.42 173.87 128.7 0zm516.52 186.33l0 -469.77 199.78 0c50.19,0 86.71,4.27 109.46,12.69 22.85,8.42 41.01,23.4 54.67,44.94 13.67,21.65 20.56,46.26 20.56,74.03 0,35.32 -10.28,64.41 -30.95,87.37 -20.66,22.97 -51.5,37.4 -92.61,43.41 20.45,11.92 37.29,25.05 50.52,39.37 13.33,14.33 31.27,39.8 53.8,76.32l57.29 91.64 -113.39 0 -68.02 -102.57c-24.38,-36.41 -41.11,-59.37 -50.19,-68.89 -8.96,-9.4 -18.48,-15.97 -28.54,-19.47 -10.17,-3.5 -26.13,-5.24 -48,-5.24l-19.25 0 0 196.17 -95.13 0zm95.13 -270.97l70.2 0c45.49,0 73.81,-1.97 85.19,-5.79 11.26,-3.83 20.23,-10.5 26.57,-19.9 6.45,-9.41 9.63,-21.22 9.63,-35.33 0,-15.85 -4.27,-28.53 -12.69,-38.38 -8.42,-9.73 -20.34,-15.85 -35.65,-18.37 -7.76,-1.09 -30.84,-1.64 -69.22,-1.64l-74.03 0 0 119.41zm375.4 270.97l0 -469.77 95.14 0 0 469.77 -95.14 0z"/>
  </g>
 </g>
</svg>
