<svg width="800" height="800" viewBox="0 0 800 800" fill="none" xmlns="http://www.w3.org/2000/svg">
<path d="M516.667 300L522.387 305.719C566.83 350.163 589.053 372.387 589.053 400C589.053 427.613 566.83 449.837 522.387 494.28L516.667 500" stroke="#3730A3" stroke-width="50" stroke-linecap="round"/>
<path d="M443.14 239.014L400.003 400L356.867 560.99" stroke="#3730A3" stroke-width="50" stroke-linecap="round"/>
<path d="M283.331 300L277.612 305.719C233.168 350.163 210.946 372.387 210.946 400C210.946 427.613 233.168 449.837 277.612 494.28L283.331 500" stroke="#3730A3" stroke-width="50" stroke-linecap="round"/>
<path d="M733.333 400C733.333 557.133 733.333 635.703 684.517 684.517C635.703 733.333 557.133 733.333 400 733.333C242.865 733.333 164.298 733.333 115.482 684.517C66.6667 635.703 66.6667 557.133 66.6667 400C66.6667 242.865 66.6667 164.298 115.482 115.482C164.298 66.6667 242.865 66.6667 400 66.6667C557.133 66.6667 635.703 66.6667 684.517 115.482C716.977 147.94 727.853 193.552 731.497 266.667" stroke="#3730A3" stroke-width="50" stroke-linecap="round"/>
</svg>
