<?xml version="1.0" standalone="no"?>
<!DOCTYPE svg PUBLIC "-//W3C//DTD SVG 20010904//EN"
 "http://www.w3.org/TR/2001/REC-SVG-20010904/DTD/svg10.dtd">
<svg version="1.0" xmlns="http://www.w3.org/2000/svg"
 viewBox="0 0 2600.000000 2600.000000"
 preserveAspectRatio="xMidYMid meet">
<metadata>
Created by potrace 1.15, written by Peter Selinger 2001-2017
</metadata>
<g transform="translate(0.000000,2600.000000) scale(0.100000,-0.100000)"
fill="#000000" stroke="none">
<path d="M6236 20909 c-231 -34 -461 -153 -623 -322 -188 -196 -281 -409 -304
-692 -6 -87 -9 -1496 -6 -4225 3 -3732 4 -4101 19 -4166 53 -230 139 -394 287
-547 169 -175 347 -272 584 -318 95 -18 180 -19 2657 -19 1408 0 2560 -4 2560
-8 0 -4 -111 -16 -247 -26 -1144 -81 -2063 -227 -2608 -413 -313 -107 -497
-222 -606 -376 -174 -248 -113 -558 148 -756 495 -377 2078 -631 4368 -701
411 -13 1468 -13 1880 0 1872 57 3326 246 4025 522 315 125 492 279 557 485
73 235 -30 477 -273 638 -429 285 -1522 498 -3124 610 -118 8 -222 16 -230 17
-8 2 1178 5 2635 8 l2650 5 75 22 c214 60 356 140 497 276 172 166 272 349
320 584 17 84 18 287 18 4263 0 3976 -1 4179 -18 4263 -44 217 -133 389 -281
545 -149 157 -316 255 -538 314 l-83 23 -7140 1 c-3976 1 -7166 -2 -7199 -7z
m14284 -762 c76 -29 140 -85 179 -157 l36 -65 0 -4155 0 -4155 -34 -63 c-40
-74 -84 -115 -161 -151 l-55 -26 -7085 0 -7085 0 -49 23 c-75 34 -129 84 -167
154 l-34 63 0 4150 0 4150 26 56 c47 101 139 170 246 189 27 4 3218 7 7093 6
6700 -1 7047 -2 7090 -19z m-9083 -10314 c39 -117 100 -188 201 -236 l67 -32
1650 0 1650 0 67 32 c36 17 85 51 109 75 42 43 89 127 89 161 0 22 24 22 360
-3 924 -70 1655 -172 2142 -301 141 -38 146 -32 -85 -89 -686 -168 -1802 -288
-3197 -342 -409 -16 -1763 -15 -2175 0 -1158 45 -2074 128 -2770 253 -244 43
-606 127 -622 143 -12 11 273 80 541 131 468 88 1208 173 1949 224 10 0 20 -7
24 -16z"/>
<path d="M6840 19654 c-112 -30 -205 -116 -252 -231 l-23 -58 0 -3545 0 -3545
24 -58 c37 -94 94 -156 185 -202 l79 -40 6547 0 6547 0 79 40 c91 46 148 108
185 202 l24 58 0 3545 0 3545 -23 58 c-48 117 -141 201 -257 232 -53 13 -719
15 -6560 14 -5684 0 -6507 -2 -6555 -15z m12640 -3829 l0 -3095 -6080 0 -6080
0 0 3095 0 3095 6080 0 6080 0 0 -3095z"/>
<path d="M6063 7670 c-62 -22 -94 -43 -149 -102 -52 -54 -2538 -3673 -2567
-3736 -18 -38 -22 -66 -22 -147 0 -88 3 -107 27 -158 37 -78 120 -158 195
-189 l58 -23 9800 0 9800 0 57 27 c74 34 152 112 186 186 24 50 27 69 27 157
0 81 -4 109 -21 146 -12 25 -558 872 -1213 1882 -1301 2003 -1239 1914 -1363
1956 l-62 21 -7350 0 c-7173 -1 -7352 -1 -7403 -20z m15415 -2167 l933 -1438
-4500 -3 c-2476 -1 -6526 -1 -9000 0 l-4500 3 987 1437 987 1437 7080 1 7080
0 933 -1437z"/>
<path d="M6725 6488 c-66 -111 -126 -212 -133 -225 l-13 -23 456 2 456 3 114
223 115 222 -438 0 -438 0 -119 -202z"/>
<path d="M7975 6474 c-58 -119 -105 -220 -105 -225 0 -5 194 -8 451 -7 l451 3
84 203 c45 112 86 212 89 222 6 20 -1 20 -430 20 l-436 0 -104 -216z"/>
<path d="M9233 6472 c-46 -120 -83 -221 -83 -225 0 -4 204 -6 452 -5 l453 3
67 220 c37 121 68 221 68 223 0 1 -197 2 -437 2 l-438 0 -82 -218z"/>
<path d="M10536 6638 c-24 -82 -106 -389 -106 -394 0 -2 204 -4 454 -4 l454 0
41 213 c23 116 41 218 41 225 0 9 -94 12 -435 12 l-434 0 -15 -52z"/>
<path d="M11751 6483 c-18 -115 -35 -216 -38 -225 -4 -17 22 -18 451 -18 251
0 456 3 456 8 0 4 9 102 20 217 11 116 20 213 20 218 0 4 -197 7 -438 7 l-438
0 -33 -207z"/>
<path d="M13019 6673 c0 -10 -6 -108 -13 -218 -7 -110 -11 -203 -9 -207 2 -5
206 -8 454 -8 l449 0 0 225 0 225 -440 0 c-412 0 -440 -1 -441 -17z"/>
<path d="M14267 6473 c6 -120 12 -221 12 -225 1 -5 204 -8 451 -8 l450 0 0 28
c0 15 -11 115 -25 222 -14 107 -25 196 -25 198 0 1 -197 2 -437 2 l-438 0 12
-217z"/>
<path d="M15494 6663 c5 -26 66 -412 66 -420 0 -1 205 -3 456 -3 361 0 455 3
452 13 -3 6 -27 108 -54 225 l-49 212 -438 0 -439 0 6 -27z"/>
<path d="M16730 6683 c0 -5 25 -106 57 -225 l56 -218 454 0 c428 0 454 1 449
18 -3 9 -37 109 -74 222 l-69 205 -436 3 c-241 1 -437 -1 -437 -5z"/>
<path d="M17990 6608 c17 -46 54 -146 83 -223 l53 -140 452 -3 c249 -1 452 1
452 5 0 4 -44 105 -97 225 l-97 218 -438 0 -438 0 30 -82z"/>
<path d="M19200 6685 c0 -2 47 -103 104 -222 l104 -218 451 -3 c248 -1 451 2
451 6 0 5 -53 105 -118 223 l-119 214 -436 3 c-241 1 -437 0 -437 -3z"/>
<path d="M6360 5873 c-58 -97 -117 -199 -133 -225 l-27 -48 478 0 478 0 112
216 c62 118 112 220 112 225 0 5 -185 9 -458 9 l-457 0 -105 -177z"/>
<path d="M7734 5978 c-20 -40 -70 -142 -110 -225 l-73 -153 478 0 478 0 88
213 c48 116 90 218 92 225 4 9 -91 12 -456 12 l-461 0 -36 -72z"/>
<path d="M8989 5828 l-85 -223 475 -3 c261 -1 476 0 479 3 7 6 132 417 132
433 0 9 -98 12 -459 12 l-458 0 -84 -222z"/>
<path d="M10376 6042 c-6 -10 -116 -417 -116 -431 0 -8 131 -11 475 -11 l475
0 5 23 c6 25 85 419 85 424 0 7 -919 2 -924 -5z"/>
<path d="M11676 6023 c-9 -41 -66 -399 -66 -412 0 -8 138 -11 475 -11 l475 0
4 23 c5 23 36 378 36 410 0 16 -29 17 -459 17 l-459 0 -6 -27z"/>
<path d="M12977 5943 c-4 -60 -10 -161 -13 -225 l-7 -118 479 0 479 0 -3 212
c-2 117 -5 219 -7 226 -3 9 -105 12 -463 12 l-459 0 -6 -107z"/>
<path d="M14294 5903 c3 -82 9 -183 12 -225 l7 -78 478 0 479 0 -5 28 c-3 15
-14 101 -25 192 -11 91 -22 180 -25 198 l-6 32 -461 0 -461 0 7 -147z"/>
<path d="M15594 6023 c7 -33 66 -404 66 -415 0 -5 216 -8 480 -8 l480 0 -7 28
c-4 15 -27 115 -53 222 l-45 195 -463 3 -464 2 6 -27z"/>
<path d="M16900 6039 c0 -6 26 -107 57 -225 l57 -214 479 0 c379 0 478 3 474
13 -2 6 -37 108 -77 225 l-73 212 -458 0 c-327 0 -459 -3 -459 -11z"/>
<path d="M18203 6038 c2 -7 40 -109 83 -225 l78 -213 478 0 c263 0 478 1 478
3 0 2 -44 102 -98 223 l-98 219 -463 3 c-369 2 -462 0 -458 -10z"/>
<path d="M19510 6043 c0 -5 46 -106 102 -225 l103 -217 478 -1 c287 0 477 4
475 9 -1 5 -57 106 -123 225 l-120 216 -457 0 c-252 0 -458 -3 -458 -7z"/>
<path d="M6072 5383 c-27 -39 -252 -420 -252 -427 0 -4 226 -5 501 -4 l502 3
113 219 c63 121 114 223 114 228 0 4 -216 8 -479 8 l-480 0 -19 -27z"/>
<path d="M7349 5186 c-60 -124 -109 -227 -109 -230 0 -4 226 -5 502 -4 l501 3
89 215 c48 118 88 220 88 227 0 10 -97 13 -481 13 l-480 0 -110 -224z"/>
<path d="M8825 5393 c-17 -43 -165 -436 -165 -439 0 -2 226 -3 502 -2 l503 3
67 220 c37 121 67 223 68 228 0 4 -218 7 -484 7 -451 0 -484 -1 -491 -17z"/>
<path d="M10200 5405 c0 -3 -27 -104 -60 -226 -33 -121 -60 -223 -60 -225 0
-2 226 -3 503 -2 l502 3 42 210 c23 116 42 218 42 228 1 16 -29 17 -484 17
-267 0 -485 -2 -485 -5z"/>
<path d="M11575 5398 c-10 -28 -73 -433 -69 -440 3 -4 228 -8 500 -8 387 0
496 3 499 13 7 20 41 438 36 442 -2 3 -220 5 -483 5 -374 0 -480 -3 -483 -12z"/>
<path d="M12946 5388 c-8 -38 -25 -421 -20 -430 3 -4 228 -8 500 -8 387 0 496
3 499 13 3 6 2 109 -2 227 l-8 215 -482 3 -483 2 -4 -22z"/>
<path d="M14326 5268 c3 -79 9 -181 13 -228 l6 -85 494 -3 c272 -1 498 1 502
5 5 6 -35 356 -51 451 0 1 -219 2 -486 2 l-485 0 7 -142z"/>
<path d="M15697 5403 c-4 -8 59 -416 68 -440 3 -10 112 -13 499 -13 272 0 497
3 499 8 2 4 -19 106 -47 227 l-52 220 -481 3 c-265 1 -484 -1 -486 -5z"/>
<path d="M17071 5393 c0 -10 26 -112 57 -228 l57 -210 503 -3 c276 -1 502 0
502 2 0 7 -131 388 -146 424 l-13 32 -480 0 c-452 0 -481 -1 -480 -17z"/>
<path d="M18440 5403 c0 -5 37 -107 83 -228 l82 -220 504 -3 c410 -2 502 0
498 11 -3 7 -49 111 -102 230 l-97 217 -484 0 c-266 0 -484 -3 -484 -7z"/>
<path d="M19824 5387 c3 -13 50 -116 105 -230 l100 -207 502 0 c397 0 500 3
496 13 -3 6 -59 109 -125 227 l-120 215 -482 3 -482 2 6 -23z"/>
<path d="M5570 4541 c-71 -121 -130 -222 -130 -226 0 -3 237 -4 526 -3 l526 3
115 223 115 222 -511 0 -510 0 -131 -219z"/>
<path d="M7131 4738 c-5 -13 -52 -111 -105 -218 -53 -107 -96 -198 -96 -202 0
-5 236 -8 524 -8 l524 0 30 73 c57 137 152 370 152 373 0 2 -230 4 -510 4
l-510 0 -9 -22z"/>
<path d="M8502 4542 c-45 -120 -82 -221 -82 -225 0 -4 236 -7 525 -7 l524 0
31 103 c18 56 47 152 66 213 19 61 34 116 34 122 0 9 -125 12 -508 12 l-507 0
-83 -218z"/>
<path d="M9967 4542 c-32 -119 -57 -220 -57 -224 0 -5 236 -8 524 -8 l524 0 5
23 c3 12 22 105 41 207 20 102 38 193 40 203 4 16 -25 17 -507 17 l-512 0 -58
-218z"/>
<path d="M11465 4738 c-8 -37 -65 -395 -65 -412 0 -15 178 -16 2016 -16 l2016
0 -6 33 c-3 17 -15 109 -26 202 -11 94 -23 180 -26 193 l-4 22 -1950 0 -1950
0 -5 -22z"/>
<path d="M15829 4535 l35 -225 529 0 c419 0 528 3 524 13 -2 6 -26 108 -53
225 l-48 212 -511 0 -511 0 35 -225z"/>
<path d="M17240 4753 c0 -4 26 -105 57 -225 l58 -218 527 0 526 0 -75 225 -75
225 -509 0 c-280 0 -509 -3 -509 -7z"/>
<path d="M18682 4748 c3 -7 40 -109 84 -225 l79 -213 527 0 527 0 -14 33 c-7
17 -52 118 -99 222 l-85 190 -512 3 c-407 2 -510 0 -507 -10z"/>
<path d="M20177 4643 c30 -65 78 -166 106 -225 l51 -108 528 0 529 0 -35 63
c-19 34 -75 134 -124 222 l-89 160 -511 3 -511 2 56 -117z"/>
</g>
</svg>
