<svg width="504" height="539" viewBox="0 0 504 539" fill="none" xmlns="http://www.w3.org/2000/svg">
<g opacity="0.1" clip-path="url(#clip0_1_2)">
<rect width="504" height="539" fill="#28293E"/>
<path d="M13.99 9.25L26.99 16.75V31.75L13.99 39.25L1 31.75V16.75L13.99 9.25ZM3 17.9V30.6L13.99 36.94L24.99 30.59V17.9L13.99 11.56L3 17.9ZM0 15L12.98 7.5V0H10.98V6.35L0 12.69V14.99V15ZM0 33.5L12.98 41V49H10.98V42.15L0 35.81V33.51V33.5ZM15 0V7.5L27.99 15H28V12.69H27.99L17 6.35V0H15ZM15 49V41L27.99 33.5H28V35.81H27.99L17 42.15V49H15Z" fill="#8C4343"/>
<path d="M41.99 9.25L54.99 16.75V31.75L41.99 39.25L29 31.75V16.75L41.99 9.25ZM31 17.9V30.6L41.99 36.94L52.99 30.59V17.9L41.99 11.56L31 17.9ZM28 15L40.98 7.5V0H38.98V6.35L28 12.69V14.99V15ZM28 33.5L40.98 41V49H38.98V42.15L28 35.81V33.51V33.5ZM43 0V7.5L55.99 15H56V12.69H55.99L45 6.35V0H43ZM43 49V41L55.99 33.5H56V35.81H55.99L45 42.15V49H43Z" fill="#8C4343"/>
<path d="M69.99 9.25L82.99 16.75V31.75L69.99 39.25L57 31.75V16.75L69.99 9.25ZM59 17.9V30.6L69.99 36.94L80.99 30.59V17.9L69.99 11.56L59 17.9ZM56 15L68.98 7.5V0H66.98V6.35L56 12.69V14.99V15ZM56 33.5L68.98 41V49H66.98V42.15L56 35.81V33.51V33.5ZM71 0V7.5L83.99 15H84V12.69H83.99L73 6.35V0H71ZM71 49V41L83.99 33.5H84V35.81H83.99L73 42.15V49H71Z" fill="#8C4343"/>
<path d="M97.99 9.25L110.99 16.75V31.75L97.99 39.25L85 31.75V16.75L97.99 9.25ZM87 17.9V30.6L97.99 36.94L108.99 30.59V17.9L97.99 11.56L87 17.9ZM84 15L96.98 7.5V0H94.98V6.35L84 12.69V14.99V15ZM84 33.5L96.98 41V49H94.98V42.15L84 35.81V33.51V33.5ZM99 0V7.5L111.99 15H112V12.69H111.99L101 6.35V0H99ZM99 49V41L111.99 33.5H112V35.81H111.99L101 42.15V49H99Z" fill="#8C4343"/>
<path d="M125.99 9.25L138.99 16.75V31.75L125.99 39.25L113 31.75V16.75L125.99 9.25ZM115 17.9V30.6L125.99 36.94L136.99 30.59V17.9L125.99 11.56L115 17.9ZM112 15L124.98 7.5V0H122.98V6.35L112 12.69V14.99V15ZM112 33.5L124.98 41V49H122.98V42.15L112 35.81V33.51V33.5ZM127 0V7.5L139.99 15H140V12.69H139.99L129 6.35V0H127ZM127 49V41L139.99 33.5H140V35.81H139.99L129 42.15V49H127Z" fill="#8C4343"/>
<path d="M153.99 9.25L166.99 16.75V31.75L153.99 39.25L141 31.75V16.75L153.99 9.25ZM143 17.9V30.6L153.99 36.94L164.99 30.59V17.9L153.99 11.56L143 17.9ZM140 15L152.98 7.5V0H150.98V6.35L140 12.69V14.99V15ZM140 33.5L152.98 41V49H150.98V42.15L140 35.81V33.51V33.5ZM155 0V7.5L167.99 15H168V12.69H167.99L157 6.35V0H155ZM155 49V41L167.99 33.5H168V35.81H167.99L157 42.15V49H155Z" fill="#8C4343"/>
<path d="M181.99 9.25L194.99 16.75V31.75L181.99 39.25L169 31.75V16.75L181.99 9.25ZM171 17.9V30.6L181.99 36.94L192.99 30.59V17.9L181.99 11.56L171 17.9ZM168 15L180.98 7.5V0H178.98V6.35L168 12.69V14.99V15ZM168 33.5L180.98 41V49H178.98V42.15L168 35.81V33.51V33.5ZM183 0V7.5L195.99 15H196V12.69H195.99L185 6.35V0H183ZM183 49V41L195.99 33.5H196V35.81H195.99L185 42.15V49H183Z" fill="#8C4343"/>
<path d="M209.99 9.25L222.99 16.75V31.75L209.99 39.25L197 31.75V16.75L209.99 9.25ZM199 17.9V30.6L209.99 36.94L220.99 30.59V17.9L209.99 11.56L199 17.9ZM196 15L208.98 7.5V0H206.98V6.35L196 12.69V14.99V15ZM196 33.5L208.98 41V49H206.98V42.15L196 35.81V33.51V33.5ZM211 0V7.5L223.99 15H224V12.69H223.99L213 6.35V0H211ZM211 49V41L223.99 33.5H224V35.81H223.99L213 42.15V49H211Z" fill="#8C4343"/>
<path d="M237.99 9.25L250.99 16.75V31.75L237.99 39.25L225 31.75V16.75L237.99 9.25ZM227 17.9V30.6L237.99 36.94L248.99 30.59V17.9L237.99 11.56L227 17.9ZM224 15L236.98 7.5V0H234.98V6.35L224 12.69V14.99V15ZM224 33.5L236.98 41V49H234.98V42.15L224 35.81V33.51V33.5ZM239 0V7.5L251.99 15H252V12.69H251.99L241 6.35V0H239ZM239 49V41L251.99 33.5H252V35.81H251.99L241 42.15V49H239Z" fill="#8C4343"/>
<path d="M265.99 9.25L278.99 16.75V31.75L265.99 39.25L253 31.75V16.75L265.99 9.25ZM255 17.9V30.6L265.99 36.94L276.99 30.59V17.9L265.99 11.56L255 17.9ZM252 15L264.98 7.5V0H262.98V6.35L252 12.69V14.99V15ZM252 33.5L264.98 41V49H262.98V42.15L252 35.81V33.51V33.5ZM267 0V7.5L279.99 15H280V12.69H279.99L269 6.35V0H267ZM267 49V41L279.99 33.5H280V35.81H279.99L269 42.15V49H267Z" fill="#8C4343"/>
<path d="M293.99 9.25L306.99 16.75V31.75L293.99 39.25L281 31.75V16.75L293.99 9.25ZM283 17.9V30.6L293.99 36.94L304.99 30.59V17.9L293.99 11.56L283 17.9ZM280 15L292.98 7.5V0H290.98V6.35L280 12.69V14.99V15ZM280 33.5L292.98 41V49H290.98V42.15L280 35.81V33.51V33.5ZM295 0V7.5L307.99 15H308V12.69H307.99L297 6.35V0H295ZM295 49V41L307.99 33.5H308V35.81H307.99L297 42.15V49H295Z" fill="#8C4343"/>
<path d="M321.99 9.25L334.99 16.75V31.75L321.99 39.25L309 31.75V16.75L321.99 9.25ZM311 17.9V30.6L321.99 36.94L332.99 30.59V17.9L321.99 11.56L311 17.9ZM308 15L320.98 7.5V0H318.98V6.35L308 12.69V14.99V15ZM308 33.5L320.98 41V49H318.98V42.15L308 35.81V33.51V33.5ZM323 0V7.5L335.99 15H336V12.69H335.99L325 6.35V0H323ZM323 49V41L335.99 33.5H336V35.81H335.99L325 42.15V49H323Z" fill="#8C4343"/>
<path d="M349.99 9.25L362.99 16.75V31.75L349.99 39.25L337 31.75V16.75L349.99 9.25ZM339 17.9V30.6L349.99 36.94L360.99 30.59V17.9L349.99 11.56L339 17.9ZM336 15L348.98 7.5V0H346.98V6.35L336 12.69V14.99V15ZM336 33.5L348.98 41V49H346.98V42.15L336 35.81V33.51V33.5ZM351 0V7.5L363.99 15H364V12.69H363.99L353 6.35V0H351ZM351 49V41L363.99 33.5H364V35.81H363.99L353 42.15V49H351Z" fill="#8C4343"/>
<path d="M377.99 9.25L390.99 16.75V31.75L377.99 39.25L365 31.75V16.75L377.99 9.25ZM367 17.9V30.6L377.99 36.94L388.99 30.59V17.9L377.99 11.56L367 17.9ZM364 15L376.98 7.5V0H374.98V6.35L364 12.69V14.99V15ZM364 33.5L376.98 41V49H374.98V42.15L364 35.81V33.51V33.5ZM379 0V7.5L391.99 15H392V12.69H391.99L381 6.35V0H379ZM379 49V41L391.99 33.5H392V35.81H391.99L381 42.15V49H379Z" fill="#8C4343"/>
<path d="M405.99 9.25L418.99 16.75V31.75L405.99 39.25L393 31.75V16.75L405.99 9.25ZM395 17.9V30.6L405.99 36.94L416.99 30.59V17.9L405.99 11.56L395 17.9ZM392 15L404.98 7.5V0H402.98V6.35L392 12.69V14.99V15ZM392 33.5L404.98 41V49H402.98V42.15L392 35.81V33.51V33.5ZM407 0V7.5L419.99 15H420V12.69H419.99L409 6.35V0H407ZM407 49V41L419.99 33.5H420V35.81H419.99L409 42.15V49H407Z" fill="#8C4343"/>
<path d="M433.99 9.25L446.99 16.75V31.75L433.99 39.25L421 31.75V16.75L433.99 9.25ZM423 17.9V30.6L433.99 36.94L444.99 30.59V17.9L433.99 11.56L423 17.9ZM420 15L432.98 7.5V0H430.98V6.35L420 12.69V14.99V15ZM420 33.5L432.98 41V49H430.98V42.15L420 35.81V33.51V33.5ZM435 0V7.5L447.99 15H448V12.69H447.99L437 6.35V0H435ZM435 49V41L447.99 33.5H448V35.81H447.99L437 42.15V49H435Z" fill="#8C4343"/>
<path d="M461.99 9.25L474.99 16.75V31.75L461.99 39.25L449 31.75V16.75L461.99 9.25ZM451 17.9V30.6L461.99 36.94L472.99 30.59V17.9L461.99 11.56L451 17.9ZM448 15L460.98 7.5V0H458.98V6.35L448 12.69V14.99V15ZM448 33.5L460.98 41V49H458.98V42.15L448 35.81V33.51V33.5ZM463 0V7.5L475.99 15H476V12.69H475.99L465 6.35V0H463ZM463 49V41L475.99 33.5H476V35.81H475.99L465 42.15V49H463Z" fill="#8C4343"/>
<path d="M489.99 9.25L502.99 16.75V31.75L489.99 39.25L477 31.75V16.75L489.99 9.25ZM479 17.9V30.6L489.99 36.94L500.99 30.59V17.9L489.99 11.56L479 17.9ZM476 15L488.98 7.5V0H486.98V6.35L476 12.69V14.99V15ZM476 33.5L488.98 41V49H486.98V42.15L476 35.81V33.51V33.5ZM491 0V7.5L503.99 15H504V12.69H503.99L493 6.35V0H491ZM491 49V41L503.99 33.5H504V35.81H503.99L493 42.15V49H491Z" fill="#8C4343"/>
<path d="M13.99 58.25L26.99 65.75V80.75L13.99 88.25L1 80.75V65.75L13.99 58.25ZM3 66.9V79.6L13.99 85.94L24.99 79.59V66.9L13.99 60.56L3 66.9ZM0 64L12.98 56.5V49H10.98V55.35L0 61.69V63.99V64ZM0 82.5L12.98 90V98H10.98V91.15L0 84.81V82.51V82.5ZM15 49V56.5L27.99 64H28V61.69H27.99L17 55.35V49H15ZM15 98V90L27.99 82.5H28V84.81H27.99L17 91.15V98H15Z" fill="#8C4343"/>
<path d="M41.99 58.25L54.99 65.75V80.75L41.99 88.25L29 80.75V65.75L41.99 58.25ZM31 66.9V79.6L41.99 85.94L52.99 79.59V66.9L41.99 60.56L31 66.9ZM28 64L40.98 56.5V49H38.98V55.35L28 61.69V63.99V64ZM28 82.5L40.98 90V98H38.98V91.15L28 84.81V82.51V82.5ZM43 49V56.5L55.99 64H56V61.69H55.99L45 55.35V49H43ZM43 98V90L55.99 82.5H56V84.81H55.99L45 91.15V98H43Z" fill="#8C4343"/>
<path d="M69.99 58.25L82.99 65.75V80.75L69.99 88.25L57 80.75V65.75L69.99 58.25ZM59 66.9V79.6L69.99 85.94L80.99 79.59V66.9L69.99 60.56L59 66.9ZM56 64L68.98 56.5V49H66.98V55.35L56 61.69V63.99V64ZM56 82.5L68.98 90V98H66.98V91.15L56 84.81V82.51V82.5ZM71 49V56.5L83.99 64H84V61.69H83.99L73 55.35V49H71ZM71 98V90L83.99 82.5H84V84.81H83.99L73 91.15V98H71Z" fill="#8C4343"/>
<path d="M97.99 58.25L110.99 65.75V80.75L97.99 88.25L85 80.75V65.75L97.99 58.25ZM87 66.9V79.6L97.99 85.94L108.99 79.59V66.9L97.99 60.56L87 66.9ZM84 64L96.98 56.5V49H94.98V55.35L84 61.69V63.99V64ZM84 82.5L96.98 90V98H94.98V91.15L84 84.81V82.51V82.5ZM99 49V56.5L111.99 64H112V61.69H111.99L101 55.35V49H99ZM99 98V90L111.99 82.5H112V84.81H111.99L101 91.15V98H99Z" fill="#8C4343"/>
<path d="M125.99 58.25L138.99 65.75V80.75L125.99 88.25L113 80.75V65.75L125.99 58.25ZM115 66.9V79.6L125.99 85.94L136.99 79.59V66.9L125.99 60.56L115 66.9ZM112 64L124.98 56.5V49H122.98V55.35L112 61.69V63.99V64ZM112 82.5L124.98 90V98H122.98V91.15L112 84.81V82.51V82.5ZM127 49V56.5L139.99 64H140V61.69H139.99L129 55.35V49H127ZM127 98V90L139.99 82.5H140V84.81H139.99L129 91.15V98H127Z" fill="#8C4343"/>
<path d="M153.99 58.25L166.99 65.75V80.75L153.99 88.25L141 80.75V65.75L153.99 58.25ZM143 66.9V79.6L153.99 85.94L164.99 79.59V66.9L153.99 60.56L143 66.9ZM140 64L152.98 56.5V49H150.98V55.35L140 61.69V63.99V64ZM140 82.5L152.98 90V98H150.98V91.15L140 84.81V82.51V82.5ZM155 49V56.5L167.99 64H168V61.69H167.99L157 55.35V49H155ZM155 98V90L167.99 82.5H168V84.81H167.99L157 91.15V98H155Z" fill="#8C4343"/>
<path d="M181.99 58.25L194.99 65.75V80.75L181.99 88.25L169 80.75V65.75L181.99 58.25ZM171 66.9V79.6L181.99 85.94L192.99 79.59V66.9L181.99 60.56L171 66.9ZM168 64L180.98 56.5V49H178.98V55.35L168 61.69V63.99V64ZM168 82.5L180.98 90V98H178.98V91.15L168 84.81V82.51V82.5ZM183 49V56.5L195.99 64H196V61.69H195.99L185 55.35V49H183ZM183 98V90L195.99 82.5H196V84.81H195.99L185 91.15V98H183Z" fill="#8C4343"/>
<path d="M209.99 58.25L222.99 65.75V80.75L209.99 88.25L197 80.75V65.75L209.99 58.25ZM199 66.9V79.6L209.99 85.94L220.99 79.59V66.9L209.99 60.56L199 66.9ZM196 64L208.98 56.5V49H206.98V55.35L196 61.69V63.99V64ZM196 82.5L208.98 90V98H206.98V91.15L196 84.81V82.51V82.5ZM211 49V56.5L223.99 64H224V61.69H223.99L213 55.35V49H211ZM211 98V90L223.99 82.5H224V84.81H223.99L213 91.15V98H211Z" fill="#8C4343"/>
<path d="M237.99 58.25L250.99 65.75V80.75L237.99 88.25L225 80.75V65.75L237.99 58.25ZM227 66.9V79.6L237.99 85.94L248.99 79.59V66.9L237.99 60.56L227 66.9ZM224 64L236.98 56.5V49H234.98V55.35L224 61.69V63.99V64ZM224 82.5L236.98 90V98H234.98V91.15L224 84.81V82.51V82.5ZM239 49V56.5L251.99 64H252V61.69H251.99L241 55.35V49H239ZM239 98V90L251.99 82.5H252V84.81H251.99L241 91.15V98H239Z" fill="#8C4343"/>
<path d="M265.99 58.25L278.99 65.75V80.75L265.99 88.25L253 80.75V65.75L265.99 58.25ZM255 66.9V79.6L265.99 85.94L276.99 79.59V66.9L265.99 60.56L255 66.9ZM252 64L264.98 56.5V49H262.98V55.35L252 61.69V63.99V64ZM252 82.5L264.98 90V98H262.98V91.15L252 84.81V82.51V82.5ZM267 49V56.5L279.99 64H280V61.69H279.99L269 55.35V49H267ZM267 98V90L279.99 82.5H280V84.81H279.99L269 91.15V98H267Z" fill="#8C4343"/>
<path d="M293.99 58.25L306.99 65.75V80.75L293.99 88.25L281 80.75V65.75L293.99 58.25ZM283 66.9V79.6L293.99 85.94L304.99 79.59V66.9L293.99 60.56L283 66.9ZM280 64L292.98 56.5V49H290.98V55.35L280 61.69V63.99V64ZM280 82.5L292.98 90V98H290.98V91.15L280 84.81V82.51V82.5ZM295 49V56.5L307.99 64H308V61.69H307.99L297 55.35V49H295ZM295 98V90L307.99 82.5H308V84.81H307.99L297 91.15V98H295Z" fill="#8C4343"/>
<path d="M321.99 58.25L334.99 65.75V80.75L321.99 88.25L309 80.75V65.75L321.99 58.25ZM311 66.9V79.6L321.99 85.94L332.99 79.59V66.9L321.99 60.56L311 66.9ZM308 64L320.98 56.5V49H318.98V55.35L308 61.69V63.99V64ZM308 82.5L320.98 90V98H318.98V91.15L308 84.81V82.51V82.5ZM323 49V56.5L335.99 64H336V61.69H335.99L325 55.35V49H323ZM323 98V90L335.99 82.5H336V84.81H335.99L325 91.15V98H323Z" fill="#8C4343"/>
<path d="M349.99 58.25L362.99 65.75V80.75L349.99 88.25L337 80.75V65.75L349.99 58.25ZM339 66.9V79.6L349.99 85.94L360.99 79.59V66.9L349.99 60.56L339 66.9ZM336 64L348.98 56.5V49H346.98V55.35L336 61.69V63.99V64ZM336 82.5L348.98 90V98H346.98V91.15L336 84.81V82.51V82.5ZM351 49V56.5L363.99 64H364V61.69H363.99L353 55.35V49H351ZM351 98V90L363.99 82.5H364V84.81H363.99L353 91.15V98H351Z" fill="#8C4343"/>
<path d="M377.99 58.25L390.99 65.75V80.75L377.99 88.25L365 80.75V65.75L377.99 58.25ZM367 66.9V79.6L377.99 85.94L388.99 79.59V66.9L377.99 60.56L367 66.9ZM364 64L376.98 56.5V49H374.98V55.35L364 61.69V63.99V64ZM364 82.5L376.98 90V98H374.98V91.15L364 84.81V82.51V82.5ZM379 49V56.5L391.99 64H392V61.69H391.99L381 55.35V49H379ZM379 98V90L391.99 82.5H392V84.81H391.99L381 91.15V98H379Z" fill="#8C4343"/>
<path d="M405.99 58.25L418.99 65.75V80.75L405.99 88.25L393 80.75V65.75L405.99 58.25ZM395 66.9V79.6L405.99 85.94L416.99 79.59V66.9L405.99 60.56L395 66.9ZM392 64L404.98 56.5V49H402.98V55.35L392 61.69V63.99V64ZM392 82.5L404.98 90V98H402.98V91.15L392 84.81V82.51V82.5ZM407 49V56.5L419.99 64H420V61.69H419.99L409 55.35V49H407ZM407 98V90L419.99 82.5H420V84.81H419.99L409 91.15V98H407Z" fill="#8C4343"/>
<path d="M433.99 58.25L446.99 65.75V80.75L433.99 88.25L421 80.75V65.75L433.99 58.25ZM423 66.9V79.6L433.99 85.94L444.99 79.59V66.9L433.99 60.56L423 66.9ZM420 64L432.98 56.5V49H430.98V55.35L420 61.69V63.99V64ZM420 82.5L432.98 90V98H430.98V91.15L420 84.81V82.51V82.5ZM435 49V56.5L447.99 64H448V61.69H447.99L437 55.35V49H435ZM435 98V90L447.99 82.5H448V84.81H447.99L437 91.15V98H435Z" fill="#8C4343"/>
<path d="M461.99 58.25L474.99 65.75V80.75L461.99 88.25L449 80.75V65.75L461.99 58.25ZM451 66.9V79.6L461.99 85.94L472.99 79.59V66.9L461.99 60.56L451 66.9ZM448 64L460.98 56.5V49H458.98V55.35L448 61.69V63.99V64ZM448 82.5L460.98 90V98H458.98V91.15L448 84.81V82.51V82.5ZM463 49V56.5L475.99 64H476V61.69H475.99L465 55.35V49H463ZM463 98V90L475.99 82.5H476V84.81H475.99L465 91.15V98H463Z" fill="#8C4343"/>
<path d="M489.99 58.25L502.99 65.75V80.75L489.99 88.25L477 80.75V65.75L489.99 58.25ZM479 66.9V79.6L489.99 85.94L500.99 79.59V66.9L489.99 60.56L479 66.9ZM476 64L488.98 56.5V49H486.98V55.35L476 61.69V63.99V64ZM476 82.5L488.98 90V98H486.98V91.15L476 84.81V82.51V82.5ZM491 49V56.5L503.99 64H504V61.69H503.99L493 55.35V49H491ZM491 98V90L503.99 82.5H504V84.81H503.99L493 91.15V98H491Z" fill="#8C4343"/>
<path d="M13.99 107.25L26.99 114.75V129.75L13.99 137.25L1 129.75V114.75L13.99 107.25ZM3 115.9V128.6L13.99 134.94L24.99 128.59V115.9L13.99 109.56L3 115.9ZM0 113L12.98 105.5V98H10.98V104.35L0 110.69V112.99V113ZM0 131.5L12.98 139V147H10.98V140.15L0 133.81V131.51V131.5ZM15 98V105.5L27.99 113H28V110.69H27.99L17 104.35V98H15ZM15 147V139L27.99 131.5H28V133.81H27.99L17 140.15V147H15Z" fill="#8C4343"/>
<path d="M41.99 107.25L54.99 114.75V129.75L41.99 137.25L29 129.75V114.75L41.99 107.25ZM31 115.9V128.6L41.99 134.94L52.99 128.59V115.9L41.99 109.56L31 115.9ZM28 113L40.98 105.5V98H38.98V104.35L28 110.69V112.99V113ZM28 131.5L40.98 139V147H38.98V140.15L28 133.81V131.51V131.5ZM43 98V105.5L55.99 113H56V110.69H55.99L45 104.35V98H43ZM43 147V139L55.99 131.5H56V133.81H55.99L45 140.15V147H43Z" fill="#8C4343"/>
<path d="M69.99 107.25L82.99 114.75V129.75L69.99 137.25L57 129.75V114.75L69.99 107.25ZM59 115.9V128.6L69.99 134.94L80.99 128.59V115.9L69.99 109.56L59 115.9ZM56 113L68.98 105.5V98H66.98V104.35L56 110.69V112.99V113ZM56 131.5L68.98 139V147H66.98V140.15L56 133.81V131.51V131.5ZM71 98V105.5L83.99 113H84V110.69H83.99L73 104.35V98H71ZM71 147V139L83.99 131.5H84V133.81H83.99L73 140.15V147H71Z" fill="#8C4343"/>
<path d="M97.99 107.25L110.99 114.75V129.75L97.99 137.25L85 129.75V114.75L97.99 107.25ZM87 115.9V128.6L97.99 134.94L108.99 128.59V115.9L97.99 109.56L87 115.9ZM84 113L96.98 105.5V98H94.98V104.35L84 110.69V112.99V113ZM84 131.5L96.98 139V147H94.98V140.15L84 133.81V131.51V131.5ZM99 98V105.5L111.99 113H112V110.69H111.99L101 104.35V98H99ZM99 147V139L111.99 131.5H112V133.81H111.99L101 140.15V147H99Z" fill="#8C4343"/>
<path d="M125.99 107.25L138.99 114.75V129.75L125.99 137.25L113 129.75V114.75L125.99 107.25ZM115 115.9V128.6L125.99 134.94L136.99 128.59V115.9L125.99 109.56L115 115.9ZM112 113L124.98 105.5V98H122.98V104.35L112 110.69V112.99V113ZM112 131.5L124.98 139V147H122.98V140.15L112 133.81V131.51V131.5ZM127 98V105.5L139.99 113H140V110.69H139.99L129 104.35V98H127ZM127 147V139L139.99 131.5H140V133.81H139.99L129 140.15V147H127Z" fill="#8C4343"/>
<path d="M153.99 107.25L166.99 114.75V129.75L153.99 137.25L141 129.75V114.75L153.99 107.25ZM143 115.9V128.6L153.99 134.94L164.99 128.59V115.9L153.99 109.56L143 115.9ZM140 113L152.98 105.5V98H150.98V104.35L140 110.69V112.99V113ZM140 131.5L152.98 139V147H150.98V140.15L140 133.81V131.51V131.5ZM155 98V105.5L167.99 113H168V110.69H167.99L157 104.35V98H155ZM155 147V139L167.99 131.5H168V133.81H167.99L157 140.15V147H155Z" fill="#8C4343"/>
<path d="M181.99 107.25L194.99 114.75V129.75L181.99 137.25L169 129.75V114.75L181.99 107.25ZM171 115.9V128.6L181.99 134.94L192.99 128.59V115.9L181.99 109.56L171 115.9ZM168 113L180.98 105.5V98H178.98V104.35L168 110.69V112.99V113ZM168 131.5L180.98 139V147H178.98V140.15L168 133.81V131.51V131.5ZM183 98V105.5L195.99 113H196V110.69H195.99L185 104.35V98H183ZM183 147V139L195.99 131.5H196V133.81H195.99L185 140.15V147H183Z" fill="#8C4343"/>
<path d="M209.99 107.25L222.99 114.75V129.75L209.99 137.25L197 129.75V114.75L209.99 107.25ZM199 115.9V128.6L209.99 134.94L220.99 128.59V115.9L209.99 109.56L199 115.9ZM196 113L208.98 105.5V98H206.98V104.35L196 110.69V112.99V113ZM196 131.5L208.98 139V147H206.98V140.15L196 133.81V131.51V131.5ZM211 98V105.5L223.99 113H224V110.69H223.99L213 104.35V98H211ZM211 147V139L223.99 131.5H224V133.81H223.99L213 140.15V147H211Z" fill="#8C4343"/>
<path d="M237.99 107.25L250.99 114.75V129.75L237.99 137.25L225 129.75V114.75L237.99 107.25ZM227 115.9V128.6L237.99 134.94L248.99 128.59V115.9L237.99 109.56L227 115.9ZM224 113L236.98 105.5V98H234.98V104.35L224 110.69V112.99V113ZM224 131.5L236.98 139V147H234.98V140.15L224 133.81V131.51V131.5ZM239 98V105.5L251.99 113H252V110.69H251.99L241 104.35V98H239ZM239 147V139L251.99 131.5H252V133.81H251.99L241 140.15V147H239Z" fill="#8C4343"/>
<path d="M265.99 107.25L278.99 114.75V129.75L265.99 137.25L253 129.75V114.75L265.99 107.25ZM255 115.9V128.6L265.99 134.94L276.99 128.59V115.9L265.99 109.56L255 115.9ZM252 113L264.98 105.5V98H262.98V104.35L252 110.69V112.99V113ZM252 131.5L264.98 139V147H262.98V140.15L252 133.81V131.51V131.5ZM267 98V105.5L279.99 113H280V110.69H279.99L269 104.35V98H267ZM267 147V139L279.99 131.5H280V133.81H279.99L269 140.15V147H267Z" fill="#8C4343"/>
<path d="M293.99 107.25L306.99 114.75V129.75L293.99 137.25L281 129.75V114.75L293.99 107.25ZM283 115.9V128.6L293.99 134.94L304.99 128.59V115.9L293.99 109.56L283 115.9ZM280 113L292.98 105.5V98H290.98V104.35L280 110.69V112.99V113ZM280 131.5L292.98 139V147H290.98V140.15L280 133.81V131.51V131.5ZM295 98V105.5L307.99 113H308V110.69H307.99L297 104.35V98H295ZM295 147V139L307.99 131.5H308V133.81H307.99L297 140.15V147H295Z" fill="#8C4343"/>
<path d="M321.99 107.25L334.99 114.75V129.75L321.99 137.25L309 129.75V114.75L321.99 107.25ZM311 115.9V128.6L321.99 134.94L332.99 128.59V115.9L321.99 109.56L311 115.9ZM308 113L320.98 105.5V98H318.98V104.35L308 110.69V112.99V113ZM308 131.5L320.98 139V147H318.98V140.15L308 133.81V131.51V131.5ZM323 98V105.5L335.99 113H336V110.69H335.99L325 104.35V98H323ZM323 147V139L335.99 131.5H336V133.81H335.99L325 140.15V147H323Z" fill="#8C4343"/>
<path d="M349.99 107.25L362.99 114.75V129.75L349.99 137.25L337 129.75V114.75L349.99 107.25ZM339 115.9V128.6L349.99 134.94L360.99 128.59V115.9L349.99 109.56L339 115.9ZM336 113L348.98 105.5V98H346.98V104.35L336 110.69V112.99V113ZM336 131.5L348.98 139V147H346.98V140.15L336 133.81V131.51V131.5ZM351 98V105.5L363.99 113H364V110.69H363.99L353 104.35V98H351ZM351 147V139L363.99 131.5H364V133.81H363.99L353 140.15V147H351Z" fill="#8C4343"/>
<path d="M377.99 107.25L390.99 114.75V129.75L377.99 137.25L365 129.75V114.75L377.99 107.25ZM367 115.9V128.6L377.99 134.94L388.99 128.59V115.9L377.99 109.56L367 115.9ZM364 113L376.98 105.5V98H374.98V104.35L364 110.69V112.99V113ZM364 131.5L376.98 139V147H374.98V140.15L364 133.81V131.51V131.5ZM379 98V105.5L391.99 113H392V110.69H391.99L381 104.35V98H379ZM379 147V139L391.99 131.5H392V133.81H391.99L381 140.15V147H379Z" fill="#8C4343"/>
<path d="M405.99 107.25L418.99 114.75V129.75L405.99 137.25L393 129.75V114.75L405.99 107.25ZM395 115.9V128.6L405.99 134.94L416.99 128.59V115.9L405.99 109.56L395 115.9ZM392 113L404.98 105.5V98H402.98V104.35L392 110.69V112.99V113ZM392 131.5L404.98 139V147H402.98V140.15L392 133.81V131.51V131.5ZM407 98V105.5L419.99 113H420V110.69H419.99L409 104.35V98H407ZM407 147V139L419.99 131.5H420V133.81H419.99L409 140.15V147H407Z" fill="#8C4343"/>
<path d="M433.99 107.25L446.99 114.75V129.75L433.99 137.25L421 129.75V114.75L433.99 107.25ZM423 115.9V128.6L433.99 134.94L444.99 128.59V115.9L433.99 109.56L423 115.9ZM420 113L432.98 105.5V98H430.98V104.35L420 110.69V112.99V113ZM420 131.5L432.98 139V147H430.98V140.15L420 133.81V131.51V131.5ZM435 98V105.5L447.99 113H448V110.69H447.99L437 104.35V98H435ZM435 147V139L447.99 131.5H448V133.81H447.99L437 140.15V147H435Z" fill="#8C4343"/>
<path d="M461.99 107.25L474.99 114.75V129.75L461.99 137.25L449 129.75V114.75L461.99 107.25ZM451 115.9V128.6L461.99 134.94L472.99 128.59V115.9L461.99 109.56L451 115.9ZM448 113L460.98 105.5V98H458.98V104.35L448 110.69V112.99V113ZM448 131.5L460.98 139V147H458.98V140.15L448 133.81V131.51V131.5ZM463 98V105.5L475.99 113H476V110.69H475.99L465 104.35V98H463ZM463 147V139L475.99 131.5H476V133.81H475.99L465 140.15V147H463Z" fill="#8C4343"/>
<path d="M489.99 107.25L502.99 114.75V129.75L489.99 137.25L477 129.75V114.75L489.99 107.25ZM479 115.9V128.6L489.99 134.94L500.99 128.59V115.9L489.99 109.56L479 115.9ZM476 113L488.98 105.5V98H486.98V104.35L476 110.69V112.99V113ZM476 131.5L488.98 139V147H486.98V140.15L476 133.81V131.51V131.5ZM491 98V105.5L503.99 113H504V110.69H503.99L493 104.35V98H491ZM491 147V139L503.99 131.5H504V133.81H503.99L493 140.15V147H491Z" fill="#8C4343"/>
<path d="M13.99 156.25L26.99 163.75V178.75L13.99 186.25L1 178.75V163.75L13.99 156.25ZM3 164.9V177.6L13.99 183.94L24.99 177.59V164.9L13.99 158.56L3 164.9ZM0 162L12.98 154.5V147H10.98V153.35L0 159.69V161.99V162ZM0 180.5L12.98 188V196H10.98V189.15L0 182.81V180.51V180.5ZM15 147V154.5L27.99 162H28V159.69H27.99L17 153.35V147H15ZM15 196V188L27.99 180.5H28V182.81H27.99L17 189.15V196H15Z" fill="#8C4343"/>
<path d="M41.99 156.25L54.99 163.75V178.75L41.99 186.25L29 178.75V163.75L41.99 156.25ZM31 164.9V177.6L41.99 183.94L52.99 177.59V164.9L41.99 158.56L31 164.9ZM28 162L40.98 154.5V147H38.98V153.35L28 159.69V161.99V162ZM28 180.5L40.98 188V196H38.98V189.15L28 182.81V180.51V180.5ZM43 147V154.5L55.99 162H56V159.69H55.99L45 153.35V147H43ZM43 196V188L55.99 180.5H56V182.81H55.99L45 189.15V196H43Z" fill="#8C4343"/>
<path d="M69.99 156.25L82.99 163.75V178.75L69.99 186.25L57 178.75V163.75L69.99 156.25ZM59 164.9V177.6L69.99 183.94L80.99 177.59V164.9L69.99 158.56L59 164.9ZM56 162L68.98 154.5V147H66.98V153.35L56 159.69V161.99V162ZM56 180.5L68.98 188V196H66.98V189.15L56 182.81V180.51V180.5ZM71 147V154.5L83.99 162H84V159.69H83.99L73 153.35V147H71ZM71 196V188L83.99 180.5H84V182.81H83.99L73 189.15V196H71Z" fill="#8C4343"/>
<path d="M97.99 156.25L110.99 163.75V178.75L97.99 186.25L85 178.75V163.75L97.99 156.25ZM87 164.9V177.6L97.99 183.94L108.99 177.59V164.9L97.99 158.56L87 164.9ZM84 162L96.98 154.5V147H94.98V153.35L84 159.69V161.99V162ZM84 180.5L96.98 188V196H94.98V189.15L84 182.81V180.51V180.5ZM99 147V154.5L111.99 162H112V159.69H111.99L101 153.35V147H99ZM99 196V188L111.99 180.5H112V182.81H111.99L101 189.15V196H99Z" fill="#8C4343"/>
<path d="M125.99 156.25L138.99 163.75V178.75L125.99 186.25L113 178.75V163.75L125.99 156.25ZM115 164.9V177.6L125.99 183.94L136.99 177.59V164.9L125.99 158.56L115 164.9ZM112 162L124.98 154.5V147H122.98V153.35L112 159.69V161.99V162ZM112 180.5L124.98 188V196H122.98V189.15L112 182.81V180.51V180.5ZM127 147V154.5L139.99 162H140V159.69H139.99L129 153.35V147H127ZM127 196V188L139.99 180.5H140V182.81H139.99L129 189.15V196H127Z" fill="#8C4343"/>
<path d="M153.99 156.25L166.99 163.75V178.75L153.99 186.25L141 178.75V163.75L153.99 156.25ZM143 164.9V177.6L153.99 183.94L164.99 177.59V164.9L153.99 158.56L143 164.9ZM140 162L152.98 154.5V147H150.98V153.35L140 159.69V161.99V162ZM140 180.5L152.98 188V196H150.98V189.15L140 182.81V180.51V180.5ZM155 147V154.5L167.99 162H168V159.69H167.99L157 153.35V147H155ZM155 196V188L167.99 180.5H168V182.81H167.99L157 189.15V196H155Z" fill="#8C4343"/>
<path d="M181.99 156.25L194.99 163.75V178.75L181.99 186.25L169 178.75V163.75L181.99 156.25ZM171 164.9V177.6L181.99 183.94L192.99 177.59V164.9L181.99 158.56L171 164.9ZM168 162L180.98 154.5V147H178.98V153.35L168 159.69V161.99V162ZM168 180.5L180.98 188V196H178.98V189.15L168 182.81V180.51V180.5ZM183 147V154.5L195.99 162H196V159.69H195.99L185 153.35V147H183ZM183 196V188L195.99 180.5H196V182.81H195.99L185 189.15V196H183Z" fill="#8C4343"/>
<path d="M209.99 156.25L222.99 163.75V178.75L209.99 186.25L197 178.75V163.75L209.99 156.25ZM199 164.9V177.6L209.99 183.94L220.99 177.59V164.9L209.99 158.56L199 164.9ZM196 162L208.98 154.5V147H206.98V153.35L196 159.69V161.99V162ZM196 180.5L208.98 188V196H206.98V189.15L196 182.81V180.51V180.5ZM211 147V154.5L223.99 162H224V159.69H223.99L213 153.35V147H211ZM211 196V188L223.99 180.5H224V182.81H223.99L213 189.15V196H211Z" fill="#8C4343"/>
<path d="M237.99 156.25L250.99 163.75V178.75L237.99 186.25L225 178.75V163.75L237.99 156.25ZM227 164.9V177.6L237.99 183.94L248.99 177.59V164.9L237.99 158.56L227 164.9ZM224 162L236.98 154.5V147H234.98V153.35L224 159.69V161.99V162ZM224 180.5L236.98 188V196H234.98V189.15L224 182.81V180.51V180.5ZM239 147V154.5L251.99 162H252V159.69H251.99L241 153.35V147H239ZM239 196V188L251.99 180.5H252V182.81H251.99L241 189.15V196H239Z" fill="#8C4343"/>
<path d="M265.99 156.25L278.99 163.75V178.75L265.99 186.25L253 178.75V163.75L265.99 156.25ZM255 164.9V177.6L265.99 183.94L276.99 177.59V164.9L265.99 158.56L255 164.9ZM252 162L264.98 154.5V147H262.98V153.35L252 159.69V161.99V162ZM252 180.5L264.98 188V196H262.98V189.15L252 182.81V180.51V180.5ZM267 147V154.5L279.99 162H280V159.69H279.99L269 153.35V147H267ZM267 196V188L279.99 180.5H280V182.81H279.99L269 189.15V196H267Z" fill="#8C4343"/>
<path d="M293.99 156.25L306.99 163.75V178.75L293.99 186.25L281 178.75V163.75L293.99 156.25ZM283 164.9V177.6L293.99 183.94L304.99 177.59V164.9L293.99 158.56L283 164.9ZM280 162L292.98 154.5V147H290.98V153.35L280 159.69V161.99V162ZM280 180.5L292.98 188V196H290.98V189.15L280 182.81V180.51V180.5ZM295 147V154.5L307.99 162H308V159.69H307.99L297 153.35V147H295ZM295 196V188L307.99 180.5H308V182.81H307.99L297 189.15V196H295Z" fill="#8C4343"/>
<path d="M321.99 156.25L334.99 163.75V178.75L321.99 186.25L309 178.75V163.75L321.99 156.25ZM311 164.9V177.6L321.99 183.94L332.99 177.59V164.9L321.99 158.56L311 164.9ZM308 162L320.98 154.5V147H318.98V153.35L308 159.69V161.99V162ZM308 180.5L320.98 188V196H318.98V189.15L308 182.81V180.51V180.5ZM323 147V154.5L335.99 162H336V159.69H335.99L325 153.35V147H323ZM323 196V188L335.99 180.5H336V182.81H335.99L325 189.15V196H323Z" fill="#8C4343"/>
<path d="M349.99 156.25L362.99 163.75V178.75L349.99 186.25L337 178.75V163.75L349.99 156.25ZM339 164.9V177.6L349.99 183.94L360.99 177.59V164.9L349.99 158.56L339 164.9ZM336 162L348.98 154.5V147H346.98V153.35L336 159.69V161.99V162ZM336 180.5L348.98 188V196H346.98V189.15L336 182.81V180.51V180.5ZM351 147V154.5L363.99 162H364V159.69H363.99L353 153.35V147H351ZM351 196V188L363.99 180.5H364V182.81H363.99L353 189.15V196H351Z" fill="#8C4343"/>
<path d="M377.99 156.25L390.99 163.75V178.75L377.99 186.25L365 178.75V163.75L377.99 156.25ZM367 164.9V177.6L377.99 183.94L388.99 177.59V164.9L377.99 158.56L367 164.9ZM364 162L376.98 154.5V147H374.98V153.35L364 159.69V161.99V162ZM364 180.5L376.98 188V196H374.98V189.15L364 182.81V180.51V180.5ZM379 147V154.5L391.99 162H392V159.69H391.99L381 153.35V147H379ZM379 196V188L391.99 180.5H392V182.81H391.99L381 189.15V196H379Z" fill="#8C4343"/>
<path d="M405.99 156.25L418.99 163.75V178.75L405.99 186.25L393 178.75V163.75L405.99 156.25ZM395 164.9V177.6L405.99 183.94L416.99 177.59V164.9L405.99 158.56L395 164.9ZM392 162L404.98 154.5V147H402.98V153.35L392 159.69V161.99V162ZM392 180.5L404.98 188V196H402.98V189.15L392 182.81V180.51V180.5ZM407 147V154.5L419.99 162H420V159.69H419.99L409 153.35V147H407ZM407 196V188L419.99 180.5H420V182.81H419.99L409 189.15V196H407Z" fill="#8C4343"/>
<path d="M433.99 156.25L446.99 163.75V178.75L433.99 186.25L421 178.75V163.75L433.99 156.25ZM423 164.9V177.6L433.99 183.94L444.99 177.59V164.9L433.99 158.56L423 164.9ZM420 162L432.98 154.5V147H430.98V153.35L420 159.69V161.99V162ZM420 180.5L432.98 188V196H430.98V189.15L420 182.81V180.51V180.5ZM435 147V154.5L447.99 162H448V159.69H447.99L437 153.35V147H435ZM435 196V188L447.99 180.5H448V182.81H447.99L437 189.15V196H435Z" fill="#8C4343"/>
<path d="M461.99 156.25L474.99 163.75V178.75L461.99 186.25L449 178.75V163.75L461.99 156.25ZM451 164.9V177.6L461.99 183.94L472.99 177.59V164.9L461.99 158.56L451 164.9ZM448 162L460.98 154.5V147H458.98V153.35L448 159.69V161.99V162ZM448 180.5L460.98 188V196H458.98V189.15L448 182.81V180.51V180.5ZM463 147V154.5L475.99 162H476V159.69H475.99L465 153.35V147H463ZM463 196V188L475.99 180.5H476V182.81H475.99L465 189.15V196H463Z" fill="#8C4343"/>
<path d="M489.99 156.25L502.99 163.75V178.75L489.99 186.25L477 178.75V163.75L489.99 156.25ZM479 164.9V177.6L489.99 183.94L500.99 177.59V164.9L489.99 158.56L479 164.9ZM476 162L488.98 154.5V147H486.98V153.35L476 159.69V161.99V162ZM476 180.5L488.98 188V196H486.98V189.15L476 182.81V180.51V180.5ZM491 147V154.5L503.99 162H504V159.69H503.99L493 153.35V147H491ZM491 196V188L503.99 180.5H504V182.81H503.99L493 189.15V196H491Z" fill="#8C4343"/>
<path d="M13.99 205.25L26.99 212.75V227.75L13.99 235.25L1 227.75V212.75L13.99 205.25ZM3 213.9V226.6L13.99 232.94L24.99 226.59V213.9L13.99 207.56L3 213.9ZM0 211L12.98 203.5V196H10.98V202.35L0 208.69V210.99V211ZM0 229.5L12.98 237V245H10.98V238.15L0 231.81V229.51V229.5ZM15 196V203.5L27.99 211H28V208.69H27.99L17 202.35V196H15ZM15 245V237L27.99 229.5H28V231.81H27.99L17 238.15V245H15Z" fill="#8C4343"/>
<path d="M41.99 205.25L54.99 212.75V227.75L41.99 235.25L29 227.75V212.75L41.99 205.25ZM31 213.9V226.6L41.99 232.94L52.99 226.59V213.9L41.99 207.56L31 213.9ZM28 211L40.98 203.5V196H38.98V202.35L28 208.69V210.99V211ZM28 229.5L40.98 237V245H38.98V238.15L28 231.81V229.51V229.5ZM43 196V203.5L55.99 211H56V208.69H55.99L45 202.35V196H43ZM43 245V237L55.99 229.5H56V231.81H55.99L45 238.15V245H43Z" fill="#8C4343"/>
<path d="M69.99 205.25L82.99 212.75V227.75L69.99 235.25L57 227.75V212.75L69.99 205.25ZM59 213.9V226.6L69.99 232.94L80.99 226.59V213.9L69.99 207.56L59 213.9ZM56 211L68.98 203.5V196H66.98V202.35L56 208.69V210.99V211ZM56 229.5L68.98 237V245H66.98V238.15L56 231.81V229.51V229.5ZM71 196V203.5L83.99 211H84V208.69H83.99L73 202.35V196H71ZM71 245V237L83.99 229.5H84V231.81H83.99L73 238.15V245H71Z" fill="#8C4343"/>
<path d="M97.99 205.25L110.99 212.75V227.75L97.99 235.25L85 227.75V212.75L97.99 205.25ZM87 213.9V226.6L97.99 232.94L108.99 226.59V213.9L97.99 207.56L87 213.9ZM84 211L96.98 203.5V196H94.98V202.35L84 208.69V210.99V211ZM84 229.5L96.98 237V245H94.98V238.15L84 231.81V229.51V229.5ZM99 196V203.5L111.99 211H112V208.69H111.99L101 202.35V196H99ZM99 245V237L111.99 229.5H112V231.81H111.99L101 238.15V245H99Z" fill="#8C4343"/>
<path d="M125.99 205.25L138.99 212.75V227.75L125.99 235.25L113 227.75V212.75L125.99 205.25ZM115 213.9V226.6L125.99 232.94L136.99 226.59V213.9L125.99 207.56L115 213.9ZM112 211L124.98 203.5V196H122.98V202.35L112 208.69V210.99V211ZM112 229.5L124.98 237V245H122.98V238.15L112 231.81V229.51V229.5ZM127 196V203.5L139.99 211H140V208.69H139.99L129 202.35V196H127ZM127 245V237L139.99 229.5H140V231.81H139.99L129 238.15V245H127Z" fill="#8C4343"/>
<path d="M153.99 205.25L166.99 212.75V227.75L153.99 235.25L141 227.75V212.75L153.99 205.25ZM143 213.9V226.6L153.99 232.94L164.99 226.59V213.9L153.99 207.56L143 213.9ZM140 211L152.98 203.5V196H150.98V202.35L140 208.69V210.99V211ZM140 229.5L152.98 237V245H150.98V238.15L140 231.81V229.51V229.5ZM155 196V203.5L167.99 211H168V208.69H167.99L157 202.35V196H155ZM155 245V237L167.99 229.5H168V231.81H167.99L157 238.15V245H155Z" fill="#8C4343"/>
<path d="M181.99 205.25L194.99 212.75V227.75L181.99 235.25L169 227.75V212.75L181.99 205.25ZM171 213.9V226.6L181.99 232.94L192.99 226.59V213.9L181.99 207.56L171 213.9ZM168 211L180.98 203.5V196H178.98V202.35L168 208.69V210.99V211ZM168 229.5L180.98 237V245H178.98V238.15L168 231.81V229.51V229.5ZM183 196V203.5L195.99 211H196V208.69H195.99L185 202.35V196H183ZM183 245V237L195.99 229.5H196V231.81H195.99L185 238.15V245H183Z" fill="#8C4343"/>
<path d="M209.99 205.25L222.99 212.75V227.75L209.99 235.25L197 227.75V212.75L209.99 205.25ZM199 213.9V226.6L209.99 232.94L220.99 226.59V213.9L209.99 207.56L199 213.9ZM196 211L208.98 203.5V196H206.98V202.35L196 208.69V210.99V211ZM196 229.5L208.98 237V245H206.98V238.15L196 231.81V229.51V229.5ZM211 196V203.5L223.99 211H224V208.69H223.99L213 202.35V196H211ZM211 245V237L223.99 229.5H224V231.81H223.99L213 238.15V245H211Z" fill="#8C4343"/>
<path d="M237.99 205.25L250.99 212.75V227.75L237.99 235.25L225 227.75V212.75L237.99 205.25ZM227 213.9V226.6L237.99 232.94L248.99 226.59V213.9L237.99 207.56L227 213.9ZM224 211L236.98 203.5V196H234.98V202.35L224 208.69V210.99V211ZM224 229.5L236.98 237V245H234.98V238.15L224 231.81V229.51V229.5ZM239 196V203.5L251.99 211H252V208.69H251.99L241 202.35V196H239ZM239 245V237L251.99 229.5H252V231.81H251.99L241 238.15V245H239Z" fill="#8C4343"/>
<path d="M265.99 205.25L278.99 212.75V227.75L265.99 235.25L253 227.75V212.75L265.99 205.25ZM255 213.9V226.6L265.99 232.94L276.99 226.59V213.9L265.99 207.56L255 213.9ZM252 211L264.98 203.5V196H262.98V202.35L252 208.69V210.99V211ZM252 229.5L264.98 237V245H262.98V238.15L252 231.81V229.51V229.5ZM267 196V203.5L279.99 211H280V208.69H279.99L269 202.35V196H267ZM267 245V237L279.99 229.5H280V231.81H279.99L269 238.15V245H267Z" fill="#8C4343"/>
<path d="M293.99 205.25L306.99 212.75V227.75L293.99 235.25L281 227.75V212.75L293.99 205.25ZM283 213.9V226.6L293.99 232.94L304.99 226.59V213.9L293.99 207.56L283 213.9ZM280 211L292.98 203.5V196H290.98V202.35L280 208.69V210.99V211ZM280 229.5L292.98 237V245H290.98V238.15L280 231.81V229.51V229.5ZM295 196V203.5L307.99 211H308V208.69H307.99L297 202.35V196H295ZM295 245V237L307.99 229.5H308V231.81H307.99L297 238.15V245H295Z" fill="#8C4343"/>
<path d="M321.99 205.25L334.99 212.75V227.75L321.99 235.25L309 227.75V212.75L321.99 205.25ZM311 213.9V226.6L321.99 232.94L332.99 226.59V213.9L321.99 207.56L311 213.9ZM308 211L320.98 203.5V196H318.98V202.35L308 208.69V210.99V211ZM308 229.5L320.98 237V245H318.98V238.15L308 231.81V229.51V229.5ZM323 196V203.5L335.99 211H336V208.69H335.99L325 202.35V196H323ZM323 245V237L335.99 229.5H336V231.81H335.99L325 238.15V245H323Z" fill="#8C4343"/>
<path d="M349.99 205.25L362.99 212.75V227.75L349.99 235.25L337 227.75V212.75L349.99 205.25ZM339 213.9V226.6L349.99 232.94L360.99 226.59V213.9L349.99 207.56L339 213.9ZM336 211L348.98 203.5V196H346.98V202.35L336 208.69V210.99V211ZM336 229.5L348.98 237V245H346.98V238.15L336 231.81V229.51V229.5ZM351 196V203.5L363.99 211H364V208.69H363.99L353 202.35V196H351ZM351 245V237L363.99 229.5H364V231.81H363.99L353 238.15V245H351Z" fill="#8C4343"/>
<path d="M377.99 205.25L390.99 212.75V227.75L377.99 235.25L365 227.75V212.75L377.99 205.25ZM367 213.9V226.6L377.99 232.94L388.99 226.59V213.9L377.99 207.56L367 213.9ZM364 211L376.98 203.5V196H374.98V202.35L364 208.69V210.99V211ZM364 229.5L376.98 237V245H374.98V238.15L364 231.81V229.51V229.5ZM379 196V203.5L391.99 211H392V208.69H391.99L381 202.35V196H379ZM379 245V237L391.99 229.5H392V231.81H391.99L381 238.15V245H379Z" fill="#8C4343"/>
<path d="M405.99 205.25L418.99 212.75V227.75L405.99 235.25L393 227.75V212.75L405.99 205.25ZM395 213.9V226.6L405.99 232.94L416.99 226.59V213.9L405.99 207.56L395 213.9ZM392 211L404.98 203.5V196H402.98V202.35L392 208.69V210.99V211ZM392 229.5L404.98 237V245H402.98V238.15L392 231.81V229.51V229.5ZM407 196V203.5L419.99 211H420V208.69H419.99L409 202.35V196H407ZM407 245V237L419.99 229.5H420V231.81H419.99L409 238.15V245H407Z" fill="#8C4343"/>
<path d="M433.99 205.25L446.99 212.75V227.75L433.99 235.25L421 227.75V212.75L433.99 205.25ZM423 213.9V226.6L433.99 232.94L444.99 226.59V213.9L433.99 207.56L423 213.9ZM420 211L432.98 203.5V196H430.98V202.35L420 208.69V210.99V211ZM420 229.5L432.98 237V245H430.98V238.15L420 231.81V229.51V229.5ZM435 196V203.5L447.99 211H448V208.69H447.99L437 202.35V196H435ZM435 245V237L447.99 229.5H448V231.81H447.99L437 238.15V245H435Z" fill="#8C4343"/>
<path d="M461.99 205.25L474.99 212.75V227.75L461.99 235.25L449 227.75V212.75L461.99 205.25ZM451 213.9V226.6L461.99 232.94L472.99 226.59V213.9L461.99 207.56L451 213.9ZM448 211L460.98 203.5V196H458.98V202.35L448 208.69V210.99V211ZM448 229.5L460.98 237V245H458.98V238.15L448 231.81V229.51V229.5ZM463 196V203.5L475.99 211H476V208.69H475.99L465 202.35V196H463ZM463 245V237L475.99 229.5H476V231.81H475.99L465 238.15V245H463Z" fill="#8C4343"/>
<path d="M489.99 205.25L502.99 212.75V227.75L489.99 235.25L477 227.75V212.75L489.99 205.25ZM479 213.9V226.6L489.99 232.94L500.99 226.59V213.9L489.99 207.56L479 213.9ZM476 211L488.98 203.5V196H486.98V202.35L476 208.69V210.99V211ZM476 229.5L488.98 237V245H486.98V238.15L476 231.81V229.51V229.5ZM491 196V203.5L503.99 211H504V208.69H503.99L493 202.35V196H491ZM491 245V237L503.99 229.5H504V231.81H503.99L493 238.15V245H491Z" fill="#8C4343"/>
<path d="M13.99 254.25L26.99 261.75V276.75L13.99 284.25L1 276.75V261.75L13.99 254.25ZM3 262.9V275.6L13.99 281.94L24.99 275.59V262.9L13.99 256.56L3 262.9ZM0 260L12.98 252.5V245H10.98V251.35L0 257.69V259.99V260ZM0 278.5L12.98 286V294H10.98V287.15L0 280.81V278.51V278.5ZM15 245V252.5L27.99 260H28V257.69H27.99L17 251.35V245H15ZM15 294V286L27.99 278.5H28V280.81H27.99L17 287.15V294H15Z" fill="#8C4343"/>
<path d="M41.99 254.25L54.99 261.75V276.75L41.99 284.25L29 276.75V261.75L41.99 254.25ZM31 262.9V275.6L41.99 281.94L52.99 275.59V262.9L41.99 256.56L31 262.9ZM28 260L40.98 252.5V245H38.98V251.35L28 257.69V259.99V260ZM28 278.5L40.98 286V294H38.98V287.15L28 280.81V278.51V278.5ZM43 245V252.5L55.99 260H56V257.69H55.99L45 251.35V245H43ZM43 294V286L55.99 278.5H56V280.81H55.99L45 287.15V294H43Z" fill="#8C4343"/>
<path d="M69.99 254.25L82.99 261.75V276.75L69.99 284.25L57 276.75V261.75L69.99 254.25ZM59 262.9V275.6L69.99 281.94L80.99 275.59V262.9L69.99 256.56L59 262.9ZM56 260L68.98 252.5V245H66.98V251.35L56 257.69V259.99V260ZM56 278.5L68.98 286V294H66.98V287.15L56 280.81V278.51V278.5ZM71 245V252.5L83.99 260H84V257.69H83.99L73 251.35V245H71ZM71 294V286L83.99 278.5H84V280.81H83.99L73 287.15V294H71Z" fill="#8C4343"/>
<path d="M97.99 254.25L110.99 261.75V276.75L97.99 284.25L85 276.75V261.75L97.99 254.25ZM87 262.9V275.6L97.99 281.94L108.99 275.59V262.9L97.99 256.56L87 262.9ZM84 260L96.98 252.5V245H94.98V251.35L84 257.69V259.99V260ZM84 278.5L96.98 286V294H94.98V287.15L84 280.81V278.51V278.5ZM99 245V252.5L111.99 260H112V257.69H111.99L101 251.35V245H99ZM99 294V286L111.99 278.5H112V280.81H111.99L101 287.15V294H99Z" fill="#8C4343"/>
<path d="M125.99 254.25L138.99 261.75V276.75L125.99 284.25L113 276.75V261.75L125.99 254.25ZM115 262.9V275.6L125.99 281.94L136.99 275.59V262.9L125.99 256.56L115 262.9ZM112 260L124.98 252.5V245H122.98V251.35L112 257.69V259.99V260ZM112 278.5L124.98 286V294H122.98V287.15L112 280.81V278.51V278.5ZM127 245V252.5L139.99 260H140V257.69H139.99L129 251.35V245H127ZM127 294V286L139.99 278.5H140V280.81H139.99L129 287.15V294H127Z" fill="#8C4343"/>
<path d="M153.99 254.25L166.99 261.75V276.75L153.99 284.25L141 276.75V261.75L153.99 254.25ZM143 262.9V275.6L153.99 281.94L164.99 275.59V262.9L153.99 256.56L143 262.9ZM140 260L152.98 252.5V245H150.98V251.35L140 257.69V259.99V260ZM140 278.5L152.98 286V294H150.98V287.15L140 280.81V278.51V278.5ZM155 245V252.5L167.99 260H168V257.69H167.99L157 251.35V245H155ZM155 294V286L167.99 278.5H168V280.81H167.99L157 287.15V294H155Z" fill="#8C4343"/>
<path d="M181.99 254.25L194.99 261.75V276.75L181.99 284.25L169 276.75V261.75L181.99 254.25ZM171 262.9V275.6L181.99 281.94L192.99 275.59V262.9L181.99 256.56L171 262.9ZM168 260L180.98 252.5V245H178.98V251.35L168 257.69V259.99V260ZM168 278.5L180.98 286V294H178.98V287.15L168 280.81V278.51V278.5ZM183 245V252.5L195.99 260H196V257.69H195.99L185 251.35V245H183ZM183 294V286L195.99 278.5H196V280.81H195.99L185 287.15V294H183Z" fill="#8C4343"/>
<path d="M209.99 254.25L222.99 261.75V276.75L209.99 284.25L197 276.75V261.75L209.99 254.25ZM199 262.9V275.6L209.99 281.94L220.99 275.59V262.9L209.99 256.56L199 262.9ZM196 260L208.98 252.5V245H206.98V251.35L196 257.69V259.99V260ZM196 278.5L208.98 286V294H206.98V287.15L196 280.81V278.51V278.5ZM211 245V252.5L223.99 260H224V257.69H223.99L213 251.35V245H211ZM211 294V286L223.99 278.5H224V280.81H223.99L213 287.15V294H211Z" fill="#8C4343"/>
<path d="M237.99 254.25L250.99 261.75V276.75L237.99 284.25L225 276.75V261.75L237.99 254.25ZM227 262.9V275.6L237.99 281.94L248.99 275.59V262.9L237.99 256.56L227 262.9ZM224 260L236.98 252.5V245H234.98V251.35L224 257.69V259.99V260ZM224 278.5L236.98 286V294H234.98V287.15L224 280.81V278.51V278.5ZM239 245V252.5L251.99 260H252V257.69H251.99L241 251.35V245H239ZM239 294V286L251.99 278.5H252V280.81H251.99L241 287.15V294H239Z" fill="#8C4343"/>
<path d="M265.99 254.25L278.99 261.75V276.75L265.99 284.25L253 276.75V261.75L265.99 254.25ZM255 262.9V275.6L265.99 281.94L276.99 275.59V262.9L265.99 256.56L255 262.9ZM252 260L264.98 252.5V245H262.98V251.35L252 257.69V259.99V260ZM252 278.5L264.98 286V294H262.98V287.15L252 280.81V278.51V278.5ZM267 245V252.5L279.99 260H280V257.69H279.99L269 251.35V245H267ZM267 294V286L279.99 278.5H280V280.81H279.99L269 287.15V294H267Z" fill="#8C4343"/>
<path d="M293.99 254.25L306.99 261.75V276.75L293.99 284.25L281 276.75V261.75L293.99 254.25ZM283 262.9V275.6L293.99 281.94L304.99 275.59V262.9L293.99 256.56L283 262.9ZM280 260L292.98 252.5V245H290.98V251.35L280 257.69V259.99V260ZM280 278.5L292.98 286V294H290.98V287.15L280 280.81V278.51V278.5ZM295 245V252.5L307.99 260H308V257.69H307.99L297 251.35V245H295ZM295 294V286L307.99 278.5H308V280.81H307.99L297 287.15V294H295Z" fill="#8C4343"/>
<path d="M321.99 254.25L334.99 261.75V276.75L321.99 284.25L309 276.75V261.75L321.99 254.25ZM311 262.9V275.6L321.99 281.94L332.99 275.59V262.9L321.99 256.56L311 262.9ZM308 260L320.98 252.5V245H318.98V251.35L308 257.69V259.99V260ZM308 278.5L320.98 286V294H318.98V287.15L308 280.81V278.51V278.5ZM323 245V252.5L335.99 260H336V257.69H335.99L325 251.35V245H323ZM323 294V286L335.99 278.5H336V280.81H335.99L325 287.15V294H323Z" fill="#8C4343"/>
<path d="M349.99 254.25L362.99 261.75V276.75L349.99 284.25L337 276.75V261.75L349.99 254.25ZM339 262.9V275.6L349.99 281.94L360.99 275.59V262.9L349.99 256.56L339 262.9ZM336 260L348.98 252.5V245H346.98V251.35L336 257.69V259.99V260ZM336 278.5L348.98 286V294H346.98V287.15L336 280.81V278.51V278.5ZM351 245V252.5L363.99 260H364V257.69H363.99L353 251.35V245H351ZM351 294V286L363.99 278.5H364V280.81H363.99L353 287.15V294H351Z" fill="#8C4343"/>
<path d="M377.99 254.25L390.99 261.75V276.75L377.99 284.25L365 276.75V261.75L377.99 254.25ZM367 262.9V275.6L377.99 281.94L388.99 275.59V262.9L377.99 256.56L367 262.9ZM364 260L376.98 252.5V245H374.98V251.35L364 257.69V259.99V260ZM364 278.5L376.98 286V294H374.98V287.15L364 280.81V278.51V278.5ZM379 245V252.5L391.99 260H392V257.69H391.99L381 251.35V245H379ZM379 294V286L391.99 278.5H392V280.81H391.99L381 287.15V294H379Z" fill="#8C4343"/>
<path d="M405.99 254.25L418.99 261.75V276.75L405.99 284.25L393 276.75V261.75L405.99 254.25ZM395 262.9V275.6L405.99 281.94L416.99 275.59V262.9L405.99 256.56L395 262.9ZM392 260L404.98 252.5V245H402.98V251.35L392 257.69V259.99V260ZM392 278.5L404.98 286V294H402.98V287.15L392 280.81V278.51V278.5ZM407 245V252.5L419.99 260H420V257.69H419.99L409 251.35V245H407ZM407 294V286L419.99 278.5H420V280.81H419.99L409 287.15V294H407Z" fill="#8C4343"/>
<path d="M433.99 254.25L446.99 261.75V276.75L433.99 284.25L421 276.75V261.75L433.99 254.25ZM423 262.9V275.6L433.99 281.94L444.99 275.59V262.9L433.99 256.56L423 262.9ZM420 260L432.98 252.5V245H430.98V251.35L420 257.69V259.99V260ZM420 278.5L432.98 286V294H430.98V287.15L420 280.81V278.51V278.5ZM435 245V252.5L447.99 260H448V257.69H447.99L437 251.35V245H435ZM435 294V286L447.99 278.5H448V280.81H447.99L437 287.15V294H435Z" fill="#8C4343"/>
<path d="M461.99 254.25L474.99 261.75V276.75L461.99 284.25L449 276.75V261.75L461.99 254.25ZM451 262.9V275.6L461.99 281.94L472.99 275.59V262.9L461.99 256.56L451 262.9ZM448 260L460.98 252.5V245H458.98V251.35L448 257.69V259.99V260ZM448 278.5L460.98 286V294H458.98V287.15L448 280.81V278.51V278.5ZM463 245V252.5L475.99 260H476V257.69H475.99L465 251.35V245H463ZM463 294V286L475.99 278.5H476V280.81H475.99L465 287.15V294H463Z" fill="#8C4343"/>
<path d="M489.99 254.25L502.99 261.75V276.75L489.99 284.25L477 276.75V261.75L489.99 254.25ZM479 262.9V275.6L489.99 281.94L500.99 275.59V262.9L489.99 256.56L479 262.9ZM476 260L488.98 252.5V245H486.98V251.35L476 257.69V259.99V260ZM476 278.5L488.98 286V294H486.98V287.15L476 280.81V278.51V278.5ZM491 245V252.5L503.99 260H504V257.69H503.99L493 251.35V245H491ZM491 294V286L503.99 278.5H504V280.81H503.99L493 287.15V294H491Z" fill="#8C4343"/>
<path d="M13.99 303.25L26.99 310.75V325.75L13.99 333.25L1 325.75V310.75L13.99 303.25ZM3 311.9V324.6L13.99 330.94L24.99 324.59V311.9L13.99 305.56L3 311.9ZM0 309L12.98 301.5V294H10.98V300.35L0 306.69V308.99V309ZM0 327.5L12.98 335V343H10.98V336.15L0 329.81V327.51V327.5ZM15 294V301.5L27.99 309H28V306.69H27.99L17 300.35V294H15ZM15 343V335L27.99 327.5H28V329.81H27.99L17 336.15V343H15Z" fill="#8C4343"/>
<path d="M41.99 303.25L54.99 310.75V325.75L41.99 333.25L29 325.75V310.75L41.99 303.25ZM31 311.9V324.6L41.99 330.94L52.99 324.59V311.9L41.99 305.56L31 311.9ZM28 309L40.98 301.5V294H38.98V300.35L28 306.69V308.99V309ZM28 327.5L40.98 335V343H38.98V336.15L28 329.81V327.51V327.5ZM43 294V301.5L55.99 309H56V306.69H55.99L45 300.35V294H43ZM43 343V335L55.99 327.5H56V329.81H55.99L45 336.15V343H43Z" fill="#8C4343"/>
<path d="M69.99 303.25L82.99 310.75V325.75L69.99 333.25L57 325.75V310.75L69.99 303.25ZM59 311.9V324.6L69.99 330.94L80.99 324.59V311.9L69.99 305.56L59 311.9ZM56 309L68.98 301.5V294H66.98V300.35L56 306.69V308.99V309ZM56 327.5L68.98 335V343H66.98V336.15L56 329.81V327.51V327.5ZM71 294V301.5L83.99 309H84V306.69H83.99L73 300.35V294H71ZM71 343V335L83.99 327.5H84V329.81H83.99L73 336.15V343H71Z" fill="#8C4343"/>
<path d="M97.99 303.25L110.99 310.75V325.75L97.99 333.25L85 325.75V310.75L97.99 303.25ZM87 311.9V324.6L97.99 330.94L108.99 324.59V311.9L97.99 305.56L87 311.9ZM84 309L96.98 301.5V294H94.98V300.35L84 306.69V308.99V309ZM84 327.5L96.98 335V343H94.98V336.15L84 329.81V327.51V327.5ZM99 294V301.5L111.99 309H112V306.69H111.99L101 300.35V294H99ZM99 343V335L111.99 327.5H112V329.81H111.99L101 336.15V343H99Z" fill="#8C4343"/>
<path d="M125.99 303.25L138.99 310.75V325.75L125.99 333.25L113 325.75V310.75L125.99 303.25ZM115 311.9V324.6L125.99 330.94L136.99 324.59V311.9L125.99 305.56L115 311.9ZM112 309L124.98 301.5V294H122.98V300.35L112 306.69V308.99V309ZM112 327.5L124.98 335V343H122.98V336.15L112 329.81V327.51V327.5ZM127 294V301.5L139.99 309H140V306.69H139.99L129 300.35V294H127ZM127 343V335L139.99 327.5H140V329.81H139.99L129 336.15V343H127Z" fill="#8C4343"/>
<path d="M153.99 303.25L166.99 310.75V325.75L153.99 333.25L141 325.75V310.75L153.99 303.25ZM143 311.9V324.6L153.99 330.94L164.99 324.59V311.9L153.99 305.56L143 311.9ZM140 309L152.98 301.5V294H150.98V300.35L140 306.69V308.99V309ZM140 327.5L152.98 335V343H150.98V336.15L140 329.81V327.51V327.5ZM155 294V301.5L167.99 309H168V306.69H167.99L157 300.35V294H155ZM155 343V335L167.99 327.5H168V329.81H167.99L157 336.15V343H155Z" fill="#8C4343"/>
<path d="M181.99 303.25L194.99 310.75V325.75L181.99 333.25L169 325.75V310.75L181.99 303.25ZM171 311.9V324.6L181.99 330.94L192.99 324.59V311.9L181.99 305.56L171 311.9ZM168 309L180.98 301.5V294H178.98V300.35L168 306.69V308.99V309ZM168 327.5L180.98 335V343H178.98V336.15L168 329.81V327.51V327.5ZM183 294V301.5L195.99 309H196V306.69H195.99L185 300.35V294H183ZM183 343V335L195.99 327.5H196V329.81H195.99L185 336.15V343H183Z" fill="#8C4343"/>
<path d="M209.99 303.25L222.99 310.75V325.75L209.99 333.25L197 325.75V310.75L209.99 303.25ZM199 311.9V324.6L209.99 330.94L220.99 324.59V311.9L209.99 305.56L199 311.9ZM196 309L208.98 301.5V294H206.98V300.35L196 306.69V308.99V309ZM196 327.5L208.98 335V343H206.98V336.15L196 329.81V327.51V327.5ZM211 294V301.5L223.99 309H224V306.69H223.99L213 300.35V294H211ZM211 343V335L223.99 327.5H224V329.81H223.99L213 336.15V343H211Z" fill="#8C4343"/>
<path d="M237.99 303.25L250.99 310.75V325.75L237.99 333.25L225 325.75V310.75L237.99 303.25ZM227 311.9V324.6L237.99 330.94L248.99 324.59V311.9L237.99 305.56L227 311.9ZM224 309L236.98 301.5V294H234.98V300.35L224 306.69V308.99V309ZM224 327.5L236.98 335V343H234.98V336.15L224 329.81V327.51V327.5ZM239 294V301.5L251.99 309H252V306.69H251.99L241 300.35V294H239ZM239 343V335L251.99 327.5H252V329.81H251.99L241 336.15V343H239Z" fill="#8C4343"/>
<path d="M265.99 303.25L278.99 310.75V325.75L265.99 333.25L253 325.75V310.75L265.99 303.25ZM255 311.9V324.6L265.99 330.94L276.99 324.59V311.9L265.99 305.56L255 311.9ZM252 309L264.98 301.5V294H262.98V300.35L252 306.69V308.99V309ZM252 327.5L264.98 335V343H262.98V336.15L252 329.81V327.51V327.5ZM267 294V301.5L279.99 309H280V306.69H279.99L269 300.35V294H267ZM267 343V335L279.99 327.5H280V329.81H279.99L269 336.15V343H267Z" fill="#8C4343"/>
<path d="M293.99 303.25L306.99 310.75V325.75L293.99 333.25L281 325.75V310.75L293.99 303.25ZM283 311.9V324.6L293.99 330.94L304.99 324.59V311.9L293.99 305.56L283 311.9ZM280 309L292.98 301.5V294H290.98V300.35L280 306.69V308.99V309ZM280 327.5L292.98 335V343H290.98V336.15L280 329.81V327.51V327.5ZM295 294V301.5L307.99 309H308V306.69H307.99L297 300.35V294H295ZM295 343V335L307.99 327.5H308V329.81H307.99L297 336.15V343H295Z" fill="#8C4343"/>
<path d="M321.99 303.25L334.99 310.75V325.75L321.99 333.25L309 325.75V310.75L321.99 303.25ZM311 311.9V324.6L321.99 330.94L332.99 324.59V311.9L321.99 305.56L311 311.9ZM308 309L320.98 301.5V294H318.98V300.35L308 306.69V308.99V309ZM308 327.5L320.98 335V343H318.98V336.15L308 329.81V327.51V327.5ZM323 294V301.5L335.99 309H336V306.69H335.99L325 300.35V294H323ZM323 343V335L335.99 327.5H336V329.81H335.99L325 336.15V343H323Z" fill="#8C4343"/>
<path d="M349.99 303.25L362.99 310.75V325.75L349.99 333.25L337 325.75V310.75L349.99 303.25ZM339 311.9V324.6L349.99 330.94L360.99 324.59V311.9L349.99 305.56L339 311.9ZM336 309L348.98 301.5V294H346.98V300.35L336 306.69V308.99V309ZM336 327.5L348.98 335V343H346.98V336.15L336 329.81V327.51V327.5ZM351 294V301.5L363.99 309H364V306.69H363.99L353 300.35V294H351ZM351 343V335L363.99 327.5H364V329.81H363.99L353 336.15V343H351Z" fill="#8C4343"/>
<path d="M377.99 303.25L390.99 310.75V325.75L377.99 333.25L365 325.75V310.75L377.99 303.25ZM367 311.9V324.6L377.99 330.94L388.99 324.59V311.9L377.99 305.56L367 311.9ZM364 309L376.98 301.5V294H374.98V300.35L364 306.69V308.99V309ZM364 327.5L376.98 335V343H374.98V336.15L364 329.81V327.51V327.5ZM379 294V301.5L391.99 309H392V306.69H391.99L381 300.35V294H379ZM379 343V335L391.99 327.5H392V329.81H391.99L381 336.15V343H379Z" fill="#8C4343"/>
<path d="M405.99 303.25L418.99 310.75V325.75L405.99 333.25L393 325.75V310.75L405.99 303.25ZM395 311.9V324.6L405.99 330.94L416.99 324.59V311.9L405.99 305.56L395 311.9ZM392 309L404.98 301.5V294H402.98V300.35L392 306.69V308.99V309ZM392 327.5L404.98 335V343H402.98V336.15L392 329.81V327.51V327.5ZM407 294V301.5L419.99 309H420V306.69H419.99L409 300.35V294H407ZM407 343V335L419.99 327.5H420V329.81H419.99L409 336.15V343H407Z" fill="#8C4343"/>
<path d="M433.99 303.25L446.99 310.75V325.75L433.99 333.25L421 325.75V310.75L433.99 303.25ZM423 311.9V324.6L433.99 330.94L444.99 324.59V311.9L433.99 305.56L423 311.9ZM420 309L432.98 301.5V294H430.98V300.35L420 306.69V308.99V309ZM420 327.5L432.98 335V343H430.98V336.15L420 329.81V327.51V327.5ZM435 294V301.5L447.99 309H448V306.69H447.99L437 300.35V294H435ZM435 343V335L447.99 327.5H448V329.81H447.99L437 336.15V343H435Z" fill="#8C4343"/>
<path d="M461.99 303.25L474.99 310.75V325.75L461.99 333.25L449 325.75V310.75L461.99 303.25ZM451 311.9V324.6L461.99 330.94L472.99 324.59V311.9L461.99 305.56L451 311.9ZM448 309L460.98 301.5V294H458.98V300.35L448 306.69V308.99V309ZM448 327.5L460.98 335V343H458.98V336.15L448 329.81V327.51V327.5ZM463 294V301.5L475.99 309H476V306.69H475.99L465 300.35V294H463ZM463 343V335L475.99 327.5H476V329.81H475.99L465 336.15V343H463Z" fill="#8C4343"/>
<path d="M489.99 303.25L502.99 310.75V325.75L489.99 333.25L477 325.75V310.75L489.99 303.25ZM479 311.9V324.6L489.99 330.94L500.99 324.59V311.9L489.99 305.56L479 311.9ZM476 309L488.98 301.5V294H486.98V300.35L476 306.69V308.99V309ZM476 327.5L488.98 335V343H486.98V336.15L476 329.81V327.51V327.5ZM491 294V301.5L503.99 309H504V306.69H503.99L493 300.35V294H491ZM491 343V335L503.99 327.5H504V329.81H503.99L493 336.15V343H491Z" fill="#8C4343"/>
<path d="M13.99 352.25L26.99 359.75V374.75L13.99 382.25L1 374.75V359.75L13.99 352.25ZM3 360.9V373.6L13.99 379.94L24.99 373.59V360.9L13.99 354.56L3 360.9ZM0 358L12.98 350.5V343H10.98V349.35L0 355.69V357.99V358ZM0 376.5L12.98 384V392H10.98V385.15L0 378.81V376.51V376.5ZM15 343V350.5L27.99 358H28V355.69H27.99L17 349.35V343H15ZM15 392V384L27.99 376.5H28V378.81H27.99L17 385.15V392H15Z" fill="#8C4343"/>
<path d="M41.99 352.25L54.99 359.75V374.75L41.99 382.25L29 374.75V359.75L41.99 352.25ZM31 360.9V373.6L41.99 379.94L52.99 373.59V360.9L41.99 354.56L31 360.9ZM28 358L40.98 350.5V343H38.98V349.35L28 355.69V357.99V358ZM28 376.5L40.98 384V392H38.98V385.15L28 378.81V376.51V376.5ZM43 343V350.5L55.99 358H56V355.69H55.99L45 349.35V343H43ZM43 392V384L55.99 376.5H56V378.81H55.99L45 385.15V392H43Z" fill="#8C4343"/>
<path d="M69.99 352.25L82.99 359.75V374.75L69.99 382.25L57 374.75V359.75L69.99 352.25ZM59 360.9V373.6L69.99 379.94L80.99 373.59V360.9L69.99 354.56L59 360.9ZM56 358L68.98 350.5V343H66.98V349.35L56 355.69V357.99V358ZM56 376.5L68.98 384V392H66.98V385.15L56 378.81V376.51V376.5ZM71 343V350.5L83.99 358H84V355.69H83.99L73 349.35V343H71ZM71 392V384L83.99 376.5H84V378.81H83.99L73 385.15V392H71Z" fill="#8C4343"/>
<path d="M97.99 352.25L110.99 359.75V374.75L97.99 382.25L85 374.75V359.75L97.99 352.25ZM87 360.9V373.6L97.99 379.94L108.99 373.59V360.9L97.99 354.56L87 360.9ZM84 358L96.98 350.5V343H94.98V349.35L84 355.69V357.99V358ZM84 376.5L96.98 384V392H94.98V385.15L84 378.81V376.51V376.5ZM99 343V350.5L111.99 358H112V355.69H111.99L101 349.35V343H99ZM99 392V384L111.99 376.5H112V378.81H111.99L101 385.15V392H99Z" fill="#8C4343"/>
<path d="M125.99 352.25L138.99 359.75V374.75L125.99 382.25L113 374.75V359.75L125.99 352.25ZM115 360.9V373.6L125.99 379.94L136.99 373.59V360.9L125.99 354.56L115 360.9ZM112 358L124.98 350.5V343H122.98V349.35L112 355.69V357.99V358ZM112 376.5L124.98 384V392H122.98V385.15L112 378.81V376.51V376.5ZM127 343V350.5L139.99 358H140V355.69H139.99L129 349.35V343H127ZM127 392V384L139.99 376.5H140V378.81H139.99L129 385.15V392H127Z" fill="#8C4343"/>
<path d="M153.99 352.25L166.99 359.75V374.75L153.99 382.25L141 374.75V359.75L153.99 352.25ZM143 360.9V373.6L153.99 379.94L164.99 373.59V360.9L153.99 354.56L143 360.9ZM140 358L152.98 350.5V343H150.98V349.35L140 355.69V357.99V358ZM140 376.5L152.98 384V392H150.98V385.15L140 378.81V376.51V376.5ZM155 343V350.5L167.99 358H168V355.69H167.99L157 349.35V343H155ZM155 392V384L167.99 376.5H168V378.81H167.99L157 385.15V392H155Z" fill="#8C4343"/>
<path d="M181.99 352.25L194.99 359.75V374.75L181.99 382.25L169 374.75V359.75L181.99 352.25ZM171 360.9V373.6L181.99 379.94L192.99 373.59V360.9L181.99 354.56L171 360.9ZM168 358L180.98 350.5V343H178.98V349.35L168 355.69V357.99V358ZM168 376.5L180.98 384V392H178.98V385.15L168 378.81V376.51V376.5ZM183 343V350.5L195.99 358H196V355.69H195.99L185 349.35V343H183ZM183 392V384L195.99 376.5H196V378.81H195.99L185 385.15V392H183Z" fill="#8C4343"/>
<path d="M209.99 352.25L222.99 359.75V374.75L209.99 382.25L197 374.75V359.75L209.99 352.25ZM199 360.9V373.6L209.99 379.94L220.99 373.59V360.9L209.99 354.56L199 360.9ZM196 358L208.98 350.5V343H206.98V349.35L196 355.69V357.99V358ZM196 376.5L208.98 384V392H206.98V385.15L196 378.81V376.51V376.5ZM211 343V350.5L223.99 358H224V355.69H223.99L213 349.35V343H211ZM211 392V384L223.99 376.5H224V378.81H223.99L213 385.15V392H211Z" fill="#8C4343"/>
<path d="M237.99 352.25L250.99 359.75V374.75L237.99 382.25L225 374.75V359.75L237.99 352.25ZM227 360.9V373.6L237.99 379.94L248.99 373.59V360.9L237.99 354.56L227 360.9ZM224 358L236.98 350.5V343H234.98V349.35L224 355.69V357.99V358ZM224 376.5L236.98 384V392H234.98V385.15L224 378.81V376.51V376.5ZM239 343V350.5L251.99 358H252V355.69H251.99L241 349.35V343H239ZM239 392V384L251.99 376.5H252V378.81H251.99L241 385.15V392H239Z" fill="#8C4343"/>
<path d="M265.99 352.25L278.99 359.75V374.75L265.99 382.25L253 374.75V359.75L265.99 352.25ZM255 360.9V373.6L265.99 379.94L276.99 373.59V360.9L265.99 354.56L255 360.9ZM252 358L264.98 350.5V343H262.98V349.35L252 355.69V357.99V358ZM252 376.5L264.98 384V392H262.98V385.15L252 378.81V376.51V376.5ZM267 343V350.5L279.99 358H280V355.69H279.99L269 349.35V343H267ZM267 392V384L279.99 376.5H280V378.81H279.99L269 385.15V392H267Z" fill="#8C4343"/>
<path d="M293.99 352.25L306.99 359.75V374.75L293.99 382.25L281 374.75V359.75L293.99 352.25ZM283 360.9V373.6L293.99 379.94L304.99 373.59V360.9L293.99 354.56L283 360.9ZM280 358L292.98 350.5V343H290.98V349.35L280 355.69V357.99V358ZM280 376.5L292.98 384V392H290.98V385.15L280 378.81V376.51V376.5ZM295 343V350.5L307.99 358H308V355.69H307.99L297 349.35V343H295ZM295 392V384L307.99 376.5H308V378.81H307.99L297 385.15V392H295Z" fill="#8C4343"/>
<path d="M321.99 352.25L334.99 359.75V374.75L321.99 382.25L309 374.75V359.75L321.99 352.25ZM311 360.9V373.6L321.99 379.94L332.99 373.59V360.9L321.99 354.56L311 360.9ZM308 358L320.98 350.5V343H318.98V349.35L308 355.69V357.99V358ZM308 376.5L320.98 384V392H318.98V385.15L308 378.81V376.51V376.5ZM323 343V350.5L335.99 358H336V355.69H335.99L325 349.35V343H323ZM323 392V384L335.99 376.5H336V378.81H335.99L325 385.15V392H323Z" fill="#8C4343"/>
<path d="M349.99 352.25L362.99 359.75V374.75L349.99 382.25L337 374.75V359.75L349.99 352.25ZM339 360.9V373.6L349.99 379.94L360.99 373.59V360.9L349.99 354.56L339 360.9ZM336 358L348.98 350.5V343H346.98V349.35L336 355.69V357.99V358ZM336 376.5L348.98 384V392H346.98V385.15L336 378.81V376.51V376.5ZM351 343V350.5L363.99 358H364V355.69H363.99L353 349.35V343H351ZM351 392V384L363.99 376.5H364V378.81H363.99L353 385.15V392H351Z" fill="#8C4343"/>
<path d="M377.99 352.25L390.99 359.75V374.75L377.99 382.25L365 374.75V359.75L377.99 352.25ZM367 360.9V373.6L377.99 379.94L388.99 373.59V360.9L377.99 354.56L367 360.9ZM364 358L376.98 350.5V343H374.98V349.35L364 355.69V357.99V358ZM364 376.5L376.98 384V392H374.98V385.15L364 378.81V376.51V376.5ZM379 343V350.5L391.99 358H392V355.69H391.99L381 349.35V343H379ZM379 392V384L391.99 376.5H392V378.81H391.99L381 385.15V392H379Z" fill="#8C4343"/>
<path d="M405.99 352.25L418.99 359.75V374.75L405.99 382.25L393 374.75V359.75L405.99 352.25ZM395 360.9V373.6L405.99 379.94L416.99 373.59V360.9L405.99 354.56L395 360.9ZM392 358L404.98 350.5V343H402.98V349.35L392 355.69V357.99V358ZM392 376.5L404.98 384V392H402.98V385.15L392 378.81V376.51V376.5ZM407 343V350.5L419.99 358H420V355.69H419.99L409 349.35V343H407ZM407 392V384L419.99 376.5H420V378.81H419.99L409 385.15V392H407Z" fill="#8C4343"/>
<path d="M433.99 352.25L446.99 359.75V374.75L433.99 382.25L421 374.75V359.75L433.99 352.25ZM423 360.9V373.6L433.99 379.94L444.99 373.59V360.9L433.99 354.56L423 360.9ZM420 358L432.98 350.5V343H430.98V349.35L420 355.69V357.99V358ZM420 376.5L432.98 384V392H430.98V385.15L420 378.81V376.51V376.5ZM435 343V350.5L447.99 358H448V355.69H447.99L437 349.35V343H435ZM435 392V384L447.99 376.5H448V378.81H447.99L437 385.15V392H435Z" fill="#8C4343"/>
<path d="M461.99 352.25L474.99 359.75V374.75L461.99 382.25L449 374.75V359.75L461.99 352.25ZM451 360.9V373.6L461.99 379.94L472.99 373.59V360.9L461.99 354.56L451 360.9ZM448 358L460.98 350.5V343H458.98V349.35L448 355.69V357.99V358ZM448 376.5L460.98 384V392H458.98V385.15L448 378.81V376.51V376.5ZM463 343V350.5L475.99 358H476V355.69H475.99L465 349.35V343H463ZM463 392V384L475.99 376.5H476V378.81H475.99L465 385.15V392H463Z" fill="#8C4343"/>
<path d="M489.99 352.25L502.99 359.75V374.75L489.99 382.25L477 374.75V359.75L489.99 352.25ZM479 360.9V373.6L489.99 379.94L500.99 373.59V360.9L489.99 354.56L479 360.9ZM476 358L488.98 350.5V343H486.98V349.35L476 355.69V357.99V358ZM476 376.5L488.98 384V392H486.98V385.15L476 378.81V376.51V376.5ZM491 343V350.5L503.99 358H504V355.69H503.99L493 349.35V343H491ZM491 392V384L503.99 376.5H504V378.81H503.99L493 385.15V392H491Z" fill="#8C4343"/>
<path d="M13.99 401.25L26.99 408.75V423.75L13.99 431.25L1 423.75V408.75L13.99 401.25ZM3 409.9V422.6L13.99 428.94L24.99 422.59V409.9L13.99 403.56L3 409.9ZM0 407L12.98 399.5V392H10.98V398.35L0 404.69V406.99V407ZM0 425.5L12.98 433V441H10.98V434.15L0 427.81V425.51V425.5ZM15 392V399.5L27.99 407H28V404.69H27.99L17 398.35V392H15ZM15 441V433L27.99 425.5H28V427.81H27.99L17 434.15V441H15Z" fill="#8C4343"/>
<path d="M41.99 401.25L54.99 408.75V423.75L41.99 431.25L29 423.75V408.75L41.99 401.25ZM31 409.9V422.6L41.99 428.94L52.99 422.59V409.9L41.99 403.56L31 409.9ZM28 407L40.98 399.5V392H38.98V398.35L28 404.69V406.99V407ZM28 425.5L40.98 433V441H38.98V434.15L28 427.81V425.51V425.5ZM43 392V399.5L55.99 407H56V404.69H55.99L45 398.35V392H43ZM43 441V433L55.99 425.5H56V427.81H55.99L45 434.15V441H43Z" fill="#8C4343"/>
<path d="M69.99 401.25L82.99 408.75V423.75L69.99 431.25L57 423.75V408.75L69.99 401.25ZM59 409.9V422.6L69.99 428.94L80.99 422.59V409.9L69.99 403.56L59 409.9ZM56 407L68.98 399.5V392H66.98V398.35L56 404.69V406.99V407ZM56 425.5L68.98 433V441H66.98V434.15L56 427.81V425.51V425.5ZM71 392V399.5L83.99 407H84V404.69H83.99L73 398.35V392H71ZM71 441V433L83.99 425.5H84V427.81H83.99L73 434.15V441H71Z" fill="#8C4343"/>
<path d="M97.99 401.25L110.99 408.75V423.75L97.99 431.25L85 423.75V408.75L97.99 401.25ZM87 409.9V422.6L97.99 428.94L108.99 422.59V409.9L97.99 403.56L87 409.9ZM84 407L96.98 399.5V392H94.98V398.35L84 404.69V406.99V407ZM84 425.5L96.98 433V441H94.98V434.15L84 427.81V425.51V425.5ZM99 392V399.5L111.99 407H112V404.69H111.99L101 398.35V392H99ZM99 441V433L111.99 425.5H112V427.81H111.99L101 434.15V441H99Z" fill="#8C4343"/>
<path d="M125.99 401.25L138.99 408.75V423.75L125.99 431.25L113 423.75V408.75L125.99 401.25ZM115 409.9V422.6L125.99 428.94L136.99 422.59V409.9L125.99 403.56L115 409.9ZM112 407L124.98 399.5V392H122.98V398.35L112 404.69V406.99V407ZM112 425.5L124.98 433V441H122.98V434.15L112 427.81V425.51V425.5ZM127 392V399.5L139.99 407H140V404.69H139.99L129 398.35V392H127ZM127 441V433L139.99 425.5H140V427.81H139.99L129 434.15V441H127Z" fill="#8C4343"/>
<path d="M153.99 401.25L166.99 408.75V423.75L153.99 431.25L141 423.75V408.75L153.99 401.25ZM143 409.9V422.6L153.99 428.94L164.99 422.59V409.9L153.99 403.56L143 409.9ZM140 407L152.98 399.5V392H150.98V398.35L140 404.69V406.99V407ZM140 425.5L152.98 433V441H150.98V434.15L140 427.81V425.51V425.5ZM155 392V399.5L167.99 407H168V404.69H167.99L157 398.35V392H155ZM155 441V433L167.99 425.5H168V427.81H167.99L157 434.15V441H155Z" fill="#8C4343"/>
<path d="M181.99 401.25L194.99 408.75V423.75L181.99 431.25L169 423.75V408.75L181.99 401.25ZM171 409.9V422.6L181.99 428.94L192.99 422.59V409.9L181.99 403.56L171 409.9ZM168 407L180.98 399.5V392H178.98V398.35L168 404.69V406.99V407ZM168 425.5L180.98 433V441H178.98V434.15L168 427.81V425.51V425.5ZM183 392V399.5L195.99 407H196V404.69H195.99L185 398.35V392H183ZM183 441V433L195.99 425.5H196V427.81H195.99L185 434.15V441H183Z" fill="#8C4343"/>
<path d="M209.99 401.25L222.99 408.75V423.75L209.99 431.25L197 423.75V408.75L209.99 401.25ZM199 409.9V422.6L209.99 428.94L220.99 422.59V409.9L209.99 403.56L199 409.9ZM196 407L208.98 399.5V392H206.98V398.35L196 404.69V406.99V407ZM196 425.5L208.98 433V441H206.98V434.15L196 427.81V425.51V425.5ZM211 392V399.5L223.99 407H224V404.69H223.99L213 398.35V392H211ZM211 441V433L223.99 425.5H224V427.81H223.99L213 434.15V441H211Z" fill="#8C4343"/>
<path d="M237.99 401.25L250.99 408.75V423.75L237.99 431.25L225 423.75V408.75L237.99 401.25ZM227 409.9V422.6L237.99 428.94L248.99 422.59V409.9L237.99 403.56L227 409.9ZM224 407L236.98 399.5V392H234.98V398.35L224 404.69V406.99V407ZM224 425.5L236.98 433V441H234.98V434.15L224 427.81V425.51V425.5ZM239 392V399.5L251.99 407H252V404.69H251.99L241 398.35V392H239ZM239 441V433L251.99 425.5H252V427.81H251.99L241 434.15V441H239Z" fill="#8C4343"/>
<path d="M265.99 401.25L278.99 408.75V423.75L265.99 431.25L253 423.75V408.75L265.99 401.25ZM255 409.9V422.6L265.99 428.94L276.99 422.59V409.9L265.99 403.56L255 409.9ZM252 407L264.98 399.5V392H262.98V398.35L252 404.69V406.99V407ZM252 425.5L264.98 433V441H262.98V434.15L252 427.81V425.51V425.5ZM267 392V399.5L279.99 407H280V404.69H279.99L269 398.35V392H267ZM267 441V433L279.99 425.5H280V427.81H279.99L269 434.15V441H267Z" fill="#8C4343"/>
<path d="M293.99 401.25L306.99 408.75V423.75L293.99 431.25L281 423.75V408.75L293.99 401.25ZM283 409.9V422.6L293.99 428.94L304.99 422.59V409.9L293.99 403.56L283 409.9ZM280 407L292.98 399.5V392H290.98V398.35L280 404.69V406.99V407ZM280 425.5L292.98 433V441H290.98V434.15L280 427.81V425.51V425.5ZM295 392V399.5L307.99 407H308V404.69H307.99L297 398.35V392H295ZM295 441V433L307.99 425.5H308V427.81H307.99L297 434.15V441H295Z" fill="#8C4343"/>
<path d="M321.99 401.25L334.99 408.75V423.75L321.99 431.25L309 423.75V408.75L321.99 401.25ZM311 409.9V422.6L321.99 428.94L332.99 422.59V409.9L321.99 403.56L311 409.9ZM308 407L320.98 399.5V392H318.98V398.35L308 404.69V406.99V407ZM308 425.5L320.98 433V441H318.98V434.15L308 427.81V425.51V425.5ZM323 392V399.5L335.99 407H336V404.69H335.99L325 398.35V392H323ZM323 441V433L335.99 425.5H336V427.81H335.99L325 434.15V441H323Z" fill="#8C4343"/>
<path d="M349.99 401.25L362.99 408.75V423.75L349.99 431.25L337 423.75V408.75L349.99 401.25ZM339 409.9V422.6L349.99 428.94L360.99 422.59V409.9L349.99 403.56L339 409.9ZM336 407L348.98 399.5V392H346.98V398.35L336 404.69V406.99V407ZM336 425.5L348.98 433V441H346.98V434.15L336 427.81V425.51V425.5ZM351 392V399.5L363.99 407H364V404.69H363.99L353 398.35V392H351ZM351 441V433L363.99 425.5H364V427.81H363.99L353 434.15V441H351Z" fill="#8C4343"/>
<path d="M377.99 401.25L390.99 408.75V423.75L377.99 431.25L365 423.75V408.75L377.99 401.25ZM367 409.9V422.6L377.99 428.94L388.99 422.59V409.9L377.99 403.56L367 409.9ZM364 407L376.98 399.5V392H374.98V398.35L364 404.69V406.99V407ZM364 425.5L376.98 433V441H374.98V434.15L364 427.81V425.51V425.5ZM379 392V399.5L391.99 407H392V404.69H391.99L381 398.35V392H379ZM379 441V433L391.99 425.5H392V427.81H391.99L381 434.15V441H379Z" fill="#8C4343"/>
<path d="M405.99 401.25L418.99 408.75V423.75L405.99 431.25L393 423.75V408.75L405.99 401.25ZM395 409.9V422.6L405.99 428.94L416.99 422.59V409.9L405.99 403.56L395 409.9ZM392 407L404.98 399.5V392H402.98V398.35L392 404.69V406.99V407ZM392 425.5L404.98 433V441H402.98V434.15L392 427.81V425.51V425.5ZM407 392V399.5L419.99 407H420V404.69H419.99L409 398.35V392H407ZM407 441V433L419.99 425.5H420V427.81H419.99L409 434.15V441H407Z" fill="#8C4343"/>
<path d="M433.99 401.25L446.99 408.75V423.75L433.99 431.25L421 423.75V408.75L433.99 401.25ZM423 409.9V422.6L433.99 428.94L444.99 422.59V409.9L433.99 403.56L423 409.9ZM420 407L432.98 399.5V392H430.98V398.35L420 404.69V406.99V407ZM420 425.5L432.98 433V441H430.98V434.15L420 427.81V425.51V425.5ZM435 392V399.5L447.99 407H448V404.69H447.99L437 398.35V392H435ZM435 441V433L447.99 425.5H448V427.81H447.99L437 434.15V441H435Z" fill="#8C4343"/>
<path d="M461.99 401.25L474.99 408.75V423.75L461.99 431.25L449 423.75V408.75L461.99 401.25ZM451 409.9V422.6L461.99 428.94L472.99 422.59V409.9L461.99 403.56L451 409.9ZM448 407L460.98 399.5V392H458.98V398.35L448 404.69V406.99V407ZM448 425.5L460.98 433V441H458.98V434.15L448 427.81V425.51V425.5ZM463 392V399.5L475.99 407H476V404.69H475.99L465 398.35V392H463ZM463 441V433L475.99 425.5H476V427.81H475.99L465 434.15V441H463Z" fill="#8C4343"/>
<path d="M489.99 401.25L502.99 408.75V423.75L489.99 431.25L477 423.75V408.75L489.99 401.25ZM479 409.9V422.6L489.99 428.94L500.99 422.59V409.9L489.99 403.56L479 409.9ZM476 407L488.98 399.5V392H486.98V398.35L476 404.69V406.99V407ZM476 425.5L488.98 433V441H486.98V434.15L476 427.81V425.51V425.5ZM491 392V399.5L503.99 407H504V404.69H503.99L493 398.35V392H491ZM491 441V433L503.99 425.5H504V427.81H503.99L493 434.15V441H491Z" fill="#8C4343"/>
<path d="M13.99 450.25L26.99 457.75V472.75L13.99 480.25L1 472.75V457.75L13.99 450.25ZM3 458.9V471.6L13.99 477.94L24.99 471.59V458.9L13.99 452.56L3 458.9ZM0 456L12.98 448.5V441H10.98V447.35L0 453.69V455.99V456ZM0 474.5L12.98 482V490H10.98V483.15L0 476.81V474.51V474.5ZM15 441V448.5L27.99 456H28V453.69H27.99L17 447.35V441H15ZM15 490V482L27.99 474.5H28V476.81H27.99L17 483.15V490H15Z" fill="#8C4343"/>
<path d="M41.99 450.25L54.99 457.75V472.75L41.99 480.25L29 472.75V457.75L41.99 450.25ZM31 458.9V471.6L41.99 477.94L52.99 471.59V458.9L41.99 452.56L31 458.9ZM28 456L40.98 448.5V441H38.98V447.35L28 453.69V455.99V456ZM28 474.5L40.98 482V490H38.98V483.15L28 476.81V474.51V474.5ZM43 441V448.5L55.99 456H56V453.69H55.99L45 447.35V441H43ZM43 490V482L55.99 474.5H56V476.81H55.99L45 483.15V490H43Z" fill="#8C4343"/>
<path d="M69.99 450.25L82.99 457.75V472.75L69.99 480.25L57 472.75V457.75L69.99 450.25ZM59 458.9V471.6L69.99 477.94L80.99 471.59V458.9L69.99 452.56L59 458.9ZM56 456L68.98 448.5V441H66.98V447.35L56 453.69V455.99V456ZM56 474.5L68.98 482V490H66.98V483.15L56 476.81V474.51V474.5ZM71 441V448.5L83.99 456H84V453.69H83.99L73 447.35V441H71ZM71 490V482L83.99 474.5H84V476.81H83.99L73 483.15V490H71Z" fill="#8C4343"/>
<path d="M97.99 450.25L110.99 457.75V472.75L97.99 480.25L85 472.75V457.75L97.99 450.25ZM87 458.9V471.6L97.99 477.94L108.99 471.59V458.9L97.99 452.56L87 458.9ZM84 456L96.98 448.5V441H94.98V447.35L84 453.69V455.99V456ZM84 474.5L96.98 482V490H94.98V483.15L84 476.81V474.51V474.5ZM99 441V448.5L111.99 456H112V453.69H111.99L101 447.35V441H99ZM99 490V482L111.99 474.5H112V476.81H111.99L101 483.15V490H99Z" fill="#8C4343"/>
<path d="M125.99 450.25L138.99 457.75V472.75L125.99 480.25L113 472.75V457.75L125.99 450.25ZM115 458.9V471.6L125.99 477.94L136.99 471.59V458.9L125.99 452.56L115 458.9ZM112 456L124.98 448.5V441H122.98V447.35L112 453.69V455.99V456ZM112 474.5L124.98 482V490H122.98V483.15L112 476.81V474.51V474.5ZM127 441V448.5L139.99 456H140V453.69H139.99L129 447.35V441H127ZM127 490V482L139.99 474.5H140V476.81H139.99L129 483.15V490H127Z" fill="#8C4343"/>
<path d="M153.99 450.25L166.99 457.75V472.75L153.99 480.25L141 472.75V457.75L153.99 450.25ZM143 458.9V471.6L153.99 477.94L164.99 471.59V458.9L153.99 452.56L143 458.9ZM140 456L152.98 448.5V441H150.98V447.35L140 453.69V455.99V456ZM140 474.5L152.98 482V490H150.98V483.15L140 476.81V474.51V474.5ZM155 441V448.5L167.99 456H168V453.69H167.99L157 447.35V441H155ZM155 490V482L167.99 474.5H168V476.81H167.99L157 483.15V490H155Z" fill="#8C4343"/>
<path d="M181.99 450.25L194.99 457.75V472.75L181.99 480.25L169 472.75V457.75L181.99 450.25ZM171 458.9V471.6L181.99 477.94L192.99 471.59V458.9L181.99 452.56L171 458.9ZM168 456L180.98 448.5V441H178.98V447.35L168 453.69V455.99V456ZM168 474.5L180.98 482V490H178.98V483.15L168 476.81V474.51V474.5ZM183 441V448.5L195.99 456H196V453.69H195.99L185 447.35V441H183ZM183 490V482L195.99 474.5H196V476.81H195.99L185 483.15V490H183Z" fill="#8C4343"/>
<path d="M209.99 450.25L222.99 457.75V472.75L209.99 480.25L197 472.75V457.75L209.99 450.25ZM199 458.9V471.6L209.99 477.94L220.99 471.59V458.9L209.99 452.56L199 458.9ZM196 456L208.98 448.5V441H206.98V447.35L196 453.69V455.99V456ZM196 474.5L208.98 482V490H206.98V483.15L196 476.81V474.51V474.5ZM211 441V448.5L223.99 456H224V453.69H223.99L213 447.35V441H211ZM211 490V482L223.99 474.5H224V476.81H223.99L213 483.15V490H211Z" fill="#8C4343"/>
<path d="M237.99 450.25L250.99 457.75V472.75L237.99 480.25L225 472.75V457.75L237.99 450.25ZM227 458.9V471.6L237.99 477.94L248.99 471.59V458.9L237.99 452.56L227 458.9ZM224 456L236.98 448.5V441H234.98V447.35L224 453.69V455.99V456ZM224 474.5L236.98 482V490H234.98V483.15L224 476.81V474.51V474.5ZM239 441V448.5L251.99 456H252V453.69H251.99L241 447.35V441H239ZM239 490V482L251.99 474.5H252V476.81H251.99L241 483.15V490H239Z" fill="#8C4343"/>
<path d="M265.99 450.25L278.99 457.75V472.75L265.99 480.25L253 472.75V457.75L265.99 450.25ZM255 458.9V471.6L265.99 477.94L276.99 471.59V458.9L265.99 452.56L255 458.9ZM252 456L264.98 448.5V441H262.98V447.35L252 453.69V455.99V456ZM252 474.5L264.98 482V490H262.98V483.15L252 476.81V474.51V474.5ZM267 441V448.5L279.99 456H280V453.69H279.99L269 447.35V441H267ZM267 490V482L279.99 474.5H280V476.81H279.99L269 483.15V490H267Z" fill="#8C4343"/>
<path d="M293.99 450.25L306.99 457.75V472.75L293.99 480.25L281 472.75V457.75L293.99 450.25ZM283 458.9V471.6L293.99 477.94L304.99 471.59V458.9L293.99 452.56L283 458.9ZM280 456L292.98 448.5V441H290.98V447.35L280 453.69V455.99V456ZM280 474.5L292.98 482V490H290.98V483.15L280 476.81V474.51V474.5ZM295 441V448.5L307.99 456H308V453.69H307.99L297 447.35V441H295ZM295 490V482L307.99 474.5H308V476.81H307.99L297 483.15V490H295Z" fill="#8C4343"/>
<path d="M321.99 450.25L334.99 457.75V472.75L321.99 480.25L309 472.75V457.75L321.99 450.25ZM311 458.9V471.6L321.99 477.94L332.99 471.59V458.9L321.99 452.56L311 458.9ZM308 456L320.98 448.5V441H318.98V447.35L308 453.69V455.99V456ZM308 474.5L320.98 482V490H318.98V483.15L308 476.81V474.51V474.5ZM323 441V448.5L335.99 456H336V453.69H335.99L325 447.35V441H323ZM323 490V482L335.99 474.5H336V476.81H335.99L325 483.15V490H323Z" fill="#8C4343"/>
<path d="M349.99 450.25L362.99 457.75V472.75L349.99 480.25L337 472.75V457.75L349.99 450.25ZM339 458.9V471.6L349.99 477.94L360.99 471.59V458.9L349.99 452.56L339 458.9ZM336 456L348.98 448.5V441H346.98V447.35L336 453.69V455.99V456ZM336 474.5L348.98 482V490H346.98V483.15L336 476.81V474.51V474.5ZM351 441V448.5L363.99 456H364V453.69H363.99L353 447.35V441H351ZM351 490V482L363.99 474.5H364V476.81H363.99L353 483.15V490H351Z" fill="#8C4343"/>
<path d="M377.99 450.25L390.99 457.75V472.75L377.99 480.25L365 472.75V457.75L377.99 450.25ZM367 458.9V471.6L377.99 477.94L388.99 471.59V458.9L377.99 452.56L367 458.9ZM364 456L376.98 448.5V441H374.98V447.35L364 453.69V455.99V456ZM364 474.5L376.98 482V490H374.98V483.15L364 476.81V474.51V474.5ZM379 441V448.5L391.99 456H392V453.69H391.99L381 447.35V441H379ZM379 490V482L391.99 474.5H392V476.81H391.99L381 483.15V490H379Z" fill="#8C4343"/>
<path d="M405.99 450.25L418.99 457.75V472.75L405.99 480.25L393 472.75V457.75L405.99 450.25ZM395 458.9V471.6L405.99 477.94L416.99 471.59V458.9L405.99 452.56L395 458.9ZM392 456L404.98 448.5V441H402.98V447.35L392 453.69V455.99V456ZM392 474.5L404.98 482V490H402.98V483.15L392 476.81V474.51V474.5ZM407 441V448.5L419.99 456H420V453.69H419.99L409 447.35V441H407ZM407 490V482L419.99 474.5H420V476.81H419.99L409 483.15V490H407Z" fill="#8C4343"/>
<path d="M433.99 450.25L446.99 457.75V472.75L433.99 480.25L421 472.75V457.75L433.99 450.25ZM423 458.9V471.6L433.99 477.94L444.99 471.59V458.9L433.99 452.56L423 458.9ZM420 456L432.98 448.5V441H430.98V447.35L420 453.69V455.99V456ZM420 474.5L432.98 482V490H430.98V483.15L420 476.81V474.51V474.5ZM435 441V448.5L447.99 456H448V453.69H447.99L437 447.35V441H435ZM435 490V482L447.99 474.5H448V476.81H447.99L437 483.15V490H435Z" fill="#8C4343"/>
<path d="M461.99 450.25L474.99 457.75V472.75L461.99 480.25L449 472.75V457.75L461.99 450.25ZM451 458.9V471.6L461.99 477.94L472.99 471.59V458.9L461.99 452.56L451 458.9ZM448 456L460.98 448.5V441H458.98V447.35L448 453.69V455.99V456ZM448 474.5L460.98 482V490H458.98V483.15L448 476.81V474.51V474.5ZM463 441V448.5L475.99 456H476V453.69H475.99L465 447.35V441H463ZM463 490V482L475.99 474.5H476V476.81H475.99L465 483.15V490H463Z" fill="#8C4343"/>
<path d="M489.99 450.25L502.99 457.75V472.75L489.99 480.25L477 472.75V457.75L489.99 450.25ZM479 458.9V471.6L489.99 477.94L500.99 471.59V458.9L489.99 452.56L479 458.9ZM476 456L488.98 448.5V441H486.98V447.35L476 453.69V455.99V456ZM476 474.5L488.98 482V490H486.98V483.15L476 476.81V474.51V474.5ZM491 441V448.5L503.99 456H504V453.69H503.99L493 447.35V441H491ZM491 490V482L503.99 474.5H504V476.81H503.99L493 483.15V490H491Z" fill="#8C4343"/>
<path d="M13.99 499.25L26.99 506.75V521.75L13.99 529.25L1 521.75V506.75L13.99 499.25ZM3 507.9V520.6L13.99 526.94L24.99 520.59V507.9L13.99 501.56L3 507.9ZM0 505L12.98 497.5V490H10.98V496.35L0 502.69V504.99V505ZM0 523.5L12.98 531V539H10.98V532.15L0 525.81V523.51V523.5ZM15 490V497.5L27.99 505H28V502.69H27.99L17 496.35V490H15ZM15 539V531L27.99 523.5H28V525.81H27.99L17 532.15V539H15Z" fill="#8C4343"/>
<path d="M41.99 499.25L54.99 506.75V521.75L41.99 529.25L29 521.75V506.75L41.99 499.25ZM31 507.9V520.6L41.99 526.94L52.99 520.59V507.9L41.99 501.56L31 507.9ZM28 505L40.98 497.5V490H38.98V496.35L28 502.69V504.99V505ZM28 523.5L40.98 531V539H38.98V532.15L28 525.81V523.51V523.5ZM43 490V497.5L55.99 505H56V502.69H55.99L45 496.35V490H43ZM43 539V531L55.99 523.5H56V525.81H55.99L45 532.15V539H43Z" fill="#8C4343"/>
<path d="M69.99 499.25L82.99 506.75V521.75L69.99 529.25L57 521.75V506.75L69.99 499.25ZM59 507.9V520.6L69.99 526.94L80.99 520.59V507.9L69.99 501.56L59 507.9ZM56 505L68.98 497.5V490H66.98V496.35L56 502.69V504.99V505ZM56 523.5L68.98 531V539H66.98V532.15L56 525.81V523.51V523.5ZM71 490V497.5L83.99 505H84V502.69H83.99L73 496.35V490H71ZM71 539V531L83.99 523.5H84V525.81H83.99L73 532.15V539H71Z" fill="#8C4343"/>
<path d="M97.99 499.25L110.99 506.75V521.75L97.99 529.25L85 521.75V506.75L97.99 499.25ZM87 507.9V520.6L97.99 526.94L108.99 520.59V507.9L97.99 501.56L87 507.9ZM84 505L96.98 497.5V490H94.98V496.35L84 502.69V504.99V505ZM84 523.5L96.98 531V539H94.98V532.15L84 525.81V523.51V523.5ZM99 490V497.5L111.99 505H112V502.69H111.99L101 496.35V490H99ZM99 539V531L111.99 523.5H112V525.81H111.99L101 532.15V539H99Z" fill="#8C4343"/>
<path d="M125.99 499.25L138.99 506.75V521.75L125.99 529.25L113 521.75V506.75L125.99 499.25ZM115 507.9V520.6L125.99 526.94L136.99 520.59V507.9L125.99 501.56L115 507.9ZM112 505L124.98 497.5V490H122.98V496.35L112 502.69V504.99V505ZM112 523.5L124.98 531V539H122.98V532.15L112 525.81V523.51V523.5ZM127 490V497.5L139.99 505H140V502.69H139.99L129 496.35V490H127ZM127 539V531L139.99 523.5H140V525.81H139.99L129 532.15V539H127Z" fill="#8C4343"/>
<path d="M153.99 499.25L166.99 506.75V521.75L153.99 529.25L141 521.75V506.75L153.99 499.25ZM143 507.9V520.6L153.99 526.94L164.99 520.59V507.9L153.99 501.56L143 507.9ZM140 505L152.98 497.5V490H150.98V496.35L140 502.69V504.99V505ZM140 523.5L152.98 531V539H150.98V532.15L140 525.81V523.51V523.5ZM155 490V497.5L167.99 505H168V502.69H167.99L157 496.35V490H155ZM155 539V531L167.99 523.5H168V525.81H167.99L157 532.15V539H155Z" fill="#8C4343"/>
<path d="M181.99 499.25L194.99 506.75V521.75L181.99 529.25L169 521.75V506.75L181.99 499.25ZM171 507.9V520.6L181.99 526.94L192.99 520.59V507.9L181.99 501.56L171 507.9ZM168 505L180.98 497.5V490H178.98V496.35L168 502.69V504.99V505ZM168 523.5L180.98 531V539H178.98V532.15L168 525.81V523.51V523.5ZM183 490V497.5L195.99 505H196V502.69H195.99L185 496.35V490H183ZM183 539V531L195.99 523.5H196V525.81H195.99L185 532.15V539H183Z" fill="#8C4343"/>
<path d="M209.99 499.25L222.99 506.75V521.75L209.99 529.25L197 521.75V506.75L209.99 499.25ZM199 507.9V520.6L209.99 526.94L220.99 520.59V507.9L209.99 501.56L199 507.9ZM196 505L208.98 497.5V490H206.98V496.35L196 502.69V504.99V505ZM196 523.5L208.98 531V539H206.98V532.15L196 525.81V523.51V523.5ZM211 490V497.5L223.99 505H224V502.69H223.99L213 496.35V490H211ZM211 539V531L223.99 523.5H224V525.81H223.99L213 532.15V539H211Z" fill="#8C4343"/>
<path d="M237.99 499.25L250.99 506.75V521.75L237.99 529.25L225 521.75V506.75L237.99 499.25ZM227 507.9V520.6L237.99 526.94L248.99 520.59V507.9L237.99 501.56L227 507.9ZM224 505L236.98 497.5V490H234.98V496.35L224 502.69V504.99V505ZM224 523.5L236.98 531V539H234.98V532.15L224 525.81V523.51V523.5ZM239 490V497.5L251.99 505H252V502.69H251.99L241 496.35V490H239ZM239 539V531L251.99 523.5H252V525.81H251.99L241 532.15V539H239Z" fill="#8C4343"/>
<path d="M265.99 499.25L278.99 506.75V521.75L265.99 529.25L253 521.75V506.75L265.99 499.25ZM255 507.9V520.6L265.99 526.94L276.99 520.59V507.9L265.99 501.56L255 507.9ZM252 505L264.98 497.5V490H262.98V496.35L252 502.69V504.99V505ZM252 523.5L264.98 531V539H262.98V532.15L252 525.81V523.51V523.5ZM267 490V497.5L279.99 505H280V502.69H279.99L269 496.35V490H267ZM267 539V531L279.99 523.5H280V525.81H279.99L269 532.15V539H267Z" fill="#8C4343"/>
<path d="M293.99 499.25L306.99 506.75V521.75L293.99 529.25L281 521.75V506.75L293.99 499.25ZM283 507.9V520.6L293.99 526.94L304.99 520.59V507.9L293.99 501.56L283 507.9ZM280 505L292.98 497.5V490H290.98V496.35L280 502.69V504.99V505ZM280 523.5L292.98 531V539H290.98V532.15L280 525.81V523.51V523.5ZM295 490V497.5L307.99 505H308V502.69H307.99L297 496.35V490H295ZM295 539V531L307.99 523.5H308V525.81H307.99L297 532.15V539H295Z" fill="#8C4343"/>
<path d="M321.99 499.25L334.99 506.75V521.75L321.99 529.25L309 521.75V506.75L321.99 499.25ZM311 507.9V520.6L321.99 526.94L332.99 520.59V507.9L321.99 501.56L311 507.9ZM308 505L320.98 497.5V490H318.98V496.35L308 502.69V504.99V505ZM308 523.5L320.98 531V539H318.98V532.15L308 525.81V523.51V523.5ZM323 490V497.5L335.99 505H336V502.69H335.99L325 496.35V490H323ZM323 539V531L335.99 523.5H336V525.81H335.99L325 532.15V539H323Z" fill="#8C4343"/>
<path d="M349.99 499.25L362.99 506.75V521.75L349.99 529.25L337 521.75V506.75L349.99 499.25ZM339 507.9V520.6L349.99 526.94L360.99 520.59V507.9L349.99 501.56L339 507.9ZM336 505L348.98 497.5V490H346.98V496.35L336 502.69V504.99V505ZM336 523.5L348.98 531V539H346.98V532.15L336 525.81V523.51V523.5ZM351 490V497.5L363.99 505H364V502.69H363.99L353 496.35V490H351ZM351 539V531L363.99 523.5H364V525.81H363.99L353 532.15V539H351Z" fill="#8C4343"/>
<path d="M377.99 499.25L390.99 506.75V521.75L377.99 529.25L365 521.75V506.75L377.99 499.25ZM367 507.9V520.6L377.99 526.94L388.99 520.59V507.9L377.99 501.56L367 507.9ZM364 505L376.98 497.5V490H374.98V496.35L364 502.69V504.99V505ZM364 523.5L376.98 531V539H374.98V532.15L364 525.81V523.51V523.5ZM379 490V497.5L391.99 505H392V502.69H391.99L381 496.35V490H379ZM379 539V531L391.99 523.5H392V525.81H391.99L381 532.15V539H379Z" fill="#8C4343"/>
<path d="M405.99 499.25L418.99 506.75V521.75L405.99 529.25L393 521.75V506.75L405.99 499.25ZM395 507.9V520.6L405.99 526.94L416.99 520.59V507.9L405.99 501.56L395 507.9ZM392 505L404.98 497.5V490H402.98V496.35L392 502.69V504.99V505ZM392 523.5L404.98 531V539H402.98V532.15L392 525.81V523.51V523.5ZM407 490V497.5L419.99 505H420V502.69H419.99L409 496.35V490H407ZM407 539V531L419.99 523.5H420V525.81H419.99L409 532.15V539H407Z" fill="#8C4343"/>
<path d="M433.99 499.25L446.99 506.75V521.75L433.99 529.25L421 521.75V506.75L433.99 499.25ZM423 507.9V520.6L433.99 526.94L444.99 520.59V507.9L433.99 501.56L423 507.9ZM420 505L432.98 497.5V490H430.98V496.35L420 502.69V504.99V505ZM420 523.5L432.98 531V539H430.98V532.15L420 525.81V523.51V523.5ZM435 490V497.5L447.99 505H448V502.69H447.99L437 496.35V490H435ZM435 539V531L447.99 523.5H448V525.81H447.99L437 532.15V539H435Z" fill="#8C4343"/>
<path d="M461.99 499.25L474.99 506.75V521.75L461.99 529.25L449 521.75V506.75L461.99 499.25ZM451 507.9V520.6L461.99 526.94L472.99 520.59V507.9L461.99 501.56L451 507.9ZM448 505L460.98 497.5V490H458.98V496.35L448 502.69V504.99V505ZM448 523.5L460.98 531V539H458.98V532.15L448 525.81V523.51V523.5ZM463 490V497.5L475.99 505H476V502.69H475.99L465 496.35V490H463ZM463 539V531L475.99 523.5H476V525.81H475.99L465 532.15V539H463Z" fill="#8C4343"/>
<path d="M489.99 499.25L502.99 506.75V521.75L489.99 529.25L477 521.75V506.75L489.99 499.25ZM479 507.9V520.6L489.99 526.94L500.99 520.59V507.9L489.99 501.56L479 507.9ZM476 505L488.98 497.5V490H486.98V496.35L476 502.69V504.99V505ZM476 523.5L488.98 531V539H486.98V532.15L476 525.81V523.51V523.5ZM491 490V497.5L503.99 505H504V502.69H503.99L493 496.35V490H491ZM491 539V531L503.99 523.5H504V525.81H503.99L493 532.15V539H491Z" fill="#8C4343"/>
</g>
<defs>
<clipPath id="clip0_1_2">
<rect width="504" height="539" fill="white"/>
</clipPath>
</defs>
</svg>
