<svg width="468" height="668" viewBox="0 0 468 668" fill="none" xmlns="http://www.w3.org/2000/svg">
<path d="M200.667 534H267.333M140.667 634H327.333C364.67 634 383.34 634 397.6 626.733C410.143 620.343 420.343 610.143 426.733 597.6C434 583.34 434 564.67 434 527.333V140.667C434 103.33 434 84.6613 426.733 70.4007C420.343 57.8563 410.143 47.6577 397.6 41.2663C383.34 34 364.67 34 327.333 34H140.667C103.33 34 84.6613 34 70.4007 41.2663C57.8563 47.6577 47.6577 57.8563 41.2663 70.4007C34 84.6613 34 103.33 34 140.667V527.333C34 564.67 34 583.34 41.2663 597.6C47.6577 610.143 57.8563 620.343 70.4007 626.733C84.6613 634 103.33 634 140.667 634Z" stroke="#3730A3" stroke-width="66.6667" stroke-linecap="round" stroke-linejoin="round"/>
</svg>
