<svg width="6774" height="1476" viewBox="0 0 6774 1476" fill="none" xmlns="http://www.w3.org/2000/svg">
<path d="M2400 1287.28C2400 1296.28 2409.1 1302.38 2417.5 1298.98C2426.2 1295.38 2434.7 1291.78 2441.2 1289.48C2479.4 1276.18 2520.6 1272.88 2560.9 1279.28C2569.3 1280.58 2586.3 1283.38 2612 1287.78C2636.6 1291.88 2666.5 1293.48 2684.8 1295.68C2718.8 1299.68 2749.7 1312.08 2782 1324.58C2812.6 1336.38 2840.6 1340.88 2872.9 1341.58C2893.9 1342.08 2915 1342.28 2936 1342.38C2977.3 1342.48 3018.9 1344.68 3059.7 1343.18C3074.9 1342.58 3092.9 1339.08 3106.3 1337.58C3121.8 1335.88 3139.2 1335.38 3158.5 1335.98C3193.8 1337.08 3228.7 1341.68 3263.1 1349.68C3292.8 1356.58 3322.6 1364.48 3351.4 1374.58C3360.1 1377.68 3370.7 1381.28 3383.1 1385.38C3410 1394.38 3435.1 1395.88 3462.9 1392.88C3495.1 1389.38 3526.7 1382.58 3558.5 1376.58C3597.4 1369.18 3636.6 1380.88 3675.7 1376.38C3694.1 1374.28 3713.6 1368.08 3731.6 1361.98C3744.6 1357.58 3754.2 1355.58 3766.7 1355.28C3790 1354.88 3810.6 1357.88 3833.4 1363.78C3851.5 1368.48 3869.9 1371.88 3888.5 1374.18C3910.4 1376.78 3929 1381.78 3951.6 1388.08C3982.3 1396.68 4014.6 1400.28 4048.5 1399.08C4074.6 1398.18 4106.9 1394.28 4124.8 1392.88C4148.6 1390.98 4175.4 1390.28 4205.2 1390.78C4222.7 1391.08 4241.2 1392.98 4260.9 1396.48C4286.6 1401.08 4311.1 1402.98 4337.2 1401.28C4356.6 1400.08 4377.5 1396.78 4397.5 1394.08C4442.1 1388.18 4494.6 1397.98 4533.9 1420.18C4545.5 1426.68 4557.1 1432.98 4570 1436.38C4587.1 1440.88 4607.8 1440.28 4625.6 1438.38C4632.2 1437.68 4638.9 1436.98 4645.5 1436.18C4652.2 1435.48 4658.8 1434.68 4665.5 1433.98C4672.2 1433.28 4678.9 1432.68 4685.6 1432.08C4692.3 1431.48 4699 1430.98 4705.7 1430.58C4712.4 1430.18 4719.1 1429.88 4725.8 1429.68C4732.5 1429.48 4739.3 1429.48 4746 1429.58C4752.8 1429.68 4759.6 1429.98 4766.3 1430.48C4773.1 1430.98 4779.9 1431.68 4786.7 1432.58C4793.4 1433.48 4800.1 1434.58 4806.7 1436.08C4813.3 1437.58 4819.8 1439.18 4826.4 1440.68C4833 1442.18 4839.6 1443.58 4846.3 1444.68C4852.9 1445.78 4859.6 1446.58 4866.3 1446.88C4868.7 1446.98 4871.1 1447.08 4873.6 1447.08C4897.3 1447.08 4921.3 1446.38 4945 1447.78C4983.2 1449.98 5021.6 1454.78 5059.5 1460.08C5065.4 1460.88 5073.1 1462.18 5082.6 1463.98C5143.5 1475.28 5206.6 1477.28 5269.3 1473.28C5304.2 1471.08 5339.2 1469.28 5374.2 1467.98C5397.9 1467.08 5421.7 1464.68 5443.6 1457.28C5460.6 1451.58 5473.5 1446.98 5490.7 1443.98C5509.3 1440.68 5527.7 1437.08 5546.1 1432.98C5555 1430.98 5563.7 1428.28 5572.4 1424.78C5574.1 1424.08 5574.2 1423.28 5572.6 1422.28C5572.3 1422.08 5571.5 1421.88 5570.2 1421.68C5559.2 1419.98 5548.2 1419.48 5537 1420.18C5506.5 1422.18 5476.4 1428.98 5446.5 1435.28C5430.4 1438.68 5411 1441.08 5388 1442.48C5344.9 1445.18 5301.7 1447.88 5258.6 1450.68C5226.9 1452.68 5193.2 1453.68 5167.2 1452.48C5150.4 1451.68 5137.3 1450.68 5128.1 1449.38C5047.4 1437.98 4972.9 1429.08 4904.6 1422.68C4889.3 1421.28 4870.3 1420.38 4847.7 1420.18C4844.7 1420.18 4841.6 1419.98 4838.6 1419.78C4833.6 1419.48 4828.5 1419.18 4823.5 1418.78C4816.9 1418.28 4810.3 1417.78 4803.6 1417.28C4796.8 1416.78 4790 1416.28 4783.2 1416.08C4780.8 1415.98 4778.4 1415.98 4776 1415.98C4734.3 1415.78 4692.6 1417.88 4651.1 1422.18C4620.4 1425.38 4591.2 1430.48 4562 1416.68C4537.1 1404.88 4513.4 1392.88 4486.2 1384.08C4454.3 1373.78 4420.7 1371.48 4387.8 1376.28C4349.6 1381.78 4312.2 1383.98 4276.4 1377.88C4254.8 1374.18 4241.2 1371.88 4235.8 1371.08C4213.8 1367.68 4191.7 1366.38 4169.6 1366.18C4153.9 1365.98 4139.6 1366.88 4126.7 1368.88C4109.3 1371.58 4090.8 1374.78 4074 1375.58C4046.5 1376.88 4018.4 1374.38 3989.9 1368.08C3950.7 1359.38 3927.3 1353.38 3889 1347.38C3863.4 1343.38 3837.8 1339.48 3812.2 1335.68C3780.4 1330.98 3751.9 1331.18 3720.8 1339.98C3709.7 1343.08 3698.6 1346.18 3687.6 1349.18C3653.8 1358.38 3619.9 1354.28 3585.5 1355.48C3550 1356.68 3515.7 1366.88 3481.5 1375.28C3480.1 1375.58 3478.8 1375.98 3477.4 1376.28C3452.3 1382.38 3424.6 1384.48 3400.4 1375.48C3398.9 1374.98 3392.3 1371.88 3380.6 1366.18C3363.3 1357.78 3345.2 1351.68 3326.3 1347.88C3291.6 1340.88 3269.2 1334.18 3240.6 1327.08C3206.2 1318.48 3171.1 1316.58 3135.8 1317.58C3092 1318.88 3048.4 1321.58 3004.6 1322.68C2968.9 1323.58 2933.1 1324.48 2897.4 1325.38C2863.5 1326.28 2830.8 1320.18 2799.5 1307.28C2760.5 1291.18 2733.5 1279.78 2698.3 1275.18C2681.9 1273.08 2661.4 1271.28 2644.3 1268.58C2625.1 1265.58 2603.2 1261.48 2578.6 1256.28C2521.1 1244.08 2461.1 1252.28 2407.7 1275.88C2402.9 1277.78 2400 1282.28 2400 1287.28Z" fill="black" fill-opacity="0.03"/>
<path d="M0 79.1781L0 105.678C14.1 100.978 30.3 93.3782 41.2 89.5782C79.4 76.2782 120.6 72.9781 160.9 79.3781C169.3 80.6781 186.3 83.4781 212 87.8781C236.6 91.9781 266.5 93.5781 284.8 95.7781C318.8 99.7781 349.7 112.178 382 124.678C412.6 136.478 440.6 140.978 472.9 141.678C493.9 142.178 515 142.378 536 142.478C577.3 142.578 618.9 144.778 659.7 143.278C674.9 142.678 692.9 139.178 706.3 137.678C721.8 135.978 739.2 135.478 758.5 136.078C793.8 137.178 828.7 141.778 863.1 149.778C892.8 156.678 922.6 164.578 951.4 174.678C960.1 177.778 970.7 181.378 983.1 185.478C1010 194.478 1035.1 195.978 1062.9 192.978C1095.1 189.478 1126.7 182.678 1158.5 176.678C1197.4 169.278 1236.6 180.978 1275.7 176.478C1294.1 174.378 1313.6 168.178 1331.6 162.078C1344.6 157.678 1354.2 155.678 1366.7 155.378C1390 154.978 1410.6 157.978 1433.4 163.878C1451.5 168.578 1469.9 171.978 1488.5 174.278C1510.4 176.878 1529 181.878 1551.6 188.178C1582.3 196.778 1614.6 200.378 1648.5 199.178C1674.6 198.278 1706.9 194.378 1724.8 192.978C1748.6 191.078 1775.4 190.378 1805.2 190.878C1822.7 191.178 1841.2 193.078 1860.9 196.578C1886.6 201.178 1911.1 203.078 1937.2 201.378C1956.6 200.178 1977.5 196.878 1997.5 194.178C2042.1 188.278 2094.6 198.078 2133.9 220.278C2145.5 226.778 2157.1 233.078 2170 236.478C2187.1 240.978 2207.8 240.378 2225.6 238.478C2232.2 237.778 2238.9 237.078 2245.5 236.278C2252.2 235.578 2258.8 234.778 2265.5 234.078C2272.2 233.378 2278.9 232.778 2285.6 232.178C2292.3 231.578 2299 231.078 2305.7 230.678C2312.4 230.278 2319.1 229.978 2325.8 229.778C2332.5 229.578 2339.3 229.578 2346 229.678C2352.8 229.778 2359.6 230.078 2366.3 230.578C2373.1 231.078 2379.9 231.778 2386.7 232.678C2393.4 233.578 2400.1 234.678 2406.7 236.178C2413.3 237.678 2419.8 239.278 2426.4 240.778C2433 242.278 2439.6 243.678 2446.3 244.778C2452.9 245.878 2459.6 246.678 2466.3 246.978C2468.7 247.078 2471.1 247.178 2473.6 247.178C2497.3 247.178 2521.3 246.478 2545 247.878C2583.2 250.078 2621.6 254.878 2659.5 260.178C2665.4 260.978 2673.1 262.278 2682.6 264.078C2743.5 275.378 2806.6 277.378 2869.3 273.378C2904.2 271.178 2939.2 269.378 2974.2 268.078C2997.9 267.178 3021.7 264.778 3043.6 257.378C3060.6 251.678 3073.5 247.078 3090.7 244.078C3109.3 240.778 3127.7 237.178 3146.1 233.078C3155 231.078 3163.7 228.378 3172.4 224.878C3174.1 224.178 3174.2 223.378 3172.6 222.378C3172.3 222.178 3171.5 221.978 3170.2 221.778C3159.2 220.078 3148.2 219.578 3137 220.278C3106.5 222.278 3076.4 229.078 3046.5 235.378C3030.4 238.778 3011 241.178 2988 242.578C2944.9 245.278 2901.7 247.978 2858.6 250.778C2826.9 252.778 2793.2 253.778 2767.2 252.578C2750.4 251.778 2737.3 250.778 2728.1 249.478C2647.4 238.078 2572.9 229.178 2504.6 222.778C2489.3 221.378 2470.3 220.478 2447.7 220.278C2444.7 220.278 2441.6 220.078 2438.6 219.878C2433.6 219.578 2428.5 219.278 2423.5 218.878C2416.9 218.378 2410.3 217.878 2403.6 217.378C2396.8 216.878 2390 216.378 2383.2 216.178C2380.8 216.078 2378.4 216.078 2376 216.078C2334.3 215.878 2292.6 217.978 2251.1 222.278C2220.4 225.478 2191.2 230.578 2162 216.778C2137.1 204.978 2113.4 192.978 2086.2 184.178C2054.3 173.878 2020.7 171.578 1987.8 176.378C1949.6 181.878 1912.2 184.078 1876.4 177.978C1854.8 174.278 1841.2 171.978 1835.8 171.178C1813.8 167.778 1791.7 166.478 1769.6 166.278C1753.9 166.078 1739.6 166.978 1726.7 168.978C1709.3 171.678 1690.8 174.878 1674 175.678C1646.5 176.978 1618.4 174.478 1589.9 168.178C1550.7 159.478 1527.3 153.478 1489 147.478C1463.4 143.478 1437.8 139.578 1412.2 135.778C1380.4 131.078 1351.9 131.278 1320.8 140.078C1309.7 143.178 1298.6 146.278 1287.6 149.278C1253.8 158.478 1219.9 154.378 1185.5 155.578C1150 156.778 1115.7 166.978 1081.5 175.378C1080.1 175.678 1078.8 176.078 1077.4 176.378C1052.3 182.478 1024.6 184.578 1000.4 175.578C998.9 175.078 992.3 171.978 980.6 166.278C963.3 157.878 945.2 151.778 926.3 147.978C891.6 140.978 869.2 134.278 840.6 127.178C806.2 118.578 771.1 116.678 735.8 117.678C692 118.978 648.4 121.678 604.6 122.778C568.9 123.678 533.1 124.578 497.4 125.478C463.5 126.378 430.8 120.278 399.5 107.378C360.5 91.2781 333.5 79.8781 298.3 75.2781C281.9 73.1781 261.4 71.3781 244.3 68.6781C225.1 65.6781 203.2 61.5781 178.6 56.3781C118.2 43.3781 55.3 53.0781 0 79.1781Z" fill="black" fill-opacity="0.03"/>
<path d="M2476 350.678C2425 321.178 2358.1 308.178 2303.1 334.478C2301.2 335.378 2294.3 339.078 2282.4 345.578C2247.1 364.778 2210.8 382.578 2178 406.078C2165.6 414.978 2152.8 425.878 2140.4 436.178C2120.4 452.878 2094.1 463.778 2069.7 474.778C2041.6 487.378 2020.6 502.478 2006.9 530.878C1999.6 546.078 1992.9 561.778 1982.9 576.078C1962.1 605.878 1933.4 633.278 1904.7 655.478C1880.5 674.278 1854.1 682.678 1823.6 684.278C1805.7 685.278 1784.2 684.478 1759.1 682.078C1741.5 680.378 1724.1 677.278 1707.1 672.678C1673.5 663.778 1642.3 653.278 1611.5 660.178C1581.6 666.878 1550.8 689.278 1527.3 708.278C1508 723.978 1488.1 738.778 1469.3 754.978C1451.8 770.178 1433.7 784.878 1414 797.278C1390.6 811.978 1364.7 823.278 1337.1 826.478C1310.7 829.478 1284.2 825.378 1257.8 824.778C1233.8 824.278 1210.8 827.978 1189.5 839.678C1174.7 847.778 1161.8 858.978 1147.3 867.578C1113.6 887.778 1074.2 895.878 1035.7 903.678C998 911.278 959.5 918.978 921.3 914.778C892.8 911.578 864.9 901.778 836.3 902.678C806.8 903.578 778.9 915.778 752.3 928.578C743.7 932.678 735.1 936.978 726.5 941.278C715.8 946.678 723.4 962.778 734.3 957.978C770.6 941.878 806.2 921.478 845.3 920.978C872.1 920.578 898 929.678 924.5 933.578C965.1 939.478 1006.5 932.978 1046.3 923.178C1094.3 911.378 1143.4 895.178 1185.7 869.278C1198.9 861.178 1212.9 849.578 1227.9 845.078C1242.4 840.778 1259.3 842.278 1274.2 843.678C1294.2 845.578 1314.3 849.478 1334.3 847.878C1360.3 845.878 1384.1 834.878 1406.7 822.678C1427.9 811.178 1447.8 797.378 1467 782.778C1468 782.078 1468.9 781.278 1469.9 780.578C1489.9 765.178 1509.3 748.978 1529.2 733.378C1548.3 718.478 1568.2 701.778 1590.7 692.678C1601.2 688.378 1612.3 685.478 1623.7 684.578C1647.9 682.678 1675.4 688.578 1699.1 693.478C1750.3 704.278 1799.7 710.378 1850.3 703.578C1882.6 699.278 1910.4 687.178 1935.6 665.878C1969.4 637.178 1998.5 603.178 2016.2 563.178C2025.3 542.678 2032.7 524.178 2051.4 510.978C2053.8 509.278 2060.7 505.478 2071.9 499.678C2086 492.378 2099.5 484.278 2112.5 475.078C2124.9 466.278 2140.5 452.978 2152 444.278C2180.7 422.578 2211.2 404.978 2242.7 387.678C2268.7 373.478 2293.7 356.578 2322.2 347.478C2353.5 337.478 2383.7 342.378 2414.7 351.378C2461.4 365.078 2504 390.278 2549.5 407.178C2563.4 412.278 2574.8 415.878 2583.7 417.878C2613.1 424.278 2643.5 420.878 2674 418.278C2707.7 415.378 2741.6 419.178 2774.8 427.178C2813 436.378 2839.7 443.578 2880.5 450.378C2904 454.378 2922.5 463.178 2941.8 477.178C2965.7 494.478 2988.3 513.278 3016.6 522.578C3022.7 524.578 3032.8 525.878 3043.2 525.678C3054.2 525.378 3055.6 509.578 3044.7 507.278C3031.3 504.478 3018.3 499.578 3004.8 492.678C2977.8 478.878 2952.4 461.978 2925.6 447.778C2907.3 438.178 2888.2 429.778 2868 424.878C2848.6 420.078 2828.5 419.278 2809.1 413.878C2791.9 409.078 2774.7 404.578 2757.5 400.178C2734.1 394.278 2713.4 394.378 2689.4 397.378C2671.7 399.578 2657.9 400.978 2648 401.378C2625.3 402.478 2603.7 402.478 2583.2 395.878C2547.7 384.378 2510.2 370.478 2476 350.678Z" fill="black" fill-opacity="0.03"/>
<path d="M3342 261.778C3324.4 265.978 3310.9 271.478 3292 279.978C3276.2 287.078 3260.1 293.378 3243.6 298.878C3216.1 308.078 3188.8 316.478 3163.4 330.678C3154.3 335.778 3143.2 343.478 3132.9 349.678C3116.9 359.378 3099.8 366.378 3081.6 370.878C3061.2 375.878 3041.4 373.478 3021.4 367.478C2993.4 359.078 2967.2 346.778 2940.7 334.778C2897.7 315.278 2850.1 305.578 2803.3 301.778C2735.9 296.178 2666 288.378 2597.4 294.178C2571.7 296.378 2553 297.478 2541.3 297.478C2526.2 297.478 2512.8 296.178 2500.9 293.578C2492 291.578 2483.2 289.678 2474.3 287.878C2465.4 286.078 2456.5 284.278 2447.6 282.678C2438.7 281.078 2429.9 279.678 2420.9 278.478C2411.8 277.278 2402.7 276.278 2393.6 275.678C2384.7 275.078 2375.7 274.678 2366.8 274.578C2357.8 274.478 2348.8 274.578 2339.8 274.878C2330.9 275.178 2322.1 275.678 2313.2 276.378C2304.6 276.978 2296 277.778 2287.5 278.678C2285.6 278.878 2283.6 279.278 2281.7 279.278C2242.7 283.478 2207.1 298.578 2179.3 326.578C2168.2 337.678 2156.2 351.178 2145.4 359.878C2126 375.578 2102.9 383.978 2080.1 393.478C2046.5 407.578 2025.8 430.278 2000.2 457.978C1970.4 490.178 1934.9 521.678 1897.2 546.978C1881.6 557.378 1860.7 570.878 1840.5 568.678C1819.1 566.278 1797.2 553.878 1779 542.078C1762.1 531.178 1747.1 522.178 1733.8 514.878C1690.8 491.378 1641.2 488.378 1593.3 490.478C1556.7 492.078 1522.4 492.078 1487.1 482.078C1464.4 475.678 1442.6 467.978 1420.8 458.978C1407 453.278 1393 448.078 1378.8 443.478C1374.8 442.178 1370.8 440.878 1366.8 439.478C1362.8 438.078 1358.7 436.678 1354.7 435.278C1350.7 433.878 1346.7 432.378 1342.6 430.878C1338.6 429.378 1334.6 427.878 1330.5 426.478C1326.5 424.978 1322.4 423.478 1318.4 421.978C1314.4 420.478 1310.3 418.978 1306.3 417.578C1302.3 416.078 1298.2 414.678 1294.2 413.278C1290.1 411.878 1286.1 410.478 1282 409.078C1277.9 407.678 1273.9 406.378 1269.8 405.178C1265.7 403.878 1261.6 402.678 1257.5 401.478C1253.4 400.278 1249.3 399.178 1245.1 398.178C1241 397.078 1236.8 396.178 1232.7 395.178C1228.5 394.278 1224.4 393.378 1220.2 392.678C1216 391.878 1211.8 391.278 1207.6 390.678C1203.2 390.078 1198.7 389.578 1194.3 389.278C1190.1 388.978 1185.9 388.778 1181.7 388.578C1177.5 388.478 1173.3 388.378 1169.2 388.378C1165.1 388.378 1160.9 388.578 1156.8 388.778C1152.7 388.978 1148.6 389.378 1144.5 389.778C1140.4 390.178 1136.3 390.778 1132.3 391.378C1128.2 392.078 1124.2 392.778 1120.2 393.678C1116.2 394.578 1112.2 395.578 1108.2 396.678C1104.2 397.778 1100.2 399.078 1096.3 400.478C1092.3 401.878 1088.4 403.378 1084.5 405.078C1083.5 405.478 1082.4 405.978 1081.4 406.478C1080.9 406.678 1080.4 406.978 1079.9 407.178C1079.7 407.278 1078.4 407.778 1078.4 407.878C1060.8 416.078 1048.3 422.578 1041 427.578C1015.8 444.478 990.2 460.978 964.3 476.878C948.9 486.378 934.6 496.378 920 506.578C908.6 514.478 902.7 519.878 897 531.478C889.1 547.778 879.1 566.578 867 587.978C852 614.578 834.9 632.078 811.7 657.678C805.1 664.978 800.3 671.178 795.7 678.978C795.5 679.278 795.9 679.678 796.2 679.478C806 673.078 816 666.778 826.1 660.678C835.2 655.178 841.6 650.778 845.5 647.578C876 621.978 891.6 584.078 909.1 549.778C917.2 533.778 928 521.278 941.3 512.278C953.2 504.178 968.8 494.678 988.2 483.478C1016.8 466.978 1045.6 450.878 1074.6 435.078C1078.2 433.078 1081.8 431.178 1085.4 429.378C1089 427.578 1092.6 425.878 1096.3 424.178C1099.9 422.578 1103.5 421.078 1107.2 419.578C1110.8 418.178 1114.5 416.878 1118.2 415.578C1121.9 414.378 1125.5 413.278 1129.3 412.278C1133 411.278 1136.7 410.378 1140.5 409.678C1144.3 408.878 1148.1 408.278 1151.9 407.778C1155.7 407.278 1159.6 406.878 1163.5 406.578C1167.4 406.278 1171.4 406.178 1175.3 406.178C1179.3 406.178 1183.4 406.378 1187.4 406.578C1191.5 406.878 1195.7 407.178 1199.8 407.878C1204.2 408.678 1208.4 409.778 1212.7 410.778C1217 411.878 1221.3 412.878 1225.6 414.078C1229.9 415.178 1234.1 416.378 1238.4 417.578C1242.7 418.778 1246.9 420.078 1251.1 421.378C1255.3 422.678 1259.6 423.978 1263.8 425.378C1268 426.778 1272.2 428.178 1276.4 429.578C1280.6 431.078 1284.8 432.578 1288.9 434.078C1293.1 435.578 1297.2 437.178 1301.3 438.778C1303.2 439.478 1305.1 440.278 1307 441.078C1325.3 448.378 1343.5 455.878 1361.7 463.378C1386.2 473.578 1410.2 478.078 1435.4 486.778C1449.3 491.578 1464.5 497.278 1480.9 503.878C1506.5 514.178 1533.4 518.378 1561.6 516.478C1575.1 515.578 1588.5 514.478 1602 513.178C1646.9 508.878 1689 514.578 1728.4 537.278C1742.7 545.478 1756.8 554.278 1769.2 560.778C1786.8 569.978 1804.8 578.278 1823.2 585.578C1830.7 588.578 1835.4 590.378 1837.3 590.978C1868.9 600.778 1909.7 573.378 1933.1 553.478C1964.4 526.778 1992.3 496.178 2020.3 466.178C2034.7 450.778 2050.1 436.778 2068.9 426.878C2083.8 418.978 2100.5 411.078 2113.7 403.178C2140.3 387.278 2163.2 367.078 2186.9 347.378C2201.3 335.378 2218.5 326.078 2236.7 319.178C2244.7 316.178 2252.8 313.378 2261 310.978C2269.2 308.578 2277.5 306.478 2285.9 304.578C2294.3 302.778 2302.7 301.178 2311.2 299.978C2319.7 298.678 2328.2 297.678 2336.8 296.978C2345.3 296.278 2353.9 295.778 2362.5 295.478C2371.1 295.278 2379.6 295.278 2388.2 295.478C2397.1 295.678 2406.1 296.078 2414.9 296.978C2423.9 297.778 2432.8 299.078 2441.6 300.678C2450.5 302.278 2459.4 304.278 2468.1 306.578C2468.6 306.678 2469.2 306.878 2469.7 306.978C2508.3 317.278 2549.6 331.178 2589.7 319.278C2628 307.978 2663.2 308.278 2702.2 312.078C2746.1 316.378 2784.9 320.478 2818.8 324.578C2838.9 326.978 2856.5 329.878 2871.7 333.378C2906.7 341.378 2936 354.278 2969.1 369.878C2988 378.778 3005.6 385.478 3024.8 391.178C3032.4 393.378 3038.5 394.778 3043.1 395.378C3060.1 397.378 3077.8 392.978 3094.1 387.378C3114.3 380.378 3134 372.278 3153.2 362.978C3177 351.378 3199.5 337.278 3224 327.178C3250.1 316.378 3276.1 305.978 3301.2 292.778C3316.5 284.778 3331 275.478 3342.9 262.878C3342.7 262.178 3342.4 261.678 3342 261.778Z" fill="black" fill-opacity="0.03"/>
<path d="M2672.1 634.678C2645.7 645.378 2617.7 652.078 2589.4 654.378C2538.5 658.578 2485.5 657.278 2434.6 653.178C2407.1 650.978 2378.3 647.778 2352.9 658.478C2306.7 677.978 2291.8 731.378 2282.6 775.878C2280.2 787.378 2274.8 798.178 2266.9 806.878C2263 811.178 2258.4 814.878 2253.6 818.178C2243.1 825.178 2231.3 830.478 2219.4 834.278C2207.3 838.178 2194.8 840.578 2182.2 841.978C2170.8 843.278 2159.3 843.778 2147.8 843.778C2095.3 843.878 2038.7 840.978 1989.1 858.278C1973.2 863.878 1950.3 875.478 1931 877.278C1923.7 877.978 1906.7 878.478 1880.1 878.978C1851.5 879.478 1823.9 879.478 1796.8 890.078C1766.4 901.978 1738.5 914.378 1705.8 918.378C1693.7 919.878 1682 920.678 1670.8 920.878C1629.2 921.478 1593.6 922.578 1555.1 927.078C1544.2 928.378 1531.8 930.878 1526 940.278C1525.2 941.678 1526 943.378 1527.5 943.678C1528.3 943.778 1529.2 944.078 1530.2 943.978C1555.2 941.178 1578.2 938.178 1605 939.378C1621.2 940.078 1642.8 942.778 1657.2 943.778C1697.8 946.378 1736.3 938.578 1774 923.878C1809.7 909.978 1834.7 900.878 1868.3 899.878C1903.9 898.878 1935.5 899.778 1968.3 886.578C1972.8 884.778 1982.4 880.478 1997.1 873.678C2027.4 859.678 2059 858.978 2092.1 862.678C2111.7 864.878 2124.5 866.178 2130.6 866.578C2158.8 868.478 2187.9 866.178 2217.9 859.478C2229.3 856.978 2240.4 853.078 2250.6 847.478C2260.8 841.978 2270.1 834.778 2277.5 825.878C2281.2 821.378 2284.3 816.378 2286.9 811.078C2292.6 799.478 2295.4 786.878 2297.8 774.278C2300.1 761.978 2302.1 749.478 2306 737.478C2317.8 701.978 2344.8 674.978 2382.4 668.978C2406.9 665.078 2431.8 668.578 2456.4 671.378C2503.5 676.778 2551.2 679.778 2598.3 674.378C2645.4 668.978 2692.1 654.978 2731.5 628.578C2761 608.778 2787.8 581.678 2822.9 575.878C2861.1 569.578 2898 590.478 2931 610.778C2954.8 625.378 2980.6 640.578 3007.4 645.678C3015.2 647.178 3019.1 636.678 3012.2 632.778C2982.3 615.878 2954 595.778 2923.3 580.178C2883.7 560.078 2836.8 547.778 2794.9 562.478C2767.3 572.178 2745 592.478 2720.7 608.678C2705.5 619.178 2689.1 627.778 2672.1 634.678Z" fill="black" fill-opacity="0.03"/>
<path d="M2400.1 526.378C2337.3 537.378 2279.1 577.478 2243.7 631.378C2223.6 661.978 2209 697.778 2180 720.278C2131.9 757.678 2073.5 740.478 2018.5 750.978C1961.7 761.878 1912 793.378 1853.7 798.578C1840 799.778 1825.2 799.278 1811.5 798.378C1747.6 794.378 1681.5 787.378 1619.9 809.678C1581.5 823.578 1547.9 847.278 1515.3 871.278C1486.8 892.178 1459.9 915.378 1427.5 930.078C1411.5 937.378 1393.1 939.378 1376.1 944.178C1358 949.278 1340.1 955.478 1323.2 963.778C1291.2 979.478 1253.2 974.678 1218.5 966.578C1197.3 961.578 1174.7 962.978 1154.1 969.978C1136 976.178 1120 987.178 1103.1 996.278C1100.5 997.678 1101.9 1001.58 1104.8 1001.18C1121.6 998.378 1137.6 989.978 1154.1 984.878C1174.5 978.578 1196.4 977.378 1217.4 981.178C1236.8 984.778 1255.4 992.678 1275 994.178C1307 996.578 1336.8 982.078 1366.2 971.878C1381.4 966.578 1396.5 965.078 1412 961.378C1428.4 957.478 1444.3 946.278 1457.7 936.478C1502.7 903.578 1548 870.478 1599.8 845.678C1631.2 830.678 1664.3 822.878 1699.2 822.378C1726.2 821.978 1753.2 822.978 1780.2 823.478C1802.6 823.978 1825.7 826.978 1848 824.178C1893.3 818.478 1934.3 795.678 1977.8 783.278C1988.3 780.278 1998.9 777.878 2009.7 776.378C2038.6 772.478 2068 775.778 2097.1 773.478C2144.5 769.578 2192.1 748.978 2220.3 710.678C2232.2 694.578 2240.3 675.978 2250.3 658.578C2286.1 595.978 2350.9 547.078 2423 543.678C2461.5 541.878 2499.3 552.578 2536.1 563.778C2572.9 574.978 2610.2 586.978 2648.7 587.678C2681.3 588.278 2715.4 579.678 2740.1 559.078C2745.2 554.878 2741.4 546.678 2734.9 547.678C2711.9 551.278 2689.9 562.478 2666.8 567.178C2596.3 581.278 2528.9 533.478 2457.6 524.578C2438.3 522.478 2419 523.078 2400.1 526.378Z" fill="black" fill-opacity="0.03"/>
<path d="M1453.8 987.478C1416.1 992.878 1380.2 1004.28 1343.8 1014.98C1313.4 1023.88 1282.3 1029.18 1250.6 1030.78C1241.4 1031.28 1232.2 1031.68 1222.9 1032.08C1213.8 1032.48 1204.7 1032.78 1195.6 1033.38C1186.6 1033.88 1177.6 1034.78 1168.6 1035.58C1159.6 1036.38 1150.5 1037.28 1141.5 1037.98C1132.5 1038.68 1123.6 1039.18 1114.6 1039.38C1105.8 1039.58 1096.9 1039.38 1088.1 1038.68C1085.6 1038.48 1083 1038.18 1080.5 1037.88C1062 1035.58 1046.7 1032.38 1034.5 1028.18C987.8 1012.18 953.5 1003.18 912.7 990.878C888.6 983.578 867.2 980.178 841.8 983.578C820.2 986.478 798.6 989.078 777 991.578C770.4 992.378 764 993.978 757.9 996.478C756.4 997.078 756 998.978 757.1 1000.08C757.6 1000.68 758.6 1001.08 760 1001.28C790 1006.88 820.3 1003.18 850.8 1001.28C873 999.878 895.2 1002.98 917.5 1010.58C948.7 1021.28 980.2 1031.18 1011.6 1041.38C1052.5 1054.68 1090.6 1061.88 1133.2 1058.58C1142.3 1057.88 1151.5 1057.18 1160.6 1056.48C1169.8 1055.78 1179 1055.08 1188.2 1054.38C1197.3 1053.68 1206.4 1053.08 1215.5 1052.78C1224.4 1052.58 1233.3 1052.08 1242.2 1051.58C1251.2 1051.18 1260.1 1050.58 1269.1 1049.78C1278 1048.98 1286.9 1047.88 1295.7 1046.48C1300.4 1045.68 1305 1044.88 1309.6 1043.88C1332.6 1038.88 1361 1031.88 1395 1022.68C1414.1 1017.58 1431.3 1013.68 1446.5 1011.08C1480.7 1005.28 1519.2 1007.48 1552.6 1018.78C1567.8 1023.88 1587.5 1034.08 1600.3 1039.48C1626.8 1050.68 1661.6 1054.18 1689 1043.48C1695.1 1041.08 1702.2 1037.78 1710.2 1033.58C1721.9 1027.38 1735.7 1022.38 1751.5 1018.48C1779.5 1011.58 1806.7 1014.18 1835.3 1020.48C1858 1025.48 1884.8 1032.68 1915.9 1042.18C1944.3 1050.88 1971.1 1058.18 2000.4 1059.68C2031.3 1061.18 2059 1055.88 2085.8 1062.78C2089.8 1063.78 2097.2 1066.38 2107.9 1070.48C2123.5 1076.38 2139 1081.48 2155.4 1084.58C2183 1089.88 2211.2 1091.58 2239 1096.08C2256.6 1098.88 2274.1 1101.88 2291.8 1104.28C2308.7 1106.58 2325.8 1108.28 2342.9 1108.88C2359.6 1109.38 2376.9 1109.18 2393.4 1106.38C2402.3 1104.88 2411.1 1103.18 2419.8 1101.08C2428.3 1099.08 2436.7 1097.08 2445.4 1095.98C2446.3 1095.88 2447.2 1095.78 2448.1 1095.68C2470.8 1093.48 2491.8 1097.38 2514.1 1100.78C2523.3 1102.18 2533.9 1102.18 2546 1100.68C2572.3 1097.48 2599.7 1089.78 2626.3 1083.68C2657.4 1076.58 2688.4 1076.88 2719.3 1084.78C2736.8 1089.18 2754.2 1093.68 2771.6 1098.28C2800.7 1105.78 2828.5 1112.08 2857.8 1110.68C2903 1108.58 2943.1 1086.88 2986.2 1076.18C3001.9 1072.28 3018.5 1070.58 3036 1071.28C3084 1073.08 3120.8 1105.78 3157.8 1132.68C3194.3 1159.28 3233.8 1169.38 3278.8 1169.88C3295.1 1170.08 3311.4 1170.18 3327.7 1170.28C3355 1170.38 3383.6 1174.38 3414.6 1179.38C3428 1181.58 3435.8 1182.78 3437.8 1182.98C3463.2 1185.38 3486.7 1179.08 3508.4 1164.28C3510.5 1162.88 3510.3 1162.28 3507.8 1162.68C3484.7 1166.38 3463.9 1167.58 3440.9 1161.98C3409 1154.18 3377.1 1145.98 3343.6 1143.58C3328.4 1142.48 3310.5 1142.88 3293.9 1142.48C3244.1 1141.18 3198 1129.88 3155.9 1102.88C3133.2 1088.28 3109.8 1071.38 3086 1061.28C3041.2 1042.28 2991.4 1048.08 2946.7 1064.48C2928.9 1070.98 2914.5 1076.08 2903.7 1079.78C2870.2 1091.08 2836.5 1092.58 2802.7 1084.18C2790.6 1081.18 2776 1075.88 2762.9 1071.28C2715.3 1054.68 2669 1054.48 2619.9 1064.68C2586.8 1071.58 2555.2 1076.88 2520.4 1076.78C2504.1 1076.78 2487.7 1076.58 2471.4 1076.78C2456.1 1076.98 2440.9 1077.48 2425.7 1078.98C2407.8 1080.68 2390 1083.68 2372.1 1085.08C2353.9 1086.48 2335.6 1086.68 2317.4 1085.58C2313.1 1085.28 2308.8 1084.98 2304.5 1084.58C2298.6 1083.98 2285.7 1082.08 2265.9 1078.88C2247.3 1075.88 2229.4 1073.88 2211.1 1071.98C2181.4 1068.78 2152.2 1063.58 2123.2 1056.38C2103 1051.38 2081.8 1043.48 2061 1041.38C2044.1 1039.68 2024.5 1040.88 2009 1039.98C1972.3 1037.78 1935.2 1025.58 1899.2 1015.58C1866.1 1006.38 1832.6 999.778 1798.3 996.378C1771.1 993.678 1741.4 991.678 1716.2 1003.68C1704.3 1009.38 1694.3 1013.88 1686.4 1017.18C1639.3 1036.78 1600.7 1014.28 1557.4 998.278C1523.5 986.078 1489.3 982.478 1453.8 987.478Z" fill="black" fill-opacity="0.03"/>
<path d="M1200 79.1781V105.678C1214.1 100.978 1230.3 93.3782 1241.2 89.5782C1279.4 76.2782 1320.6 72.9781 1360.9 79.3781C1369.3 80.6781 1386.3 83.4781 1412 87.8781C1436.6 91.9781 1466.5 93.5781 1484.8 95.7781C1518.8 99.7781 1549.7 112.178 1582 124.678C1612.6 136.478 1640.6 140.978 1672.9 141.678C1693.9 142.178 1715 142.378 1736 142.478C1777.3 142.578 1818.9 144.778 1859.7 143.278C1874.9 142.678 1892.9 139.178 1906.3 137.678C1921.8 135.978 1939.2 135.478 1958.5 136.078C1993.8 137.178 2028.7 141.778 2063.1 149.778C2092.8 156.678 2122.6 164.578 2151.4 174.678C2160.1 177.778 2170.7 181.378 2183.1 185.478C2210 194.478 2235.1 195.978 2262.9 192.978C2295.1 189.478 2326.7 182.678 2358.5 176.678C2397.4 169.278 2436.6 180.978 2475.7 176.478C2494.1 174.378 2513.6 168.178 2531.6 162.078C2544.6 157.678 2554.2 155.678 2566.7 155.378C2590 154.978 2610.6 157.978 2633.4 163.878C2651.5 168.578 2669.9 171.978 2688.5 174.278C2710.4 176.878 2729 181.878 2751.6 188.178C2782.3 196.778 2814.6 200.378 2848.5 199.178C2874.6 198.278 2906.9 194.378 2924.8 192.978C2948.6 191.078 2975.4 190.378 3005.2 190.878C3022.7 191.178 3041.2 193.078 3060.9 196.578C3086.6 201.178 3111.1 203.078 3137.2 201.378C3156.6 200.178 3177.5 196.878 3197.5 194.178C3242.1 188.278 3294.6 198.078 3333.9 220.278C3345.5 226.778 3357.1 233.078 3370 236.478C3387.1 240.978 3407.8 240.378 3425.6 238.478C3432.2 237.778 3438.9 237.078 3445.5 236.278C3452.2 235.578 3458.8 234.778 3465.5 234.078C3472.2 233.378 3478.9 232.778 3485.6 232.178C3492.3 231.578 3499 231.078 3505.7 230.678C3512.4 230.278 3519.1 229.978 3525.8 229.778C3532.5 229.578 3539.3 229.578 3546 229.678C3552.8 229.778 3559.6 230.078 3566.3 230.578C3573.1 231.078 3579.9 231.778 3586.7 232.678C3593.4 233.578 3600.1 234.678 3606.7 236.178C3613.3 237.678 3619.8 239.278 3626.4 240.778C3633 242.278 3639.6 243.678 3646.3 244.778C3652.9 245.878 3659.6 246.678 3666.3 246.978C3668.7 247.078 3671.1 247.178 3673.6 247.178C3697.3 247.178 3721.3 246.478 3745 247.878C3783.2 250.078 3821.6 254.878 3859.5 260.178C3865.4 260.978 3873.1 262.278 3882.6 264.078C3943.5 275.378 4006.6 277.378 4069.3 273.378C4104.2 271.178 4139.2 269.378 4174.2 268.078C4197.9 267.178 4221.7 264.778 4243.6 257.378C4260.6 251.678 4273.5 247.078 4290.7 244.078C4309.3 240.778 4327.7 237.178 4346.1 233.078C4355 231.078 4363.7 228.378 4372.4 224.878C4374.1 224.178 4374.2 223.378 4372.6 222.378C4372.3 222.178 4371.5 221.978 4370.2 221.778C4359.2 220.078 4348.2 219.578 4337 220.278C4306.5 222.278 4276.4 229.078 4246.5 235.378C4230.4 238.778 4211 241.178 4188 242.578C4144.9 245.278 4101.7 247.978 4058.6 250.778C4026.9 252.778 3993.2 253.778 3967.2 252.578C3950.4 251.778 3937.3 250.778 3928.1 249.478C3847.4 238.078 3772.9 229.178 3704.6 222.778C3689.3 221.378 3670.3 220.478 3647.7 220.278C3644.7 220.278 3641.6 220.078 3638.6 219.878C3633.6 219.578 3628.5 219.278 3623.5 218.878C3616.9 218.378 3610.3 217.878 3603.6 217.378C3596.8 216.878 3590 216.378 3583.2 216.178C3580.8 216.078 3578.4 216.078 3576 216.078C3534.3 215.878 3492.6 217.978 3451.1 222.278C3420.4 225.478 3391.2 230.578 3362 216.778C3337.1 204.978 3313.4 192.978 3286.2 184.178C3254.3 173.878 3220.7 171.578 3187.8 176.378C3149.6 181.878 3112.2 184.078 3076.4 177.978C3054.8 174.278 3041.2 171.978 3035.8 171.178C3013.8 167.778 2991.7 166.478 2969.6 166.278C2953.9 166.078 2939.6 166.978 2926.7 168.978C2909.3 171.678 2890.8 174.878 2874 175.678C2846.5 176.978 2818.4 174.478 2789.9 168.178C2750.7 159.478 2727.3 153.478 2689 147.478C2663.4 143.478 2637.8 139.578 2612.2 135.778C2580.4 131.078 2551.9 131.278 2520.8 140.078C2509.7 143.178 2498.6 146.278 2487.6 149.278C2453.8 158.478 2419.9 154.378 2385.5 155.578C2350 156.778 2315.7 166.978 2281.5 175.378C2280.1 175.678 2278.8 176.078 2277.4 176.378C2252.3 182.478 2224.6 184.578 2200.4 175.578C2198.9 175.078 2192.3 171.978 2180.6 166.278C2163.3 157.878 2145.2 151.778 2126.3 147.978C2091.6 140.978 2069.2 134.278 2040.6 127.178C2006.2 118.578 1971.1 116.678 1935.8 117.678C1892 118.978 1848.4 121.678 1804.6 122.778C1768.9 123.678 1733.1 124.578 1697.4 125.478C1663.5 126.378 1630.8 120.278 1599.5 107.378C1560.5 91.2781 1533.5 79.8781 1498.3 75.2781C1481.9 73.1781 1461.4 71.3781 1444.3 68.6781C1425.1 65.6781 1403.2 61.5781 1378.6 56.3781C1318.2 43.3781 1255.3 53.0781 1200 79.1781Z" fill="black" fill-opacity="0.03"/>
<path d="M3387.7 290.578C3365.5 313.878 3340.9 329.678 3311.4 341.378C3279.5 354.078 3248.1 364.778 3218.9 384.178C3207 392.078 3195 402.778 3183.4 412.478C3170.7 423.178 3155.6 432.078 3138 439.378C3088.7 459.878 3032.2 465.778 2981.3 446.978C2955.3 437.378 2937.7 422.678 2912.7 404.778C2900 395.678 2886.3 389.778 2871.7 386.978C2869.8 386.578 2862 385.678 2848.4 384.078C2832.4 382.178 2815.5 380.478 2800.4 378.178C2778.1 374.778 2755.9 370.678 2733.9 365.878C2716.4 362.078 2698.7 360.478 2680.8 361.278C2666.5 361.878 2641.4 365.978 2627 367.178C2608.1 368.778 2589.2 367.278 2570.6 362.878C2570.4 362.878 2570.2 362.678 2570.3 362.378C2570.3 362.178 2570.5 361.978 2570.7 361.978C2603.6 359.078 2636.4 351.878 2668.8 344.978C2678.9 342.878 2686.6 341.578 2691.9 341.278C2713.3 340.078 2739.9 345.878 2756.1 348.778C2786.9 354.278 2817.8 357.978 2849 360.078C2870.8 361.578 2891 367.578 2909.5 378.278C2918 383.178 2933.4 393.178 2945.2 400.678C2992.8 430.778 3049.3 444.278 3104.3 427.678C3129.7 419.978 3157.6 408.278 3177.4 392.478C3191.8 380.878 3201 373.578 3204.8 370.378C3223.3 355.178 3244.2 344.278 3267.3 337.778C3306.6 326.778 3342.3 318.778 3370.3 287.678C3377.8 279.378 3390.7 262.478 3401.4 259.078C3402.8 258.678 3404.3 259.678 3404.4 261.178C3405 270.078 3393.8 284.078 3387.7 290.578Z" fill="black" fill-opacity="0.03"/>
<path d="M3599.9 27.8782C3596.8 29.2782 3593.7 30.7782 3590.6 32.2782C3583.1 35.8782 3575.2 38.7782 3567.7 42.2782C3555.7 47.8782 3544 54.2782 3533.4 62.2782C3509.2 80.4782 3489.7 110.478 3458 116.378C3453.1 117.278 3445.3 117.478 3434.6 116.978C3403.8 115.578 3373.1 112.878 3342.5 108.978C3319.8 106.078 3296.9 100.778 3276.8 91.4782C3264.1 85.5782 3245.2 74.1782 3230.1 68.2782C3220.7 64.5782 3211.3 61.7782 3202 59.8782C3171.8 53.6782 3148 49.3782 3122.9 36.9782C3111.7 31.4782 3098.5 22.6782 3086.5 15.3782C3068.9 4.8782 3049.8 -0.121796 3029.1 0.378204C3005.9 0.878204 2982.5 2.27825 2959.6 2.17825C2940.8 2.17825 2917.6 0.578253 2902.8 0.178253C2894.4 -0.0217468 2832.5 1.07828 2833.4 14.0783C2833.4 14.4783 2833.6 14.7782 2833.9 14.9782C2835.9 16.2782 2837.8 17.0782 2839.7 17.3782C2861.6 21.6782 2884.1 22.9783 2907.1 21.0783C2942.9 18.2783 2971.6 15.9782 3004 16.8782C3026.3 17.4782 3047.2 20.5782 3066.6 31.4782C3073.6 35.3782 3083.4 42.1782 3091.1 46.3782C3105.6 54.1782 3122 60.7782 3140.2 66.2782C3161 72.5782 3181.7 78.8782 3202.5 85.2782C3220.6 90.8782 3239.8 101.978 3257.4 108.878C3275.9 116.178 3295 121.578 3314.7 124.778C3350.5 130.778 3386.2 136.778 3422.2 141.778C3452.9 146.078 3485.3 141.578 3506.3 117.978C3516.9 106.078 3528.8 95.2783 3541.5 85.5783C3554.2 75.9783 3567.7 67.4782 3581.7 59.7782C3596.9 51.4782 3612.8 44.3782 3629 37.8782C3631 37.0782 3633.1 36.2782 3635.1 35.4782C3661.9 25.2782 3689.8 20.3782 3719 20.8782C3724.2 20.9782 3729.7 20.5782 3734.8 20.9782C3807.9 27.1782 3866.3 28.4782 3932.5 26.7782C3946.5 26.3782 3960.3 25.4783 3974 24.0783C3974.5 24.0783 3974.5 23.3782 3974.1 23.2782C3948.8 13.4782 3924.2 9.57825 3897.2 9.17825C3865.1 8.67825 3837.9 7.47818 3815.8 5.47818C3798.9 3.97818 3782 2.3782 3765.1 1.3782C3748.1 0.278204 3731 -0.321747 3714 0.178253C3697.1 0.678253 3680.2 2.27828 3663.5 5.57828C3646.4 8.97828 3630.1 14.5782 3614.2 21.3782C3609.5 23.5782 3604.7 25.6782 3599.9 27.8782Z" fill="black" fill-opacity="0.03"/>
<path d="M2934.9 289.778C2937.7 283.078 2966.4 287.078 2972.2 288.678C2997.8 295.478 3022.5 304.178 3048.6 291.878C3057.5 287.678 3068.2 279.978 3076.3 276.278C3086.6 271.578 3097.5 268.978 3109.1 268.478C3141.3 267.278 3167.6 256.378 3196.8 244.578C3216.3 236.678 3238.4 232.578 3259.7 228.978C3262.4 228.578 3265.2 228.378 3268 228.678C3269.8 228.878 3270.7 230.978 3269.5 232.378C3262.6 240.578 3247.7 245.878 3237.1 249.078C3217.9 254.978 3203.2 260.078 3192.8 264.478C3169.9 274.178 3148.5 282.978 3126.2 285.478C3108.7 287.378 3091.4 285.678 3073.9 295.678C3064.5 301.078 3055.7 307.278 3045 310.878C3010.3 322.478 2974.6 308.578 2942.1 297.178C2938.8 295.978 2933.1 294.078 2934.9 289.778Z" fill="black" fill-opacity="0.03"/>
<path d="M3676 350.678C3625 321.178 3558.1 308.178 3503.1 334.478C3501.2 335.378 3494.3 339.078 3482.4 345.578C3447.1 364.778 3410.8 382.578 3378 406.078C3365.6 414.978 3352.8 425.878 3340.4 436.178C3320.4 452.878 3294.1 463.778 3269.7 474.778C3241.6 487.378 3220.6 502.478 3206.9 530.878C3199.6 546.078 3192.9 561.778 3182.9 576.078C3162.1 605.878 3133.4 633.278 3104.7 655.478C3080.5 674.278 3054.1 682.678 3023.6 684.278C3005.7 685.278 2984.2 684.478 2959.1 682.078C2941.5 680.378 2924.1 677.278 2907.1 672.678C2873.5 663.778 2842.3 653.278 2811.5 660.178C2781.6 666.878 2750.7 689.278 2727.3 708.278C2708 723.978 2688.1 738.778 2669.3 754.978C2651.8 770.178 2633.7 784.878 2614 797.278C2590.6 811.978 2564.7 823.278 2537.1 826.478C2510.7 829.478 2484.2 825.378 2457.8 824.778C2433.8 824.278 2410.8 827.978 2389.5 839.678C2374.7 847.778 2361.8 858.978 2347.3 867.578C2313.6 887.778 2274.2 895.878 2235.7 903.678C2198 911.278 2159.5 918.978 2121.3 914.778C2092.8 911.578 2064.9 901.778 2036.3 902.678C2006.8 903.578 1978.9 915.778 1952.3 928.578C1943.7 932.678 1935.1 936.978 1926.5 941.278C1915.8 946.678 1923.4 962.778 1934.3 957.978C1970.6 941.878 2006.2 921.478 2045.3 920.978C2072.1 920.578 2098 929.678 2124.5 933.578C2165.1 939.478 2206.5 932.978 2246.3 923.178C2294.3 911.378 2343.4 895.178 2385.7 869.278C2398.9 861.178 2412.9 849.578 2427.9 845.078C2442.4 840.778 2459.3 842.278 2474.2 843.678C2494.2 845.578 2514.3 849.478 2534.3 847.878C2560.3 845.878 2584.1 834.878 2606.7 822.678C2627.9 811.178 2647.8 797.378 2667 782.778C2668 782.078 2668.9 781.278 2669.9 780.578C2689.9 765.178 2709.3 748.978 2729.2 733.378C2748.3 718.478 2768.2 701.778 2790.7 692.678C2801.2 688.378 2812.3 685.478 2823.7 684.578C2847.9 682.678 2875.4 688.578 2899.1 693.478C2950.3 704.278 2999.7 710.378 3050.3 703.578C3082.6 699.278 3110.4 687.178 3135.6 665.878C3169.4 637.178 3198.5 603.178 3216.2 563.178C3225.3 542.678 3232.7 524.178 3251.4 510.978C3253.8 509.278 3260.7 505.478 3271.9 499.678C3286 492.378 3299.5 484.278 3312.5 475.078C3324.9 466.278 3340.5 452.978 3352 444.278C3380.7 422.578 3411.2 404.978 3442.7 387.678C3468.7 373.478 3493.7 356.578 3522.2 347.478C3553.5 337.478 3583.7 342.378 3614.7 351.378C3661.4 365.078 3704 390.278 3749.5 407.178C3763.4 412.278 3774.8 415.878 3783.7 417.878C3813.1 424.278 3843.5 420.878 3874 418.278C3907.7 415.378 3941.6 419.178 3974.8 427.178C4013 436.378 4039.7 443.578 4080.5 450.378C4104 454.378 4122.5 463.178 4141.8 477.178C4165.7 494.478 4188.3 513.278 4216.6 522.578C4222.7 524.578 4232.8 525.878 4243.2 525.678C4254.2 525.378 4255.6 509.578 4244.7 507.278C4231.3 504.478 4218.3 499.578 4204.8 492.678C4177.8 478.878 4152.4 461.978 4125.6 447.778C4107.3 438.178 4088.2 429.778 4068 424.878C4048.6 420.078 4028.5 419.278 4009.1 413.878C3991.9 409.078 3974.7 404.578 3957.5 400.178C3934.1 394.278 3913.4 394.378 3889.4 397.378C3871.7 399.578 3857.9 400.978 3848 401.378C3825.3 402.478 3803.7 402.478 3783.2 395.878C3747.7 384.378 3710.2 370.478 3676 350.678Z" fill="black" fill-opacity="0.03"/>
<path d="M4542 261.778C4524.4 265.978 4510.9 271.478 4492 279.978C4476.2 287.078 4460.1 293.378 4443.6 298.878C4416.1 308.078 4388.8 316.478 4363.4 330.678C4354.3 335.778 4343.2 343.478 4332.9 349.678C4316.9 359.378 4299.8 366.378 4281.6 370.878C4261.2 375.878 4241.4 373.478 4221.4 367.478C4193.4 359.078 4167.2 346.778 4140.7 334.778C4097.7 315.278 4050.1 305.578 4003.3 301.778C3935.9 296.178 3866 288.378 3797.4 294.178C3771.7 296.378 3753 297.478 3741.3 297.478C3726.2 297.478 3712.8 296.178 3700.9 293.578C3692 291.578 3683.2 289.678 3674.3 287.878C3665.4 286.078 3656.5 284.278 3647.6 282.678C3638.7 281.078 3629.9 279.678 3620.9 278.478C3611.8 277.278 3602.7 276.278 3593.6 275.678C3584.7 275.078 3575.7 274.678 3566.8 274.578C3557.8 274.478 3548.8 274.578 3539.8 274.878C3530.9 275.178 3522.1 275.678 3513.2 276.378C3504.6 276.978 3496 277.778 3487.5 278.678C3485.6 278.878 3483.6 279.278 3481.7 279.278C3442.7 283.478 3407.1 298.578 3379.3 326.578C3368.2 337.678 3356.2 351.178 3345.4 359.878C3326 375.578 3302.9 383.978 3280.1 393.478C3246.5 407.578 3225.8 430.278 3200.2 457.978C3170.4 490.178 3134.9 521.678 3097.2 546.978C3081.6 557.378 3060.7 570.878 3040.5 568.678C3019.1 566.278 2997.2 553.878 2979 542.078C2962.1 531.178 2947.1 522.178 2933.8 514.878C2890.8 491.378 2841.2 488.378 2793.3 490.478C2756.7 492.078 2722.4 492.078 2687.1 482.078C2664.4 475.678 2642.6 467.978 2620.8 458.978C2607 453.278 2593 448.078 2578.8 443.478C2574.8 442.178 2570.8 440.878 2566.8 439.478C2562.8 438.078 2558.7 436.678 2554.7 435.278C2550.7 433.878 2546.7 432.378 2542.6 430.878C2538.6 429.378 2534.6 427.878 2530.5 426.478C2526.5 424.978 2522.4 423.478 2518.4 421.978C2514.4 420.478 2510.3 418.978 2506.3 417.578C2502.3 416.078 2498.2 414.678 2494.2 413.278C2490.1 411.878 2486.1 410.478 2482 409.078C2477.9 407.678 2473.9 406.378 2469.8 405.178C2465.7 403.878 2461.6 402.678 2457.5 401.478C2453.4 400.278 2449.3 399.178 2445.1 398.178C2441 397.078 2436.8 396.178 2432.7 395.178C2428.5 394.278 2424.4 393.378 2420.2 392.678C2416 391.878 2411.8 391.278 2407.6 390.678C2403.2 390.078 2398.7 389.578 2394.3 389.278C2390.1 388.978 2385.9 388.778 2381.7 388.578C2377.5 388.478 2373.3 388.378 2369.2 388.378C2365.1 388.378 2360.9 388.578 2356.8 388.778C2352.7 388.978 2348.6 389.378 2344.5 389.778C2340.4 390.178 2336.3 390.778 2332.3 391.378C2328.2 392.078 2324.2 392.778 2320.2 393.678C2316.2 394.578 2312.2 395.578 2308.2 396.678C2304.2 397.778 2300.2 399.078 2296.3 400.478C2292.3 401.878 2288.4 403.378 2284.5 405.078C2283.5 405.478 2282.4 405.978 2281.4 406.478C2280.9 406.678 2280.4 406.978 2279.9 407.178C2279.7 407.278 2278.4 407.778 2278.4 407.878C2260.8 416.078 2248.3 422.578 2241 427.578C2215.8 444.478 2190.2 460.978 2164.3 476.878C2148.9 486.378 2134.6 496.378 2120 506.578C2108.6 514.478 2102.7 519.878 2097 531.478C2089.1 547.778 2079.1 566.578 2067 587.978C2052 614.578 2034.9 632.078 2011.7 657.678C2005.1 664.978 2000.3 671.178 1995.7 678.978C1995.5 679.278 1995.9 679.678 1996.2 679.478C2006 673.078 2016 666.778 2026.1 660.678C2035.2 655.178 2041.6 650.778 2045.5 647.578C2076 621.978 2091.6 584.078 2109.1 549.778C2117.2 533.778 2128 521.278 2141.3 512.278C2153.2 504.178 2168.8 494.678 2188.2 483.478C2216.8 466.978 2245.6 450.878 2274.6 435.078C2278.2 433.078 2281.8 431.178 2285.4 429.378C2289 427.578 2292.6 425.878 2296.3 424.178C2299.9 422.578 2303.5 421.078 2307.2 419.578C2310.8 418.178 2314.5 416.878 2318.2 415.578C2321.9 414.378 2325.5 413.278 2329.3 412.278C2333 411.278 2336.7 410.378 2340.5 409.678C2344.3 408.878 2348.1 408.278 2351.9 407.778C2355.7 407.278 2359.6 406.878 2363.5 406.578C2367.4 406.278 2371.4 406.178 2375.3 406.178C2379.3 406.178 2383.4 406.378 2387.4 406.578C2391.5 406.878 2395.7 407.178 2399.8 407.878C2404.2 408.678 2408.4 409.778 2412.7 410.778C2417 411.878 2421.3 412.878 2425.6 414.078C2429.9 415.178 2434.1 416.378 2438.4 417.578C2442.7 418.778 2446.9 420.078 2451.1 421.378C2455.3 422.678 2459.6 423.978 2463.8 425.378C2468 426.778 2472.2 428.178 2476.4 429.578C2480.6 431.078 2484.8 432.578 2488.9 434.078C2493.1 435.578 2497.2 437.178 2501.3 438.778C2503.2 439.478 2505.1 440.278 2507 441.078C2525.3 448.378 2543.5 455.878 2561.7 463.378C2586.2 473.578 2610.2 478.078 2635.4 486.778C2649.3 491.578 2664.5 497.278 2680.9 503.878C2706.5 514.178 2733.4 518.378 2761.6 516.478C2775.1 515.578 2788.5 514.478 2802 513.178C2846.9 508.878 2889 514.578 2928.4 537.278C2942.7 545.478 2956.8 554.278 2969.2 560.778C2986.8 569.978 3004.8 578.278 3023.2 585.578C3030.7 588.578 3035.4 590.378 3037.3 590.978C3068.9 600.778 3109.7 573.378 3133.1 553.478C3164.4 526.778 3192.3 496.178 3220.3 466.178C3234.7 450.778 3250.1 436.778 3268.9 426.878C3283.8 418.978 3300.5 411.078 3313.7 403.178C3340.3 387.278 3363.2 367.078 3386.9 347.378C3401.3 335.378 3418.5 326.078 3436.7 319.178C3444.7 316.178 3452.8 313.378 3461 310.978C3469.2 308.578 3477.5 306.478 3485.9 304.578C3494.3 302.778 3502.7 301.178 3511.2 299.978C3519.7 298.678 3528.2 297.678 3536.8 296.978C3545.3 296.278 3553.9 295.778 3562.5 295.478C3571.1 295.278 3579.6 295.278 3588.2 295.478C3597.1 295.678 3606.1 296.078 3614.9 296.978C3623.9 297.778 3632.8 299.078 3641.6 300.678C3650.5 302.278 3659.4 304.278 3668.1 306.578C3668.6 306.678 3669.2 306.878 3669.7 306.978C3708.3 317.278 3749.6 331.178 3789.7 319.278C3828 307.978 3863.2 308.278 3902.2 312.078C3946.1 316.378 3984.9 320.478 4018.8 324.578C4038.9 326.978 4056.5 329.878 4071.7 333.378C4106.7 341.378 4136 354.278 4169.1 369.878C4188 378.778 4205.6 385.478 4224.8 391.178C4232.4 393.378 4238.5 394.778 4243.1 395.378C4260.1 397.378 4277.8 392.978 4294.1 387.378C4314.3 380.378 4334 372.278 4353.2 362.978C4377 351.378 4399.5 337.278 4424 327.178C4450.1 316.378 4476.1 305.978 4501.2 292.778C4516.5 284.778 4531 275.478 4542.9 262.878C4542.7 262.178 4542.4 261.678 4542 261.778Z" fill="black" fill-opacity="0.03"/>
<path d="M3528.6 513.278C3508.2 531.078 3481 544.178 3459.6 564.178C3434.3 587.878 3418.5 617.978 3401.1 647.278C3392 662.478 3380.5 676.578 3365.2 685.478C3364.4 685.978 3363.5 685.178 3363.7 684.378C3364.8 680.178 3366.3 675.978 3368.4 671.678C3386.1 634.678 3407 599.478 3432.8 568.178C3447.9 549.778 3464.9 534.478 3486.7 524.478C3498.3 519.178 3512.2 515.278 3528.6 512.978C3528.9 512.878 3529 512.978 3528.6 513.278Z" fill="black" fill-opacity="0.03"/>
<path d="M3494.5 448.878C3486.6 451.078 3478.8 453.678 3471.2 456.878C3459.2 461.778 3447.8 467.878 3437.1 475.178C3407.5 495.578 3384.9 524.678 3365.6 554.978C3346 585.678 3329.2 618.278 3306.4 646.678C3239.8 730.078 3122.1 736.278 3023.4 734.578C2935.9 733.078 2844 728.378 2765.8 767.678C2694.6 803.478 2637.8 874.478 2558.4 881.078C2534 883.078 2509.4 878.678 2485 880.778C2435 885.178 2384.2 908.978 2336.9 924.678L2230 960.278C2217.7 964.378 2222.6 982.878 2235.3 980.178C2245.2 978.078 2255 974.778 2264.3 971.078C2291.4 960.178 2316.9 944.878 2345.1 937.578C2371.5 930.778 2399.3 931.378 2425.6 924.378C2444.9 919.278 2463 910.178 2482.6 905.878C2514.6 898.878 2548.1 905.178 2580.5 900.578C2643.8 891.678 2687.6 843.578 2740.7 813.778C2797.9 781.678 2861.4 758.878 2927.4 756.278C2979.3 754.178 3031.3 764.478 3083.2 760.778C3134.3 757.178 3183.3 740.178 3231.7 723.378C3255.7 715.078 3280.1 706.478 3300.2 691.078C3347.5 655.078 3361.5 590.578 3396.5 542.578C3439.6 483.478 3517.4 451.778 3589.5 464.078C3634.4 471.678 3675 494.478 3716.9 512.178C3741.3 522.478 3767.4 531.078 3793.6 533.978C3801.6 534.878 3803.9 523.378 3796.2 521.078C3750.7 507.578 3708.7 481.078 3665.7 462.078C3634.8 448.478 3605.9 440.178 3572 439.678C3546.1 439.378 3519.7 441.878 3494.5 448.878Z" fill="black" fill-opacity="0.03"/>
<path d="M3872.1 634.678C3845.7 645.378 3817.7 652.078 3789.4 654.378C3738.5 658.578 3685.5 657.278 3634.6 653.178C3607.1 650.978 3578.3 647.778 3552.9 658.478C3506.7 677.978 3491.8 731.378 3482.6 775.878C3480.2 787.378 3474.8 798.178 3466.9 806.878C3463 811.178 3458.4 814.878 3453.6 818.178C3443.1 825.178 3431.3 830.478 3419.4 834.278C3407.3 838.178 3394.8 840.578 3382.2 841.978C3370.8 843.278 3359.3 843.778 3347.8 843.778C3295.3 843.878 3238.7 840.978 3189.1 858.278C3173.2 863.878 3150.3 875.478 3131 877.278C3123.7 877.978 3106.7 878.478 3080.1 878.978C3051.5 879.478 3023.9 879.478 2996.8 890.078C2966.4 901.978 2938.5 914.378 2905.8 918.378C2893.7 919.878 2882 920.678 2870.8 920.878C2829.2 921.478 2793.6 922.578 2755.1 927.078C2744.2 928.378 2731.8 930.878 2726 940.278C2725.2 941.678 2726 943.378 2727.5 943.678C2728.3 943.778 2729.2 944.078 2730.2 943.978C2755.2 941.178 2778.2 938.178 2805 939.378C2821.2 940.078 2842.8 942.778 2857.2 943.778C2897.8 946.378 2936.3 938.578 2974 923.878C3009.7 909.978 3034.7 900.878 3068.3 899.878C3103.9 898.878 3135.5 899.778 3168.3 886.578C3172.8 884.778 3182.4 880.478 3197.1 873.678C3227.4 859.678 3259 858.978 3292.1 862.678C3311.7 864.878 3324.5 866.178 3330.6 866.578C3358.8 868.478 3387.9 866.178 3417.9 859.478C3429.3 856.978 3440.4 853.078 3450.6 847.478C3460.8 841.978 3470.1 834.778 3477.5 825.878C3481.2 821.378 3484.3 816.378 3486.9 811.078C3492.6 799.478 3495.4 786.878 3497.8 774.278C3500.1 761.978 3502.1 749.478 3506 737.478C3517.8 701.978 3544.8 674.978 3582.4 668.978C3606.9 665.078 3631.8 668.578 3656.4 671.378C3703.5 676.778 3751.2 679.778 3798.3 674.378C3845.4 668.978 3892.1 654.978 3931.5 628.578C3961 608.778 3987.8 581.678 4022.9 575.878C4061.1 569.578 4098 590.478 4131 610.778C4154.8 625.378 4180.6 640.578 4207.4 645.678C4215.2 647.178 4219.1 636.678 4212.2 632.778C4182.3 615.878 4154 595.778 4123.3 580.178C4083.7 560.078 4036.8 547.778 3994.9 562.478C3967.3 572.178 3945 592.478 3920.7 608.678C3905.5 619.178 3889.1 627.778 3872.1 634.678Z" fill="black" fill-opacity="0.03"/>
<path d="M3600.1 526.378C3537.3 537.378 3479.1 577.478 3443.7 631.378C3423.6 661.978 3409 697.778 3380 720.278C3331.9 757.678 3273.5 740.478 3218.5 750.978C3161.7 761.878 3112 793.378 3053.7 798.578C3040 799.778 3025.2 799.278 3011.5 798.378C2947.6 794.378 2881.5 787.378 2819.9 809.678C2781.5 823.578 2747.9 847.278 2715.3 871.278C2686.8 892.178 2659.9 915.378 2627.5 930.078C2611.5 937.378 2593.1 939.378 2576.1 944.178C2558 949.278 2540.1 955.478 2523.2 963.778C2491.2 979.478 2453.2 974.678 2418.5 966.578C2397.3 961.578 2374.7 962.978 2354.1 969.978C2336 976.178 2320 987.178 2303.1 996.278C2300.5 997.678 2301.9 1001.58 2304.8 1001.18C2321.6 998.378 2337.6 989.978 2354.1 984.878C2374.5 978.578 2396.4 977.378 2417.4 981.178C2436.8 984.778 2455.4 992.678 2475 994.178C2507 996.578 2536.8 982.078 2566.2 971.878C2581.4 966.578 2596.5 965.078 2612 961.378C2628.4 957.478 2644.3 946.278 2657.7 936.478C2702.7 903.578 2748 870.478 2799.8 845.678C2831.2 830.678 2864.3 822.878 2899.2 822.378C2926.2 821.978 2953.2 822.978 2980.2 823.478C3002.6 823.978 3025.7 826.978 3048 824.178C3093.3 818.478 3134.3 795.678 3177.8 783.278C3188.3 780.278 3198.9 777.878 3209.7 776.378C3238.6 772.478 3268 775.778 3297.1 773.478C3344.5 769.578 3392.1 748.978 3420.3 710.678C3432.2 694.578 3440.3 675.978 3450.3 658.578C3486.1 595.978 3550.9 547.078 3623 543.678C3661.5 541.878 3699.3 552.578 3736.1 563.778C3772.9 574.978 3810.2 586.978 3848.7 587.678C3881.3 588.278 3915.4 579.678 3940.1 559.078C3945.2 554.878 3941.4 546.678 3934.9 547.678C3911.9 551.278 3889.9 562.478 3866.8 567.178C3796.3 581.278 3728.9 533.478 3657.6 524.578C3638.3 522.478 3619 523.078 3600.1 526.378Z" fill="black" fill-opacity="0.03"/>
<path d="M2653.8 987.478C2616.1 992.878 2580.2 1004.28 2543.8 1014.98C2513.4 1023.88 2482.3 1029.18 2450.6 1030.78C2441.4 1031.28 2432.2 1031.68 2422.9 1032.08C2413.8 1032.48 2404.7 1032.78 2395.6 1033.38C2386.6 1033.88 2377.6 1034.78 2368.6 1035.58C2359.6 1036.38 2350.5 1037.28 2341.5 1037.98C2332.5 1038.68 2323.6 1039.18 2314.6 1039.38C2305.8 1039.58 2296.9 1039.38 2288.1 1038.68C2285.6 1038.48 2283 1038.18 2280.5 1037.88C2262 1035.58 2246.7 1032.38 2234.5 1028.18C2187.8 1012.18 2153.5 1003.18 2112.7 990.878C2088.6 983.578 2067.2 980.178 2041.8 983.578C2020.2 986.478 1998.6 989.078 1977 991.578C1970.4 992.378 1964 993.978 1957.9 996.478C1956.4 997.078 1956 998.978 1957.1 1000.08C1957.6 1000.68 1958.6 1001.08 1960 1001.28C1990 1006.88 2020.3 1003.18 2050.8 1001.28C2073 999.878 2095.2 1002.98 2117.5 1010.58C2148.7 1021.28 2180.2 1031.18 2211.6 1041.38C2252.5 1054.68 2290.6 1061.88 2333.2 1058.58C2342.3 1057.88 2351.5 1057.18 2360.6 1056.48C2369.8 1055.78 2379 1055.08 2388.2 1054.38C2397.3 1053.68 2406.4 1053.08 2415.5 1052.78C2424.4 1052.58 2433.3 1052.08 2442.2 1051.58C2451.2 1051.18 2460.1 1050.58 2469.1 1049.78C2478 1048.98 2486.9 1047.88 2495.7 1046.48C2500.4 1045.68 2505 1044.88 2509.6 1043.88C2532.6 1038.88 2561 1031.88 2595 1022.68C2614.1 1017.58 2631.3 1013.68 2646.5 1011.08C2680.7 1005.28 2719.2 1007.48 2752.6 1018.78C2767.8 1023.88 2787.5 1034.08 2800.3 1039.48C2826.8 1050.68 2861.6 1054.18 2889 1043.48C2895.1 1041.08 2902.2 1037.78 2910.2 1033.58C2921.9 1027.38 2935.7 1022.38 2951.5 1018.48C2979.5 1011.58 3006.7 1014.18 3035.3 1020.48C3058 1025.48 3084.8 1032.68 3115.9 1042.18C3144.3 1050.88 3171.1 1058.18 3200.4 1059.68C3231.3 1061.18 3259 1055.88 3285.8 1062.78C3289.8 1063.78 3297.2 1066.38 3307.9 1070.48C3323.5 1076.38 3339 1081.48 3355.4 1084.58C3383 1089.88 3411.2 1091.58 3439 1096.08C3456.6 1098.88 3474.1 1101.88 3491.8 1104.28C3508.7 1106.58 3525.8 1108.28 3542.9 1108.88C3559.6 1109.38 3576.9 1109.18 3593.4 1106.38C3602.3 1104.88 3611.1 1103.18 3619.8 1101.08C3628.3 1099.08 3636.7 1097.08 3645.4 1095.98C3646.3 1095.88 3647.2 1095.78 3648.1 1095.68C3670.8 1093.48 3691.8 1097.38 3714.1 1100.78C3723.3 1102.18 3733.9 1102.18 3746 1100.68C3772.3 1097.48 3799.7 1089.78 3826.3 1083.68C3857.4 1076.58 3888.4 1076.88 3919.3 1084.78C3936.8 1089.18 3954.2 1093.68 3971.6 1098.28C4000.7 1105.78 4028.5 1112.08 4057.8 1110.68C4103 1108.58 4143.1 1086.88 4186.2 1076.18C4201.9 1072.28 4218.5 1070.58 4236 1071.28C4284 1073.08 4320.8 1105.78 4357.8 1132.68C4394.3 1159.28 4433.8 1169.38 4478.8 1169.88C4495.1 1170.08 4511.4 1170.18 4527.7 1170.28C4555 1170.38 4583.6 1174.38 4614.6 1179.38C4628 1181.58 4635.8 1182.78 4637.8 1182.98C4663.2 1185.38 4686.7 1179.08 4708.4 1164.28C4710.5 1162.88 4710.3 1162.28 4707.8 1162.68C4684.7 1166.38 4663.9 1167.58 4640.9 1161.98C4609 1154.18 4577.1 1145.98 4543.6 1143.58C4528.4 1142.48 4510.5 1142.88 4493.9 1142.48C4444.1 1141.18 4398 1129.88 4355.9 1102.88C4333.2 1088.28 4309.8 1071.38 4286 1061.28C4241.2 1042.28 4191.4 1048.08 4146.7 1064.48C4128.9 1070.98 4114.5 1076.08 4103.7 1079.78C4070.2 1091.08 4036.5 1092.58 4002.7 1084.18C3990.6 1081.18 3976 1075.88 3962.9 1071.28C3915.3 1054.68 3869 1054.48 3819.9 1064.68C3786.8 1071.58 3755.2 1076.88 3720.4 1076.78C3704.1 1076.78 3687.7 1076.58 3671.4 1076.78C3656.1 1076.98 3640.9 1077.48 3625.7 1078.98C3607.8 1080.68 3590 1083.68 3572.1 1085.08C3553.9 1086.48 3535.6 1086.68 3517.4 1085.58C3513.1 1085.28 3508.8 1084.98 3504.5 1084.58C3498.6 1083.98 3485.7 1082.08 3465.9 1078.88C3447.3 1075.88 3429.4 1073.88 3411.1 1071.98C3381.4 1068.78 3352.2 1063.58 3323.2 1056.38C3303 1051.38 3281.8 1043.48 3261 1041.38C3244.1 1039.68 3224.5 1040.88 3209 1039.98C3172.3 1037.78 3135.2 1025.58 3099.2 1015.58C3066.1 1006.38 3032.6 999.778 2998.3 996.378C2971.1 993.678 2941.4 991.678 2916.2 1003.68C2904.3 1009.38 2894.3 1013.88 2886.4 1017.18C2839.3 1036.78 2800.7 1014.28 2757.4 998.278C2723.5 986.078 2689.3 982.478 2653.8 987.478Z" fill="black" fill-opacity="0.03"/>
<path d="M4876 350.678C4825 321.178 4758.1 308.178 4703.1 334.478C4701.2 335.378 4694.3 339.078 4682.4 345.578C4647.1 364.778 4610.8 382.578 4578 406.078C4565.6 414.978 4552.8 425.878 4540.4 436.178C4520.4 452.878 4494.1 463.778 4469.7 474.778C4441.6 487.378 4420.6 502.478 4406.9 530.878C4399.6 546.078 4392.9 561.778 4382.9 576.078C4362.1 605.878 4333.4 633.278 4304.7 655.478C4280.5 674.278 4254.1 682.678 4223.6 684.278C4205.7 685.278 4184.2 684.478 4159.1 682.078C4141.5 680.378 4124.1 677.278 4107.1 672.678C4073.5 663.778 4042.3 653.278 4011.5 660.178C3981.6 666.878 3950.7 689.278 3927.3 708.278C3908 723.978 3888.1 738.778 3869.3 754.978C3851.8 770.178 3833.7 784.878 3814 797.278C3790.6 811.978 3764.7 823.278 3737.1 826.478C3710.7 829.478 3684.2 825.378 3657.8 824.778C3633.8 824.278 3610.8 827.978 3589.5 839.678C3574.7 847.778 3561.8 858.978 3547.3 867.578C3513.6 887.778 3474.2 895.878 3435.7 903.678C3398 911.278 3359.5 918.978 3321.3 914.778C3292.8 911.578 3264.9 901.778 3236.3 902.678C3206.8 903.578 3178.9 915.778 3152.3 928.578C3143.7 932.678 3135.1 936.978 3126.5 941.278C3115.8 946.678 3123.4 962.778 3134.3 957.978C3170.6 941.878 3206.2 921.478 3245.3 920.978C3272.1 920.578 3298 929.678 3324.5 933.578C3365.1 939.478 3406.5 932.978 3446.3 923.178C3494.3 911.378 3543.4 895.178 3585.7 869.278C3598.9 861.178 3612.9 849.578 3627.9 845.078C3642.4 840.778 3659.3 842.278 3674.2 843.678C3694.2 845.578 3714.3 849.478 3734.3 847.878C3760.3 845.878 3784.1 834.878 3806.7 822.678C3827.9 811.178 3847.8 797.378 3867 782.778C3868 782.078 3868.9 781.278 3869.9 780.578C3889.9 765.178 3909.3 748.978 3929.2 733.378C3948.3 718.478 3968.2 701.778 3990.7 692.678C4001.2 688.378 4012.3 685.478 4023.7 684.578C4047.9 682.678 4075.4 688.578 4099.1 693.478C4150.3 704.278 4199.7 710.378 4250.3 703.578C4282.6 699.278 4310.4 687.178 4335.6 665.878C4369.4 637.178 4398.5 603.178 4416.2 563.178C4425.3 542.678 4432.7 524.178 4451.4 510.978C4453.8 509.278 4460.7 505.478 4471.9 499.678C4486 492.378 4499.5 484.278 4512.5 475.078C4524.9 466.278 4540.5 452.978 4552 444.278C4580.7 422.578 4611.2 404.978 4642.7 387.678C4668.7 373.478 4693.7 356.578 4722.2 347.478C4753.5 337.478 4783.7 342.378 4814.7 351.378C4861.4 365.078 4904 390.278 4949.5 407.178C4963.4 412.278 4974.8 415.878 4983.7 417.878C5013.1 424.278 5043.5 420.878 5074 418.278C5107.7 415.378 5141.6 419.178 5174.8 427.178C5213 436.378 5239.7 443.578 5280.5 450.378C5304 454.378 5322.5 463.178 5341.8 477.178C5365.7 494.478 5388.3 513.278 5416.6 522.578C5422.7 524.578 5432.8 525.878 5443.2 525.678C5454.2 525.378 5455.6 509.578 5444.7 507.278C5431.3 504.478 5418.3 499.578 5404.8 492.678C5377.8 478.878 5352.4 461.978 5325.6 447.778C5307.3 438.178 5288.2 429.778 5268 424.878C5248.6 420.078 5228.5 419.278 5209.1 413.878C5191.9 409.078 5174.7 404.578 5157.5 400.178C5134.1 394.278 5113.4 394.378 5089.4 397.378C5071.7 399.578 5057.9 400.978 5048 401.378C5025.3 402.478 5003.7 402.478 4983.2 395.878C4947.7 384.378 4910.2 370.478 4876 350.678Z" fill="black" fill-opacity="0.03"/>
<path d="M5742 261.778C5724.4 265.978 5710.9 271.478 5692 279.978C5676.2 287.078 5660.1 293.378 5643.6 298.878C5616.1 308.078 5588.8 316.478 5563.4 330.678C5554.3 335.778 5543.2 343.478 5532.9 349.678C5516.9 359.378 5499.8 366.378 5481.6 370.878C5461.2 375.878 5441.4 373.478 5421.4 367.478C5393.4 359.078 5367.2 346.778 5340.7 334.778C5297.7 315.278 5250.1 305.578 5203.3 301.778C5135.9 296.178 5066 288.378 4997.4 294.178C4971.7 296.378 4953 297.478 4941.3 297.478C4926.2 297.478 4912.8 296.178 4900.9 293.578C4892 291.578 4883.2 289.678 4874.3 287.878C4865.4 286.078 4856.5 284.278 4847.6 282.678C4838.7 281.078 4829.9 279.678 4820.9 278.478C4811.8 277.278 4802.7 276.278 4793.6 275.678C4784.7 275.078 4775.7 274.678 4766.8 274.578C4757.8 274.478 4748.8 274.578 4739.8 274.878C4730.9 275.178 4722.1 275.678 4713.2 276.378C4704.6 276.978 4696 277.778 4687.5 278.678C4685.6 278.878 4683.6 279.278 4681.7 279.278C4642.7 283.478 4607.1 298.578 4579.3 326.578C4568.2 337.678 4556.2 351.178 4545.4 359.878C4526 375.578 4502.9 383.978 4480.1 393.478C4446.5 407.578 4425.8 430.278 4400.2 457.978C4370.4 490.178 4334.9 521.678 4297.2 546.978C4281.6 557.378 4260.7 570.878 4240.5 568.678C4219.1 566.278 4197.2 553.878 4179 542.078C4162.1 531.178 4147.1 522.178 4133.8 514.878C4090.8 491.378 4041.2 488.378 3993.3 490.478C3956.7 492.078 3922.4 492.078 3887.1 482.078C3864.4 475.678 3842.6 467.978 3820.8 458.978C3807 453.278 3793 448.078 3778.8 443.478C3774.8 442.178 3770.8 440.878 3766.8 439.478C3762.8 438.078 3758.7 436.678 3754.7 435.278C3750.7 433.878 3746.7 432.378 3742.6 430.878C3738.6 429.378 3734.6 427.878 3730.5 426.478C3726.5 424.978 3722.4 423.478 3718.4 421.978C3714.4 420.478 3710.3 418.978 3706.3 417.578C3702.3 416.078 3698.2 414.678 3694.2 413.278C3690.1 411.878 3686.1 410.478 3682 409.078C3677.9 407.678 3673.9 406.378 3669.8 405.178C3665.7 403.878 3661.6 402.678 3657.5 401.478C3653.4 400.278 3649.3 399.178 3645.1 398.178C3641 397.078 3636.8 396.178 3632.7 395.178C3628.5 394.278 3624.4 393.378 3620.2 392.678C3616 391.878 3611.8 391.278 3607.6 390.678C3603.2 390.078 3598.7 389.578 3594.3 389.278C3590.1 388.978 3585.9 388.778 3581.7 388.578C3577.5 388.478 3573.3 388.378 3569.2 388.378C3565.1 388.378 3560.9 388.578 3556.8 388.778C3552.7 388.978 3548.6 389.378 3544.5 389.778C3540.4 390.178 3536.3 390.778 3532.3 391.378C3528.2 392.078 3524.2 392.778 3520.2 393.678C3516.2 394.578 3512.2 395.578 3508.2 396.678C3504.2 397.778 3500.2 399.078 3496.3 400.478C3492.3 401.878 3488.4 403.378 3484.5 405.078C3483.5 405.478 3482.4 405.978 3481.4 406.478C3480.9 406.678 3480.4 406.978 3479.9 407.178C3479.7 407.278 3478.4 407.778 3478.4 407.878C3460.8 416.078 3448.3 422.578 3441 427.578C3415.8 444.478 3390.2 460.978 3364.3 476.878C3348.9 486.378 3334.6 496.378 3320 506.578C3308.6 514.478 3302.7 519.878 3297 531.478C3289.1 547.778 3279.1 566.578 3267 587.978C3252 614.578 3234.9 632.078 3211.7 657.678C3205.1 664.978 3200.3 671.178 3195.7 678.978C3195.5 679.278 3195.9 679.678 3196.2 679.478C3206 673.078 3216 666.778 3226.1 660.678C3235.2 655.178 3241.6 650.778 3245.5 647.578C3276 621.978 3291.6 584.078 3309.1 549.778C3317.2 533.778 3328 521.278 3341.3 512.278C3353.2 504.178 3368.8 494.678 3388.2 483.478C3416.8 466.978 3445.6 450.878 3474.6 435.078C3478.2 433.078 3481.8 431.178 3485.4 429.378C3489 427.578 3492.6 425.878 3496.3 424.178C3499.9 422.578 3503.5 421.078 3507.2 419.578C3510.8 418.178 3514.5 416.878 3518.2 415.578C3521.9 414.378 3525.5 413.278 3529.3 412.278C3533 411.278 3536.7 410.378 3540.5 409.678C3544.3 408.878 3548.1 408.278 3551.9 407.778C3555.7 407.278 3559.6 406.878 3563.5 406.578C3567.4 406.278 3571.4 406.178 3575.3 406.178C3579.3 406.178 3583.4 406.378 3587.4 406.578C3591.5 406.878 3595.7 407.178 3599.8 407.878C3604.2 408.678 3608.4 409.778 3612.7 410.778C3617 411.878 3621.3 412.878 3625.6 414.078C3629.9 415.178 3634.1 416.378 3638.4 417.578C3642.7 418.778 3646.9 420.078 3651.1 421.378C3655.3 422.678 3659.6 423.978 3663.8 425.378C3668 426.778 3672.2 428.178 3676.4 429.578C3680.6 431.078 3684.8 432.578 3688.9 434.078C3693.1 435.578 3697.2 437.178 3701.3 438.778C3703.2 439.478 3705.1 440.278 3707 441.078C3725.3 448.378 3743.5 455.878 3761.7 463.378C3786.2 473.578 3810.2 478.078 3835.4 486.778C3849.3 491.578 3864.5 497.278 3880.9 503.878C3906.5 514.178 3933.4 518.378 3961.6 516.478C3975.1 515.578 3988.5 514.478 4002 513.178C4046.9 508.878 4089 514.578 4128.4 537.278C4142.7 545.478 4156.8 554.278 4169.2 560.778C4186.8 569.978 4204.8 578.278 4223.2 585.578C4230.7 588.578 4235.4 590.378 4237.3 590.978C4268.9 600.778 4309.7 573.378 4333.1 553.478C4364.4 526.778 4392.3 496.178 4420.3 466.178C4434.7 450.778 4450.1 436.778 4468.9 426.878C4483.8 418.978 4500.5 411.078 4513.7 403.178C4540.3 387.278 4563.2 367.078 4586.9 347.378C4601.3 335.378 4618.5 326.078 4636.7 319.178C4644.7 316.178 4652.8 313.378 4661 310.978C4669.2 308.578 4677.5 306.478 4685.9 304.578C4694.3 302.778 4702.7 301.178 4711.2 299.978C4719.7 298.678 4728.2 297.678 4736.8 296.978C4745.3 296.278 4753.9 295.778 4762.5 295.478C4771.1 295.278 4779.6 295.278 4788.2 295.478C4797.1 295.678 4806.1 296.078 4814.9 296.978C4823.9 297.778 4832.8 299.078 4841.6 300.678C4850.5 302.278 4859.4 304.278 4868.1 306.578C4868.6 306.678 4869.2 306.878 4869.7 306.978C4908.3 317.278 4949.6 331.178 4989.7 319.278C5028 307.978 5063.2 308.278 5102.2 312.078C5146.1 316.378 5184.9 320.478 5218.8 324.578C5238.9 326.978 5256.5 329.878 5271.7 333.378C5306.7 341.378 5336 354.278 5369.1 369.878C5388 378.778 5405.6 385.478 5424.8 391.178C5432.4 393.378 5438.5 394.778 5443.1 395.378C5460.1 397.378 5477.8 392.978 5494.1 387.378C5514.3 380.378 5534 372.278 5553.2 362.978C5577 351.378 5599.5 337.278 5624 327.178C5650.1 316.378 5676.1 305.978 5701.2 292.778C5716.5 284.778 5731 275.478 5742.9 262.878C5742.7 262.178 5742.4 261.678 5742 261.778Z" fill="black" fill-opacity="0.03"/>
<path d="M4694.5 448.878C4686.6 451.078 4678.8 453.678 4671.2 456.878C4659.2 461.778 4647.8 467.878 4637.1 475.178C4607.5 495.578 4584.9 524.678 4565.6 554.978C4546 585.678 4529.2 618.278 4506.4 646.678C4439.8 730.078 4322.1 736.278 4223.4 734.578C4135.9 733.078 4044 728.378 3965.8 767.678C3894.6 803.478 3837.8 874.478 3758.4 881.078C3734 883.078 3709.4 878.678 3685 880.778C3635 885.178 3584.2 908.978 3536.9 924.678L3430 960.278C3417.7 964.378 3422.6 982.878 3435.3 980.178C3445.2 978.078 3455 974.778 3464.3 971.078C3491.4 960.178 3516.9 944.878 3545.1 937.578C3571.5 930.778 3599.3 931.378 3625.6 924.378C3644.9 919.278 3663 910.178 3682.6 905.878C3714.6 898.878 3748.1 905.178 3780.5 900.578C3843.8 891.678 3887.6 843.578 3940.7 813.778C3997.9 781.678 4061.4 758.878 4127.4 756.278C4179.3 754.178 4231.3 764.478 4283.2 760.778C4334.3 757.178 4383.3 740.178 4431.7 723.378C4455.7 715.078 4480.1 706.478 4500.2 691.078C4547.5 655.078 4561.5 590.578 4596.5 542.578C4639.6 483.478 4717.4 451.778 4789.5 464.078C4834.4 471.678 4875 494.478 4916.9 512.178C4941.3 522.478 4967.4 531.078 4993.6 533.978C5001.6 534.878 5003.9 523.378 4996.2 521.078C4950.7 507.578 4908.7 481.078 4865.7 462.078C4834.8 448.478 4805.9 440.178 4772 439.678C4746.1 439.378 4719.7 441.878 4694.5 448.878Z" fill="black" fill-opacity="0.03"/>
<path d="M4800.1 526.378C4737.3 537.378 4679.1 577.478 4643.7 631.378C4623.6 661.978 4609 697.778 4580 720.278C4531.9 757.678 4473.5 740.478 4418.5 750.978C4361.7 761.878 4312 793.378 4253.7 798.578C4240 799.778 4225.2 799.278 4211.5 798.378C4147.6 794.378 4081.5 787.378 4019.9 809.678C3981.5 823.578 3947.9 847.278 3915.3 871.278C3886.8 892.178 3859.9 915.378 3827.5 930.078C3811.5 937.378 3793.1 939.378 3776.1 944.178C3758 949.278 3740.1 955.478 3723.2 963.778C3691.2 979.478 3653.2 974.678 3618.5 966.578C3597.3 961.578 3574.7 962.978 3554.1 969.978C3536 976.178 3520 987.178 3503.1 996.278C3500.5 997.678 3501.9 1001.58 3504.8 1001.18C3521.6 998.378 3537.6 989.978 3554.1 984.878C3574.5 978.578 3596.4 977.378 3617.4 981.178C3636.8 984.778 3655.4 992.678 3675 994.178C3707 996.578 3736.8 982.078 3766.2 971.878C3781.4 966.578 3796.5 965.078 3812 961.378C3828.4 957.478 3844.3 946.278 3857.7 936.478C3902.7 903.578 3948 870.478 3999.8 845.678C4031.2 830.678 4064.3 822.878 4099.2 822.378C4126.2 821.978 4153.2 822.978 4180.2 823.478C4202.6 823.978 4225.7 826.978 4248 824.178C4293.3 818.478 4334.3 795.678 4377.8 783.278C4388.3 780.278 4398.9 777.878 4409.7 776.378C4438.6 772.478 4468 775.778 4497.1 773.478C4544.5 769.578 4592.1 748.978 4620.3 710.678C4632.2 694.578 4640.3 675.978 4650.3 658.578C4686.1 595.978 4750.9 547.078 4823 543.678C4861.5 541.878 4899.3 552.578 4936.1 563.778C4972.9 574.978 5010.2 586.978 5048.7 587.678C5081.3 588.278 5115.4 579.678 5140.1 559.078C5145.2 554.878 5141.4 546.678 5134.9 547.678C5111.9 551.278 5089.9 562.478 5066.8 567.178C4996.3 581.278 4928.9 533.478 4857.6 524.578C4838.3 522.478 4819 523.078 4800.1 526.378Z" fill="black" fill-opacity="0.03"/>
<path d="M3699.2 781.378C3692.9 783.178 3686.4 784.378 3679.8 785.178C3673.3 785.978 3666.7 786.278 3660.1 786.378C3653.5 786.478 3646.9 786.278 3640.2 785.978C3633.5 785.678 3626.9 785.378 3620.2 785.078C3613.5 784.778 3606.7 784.478 3600 784.778C3594.3 785.078 3588.7 785.778 3583.2 786.878C3577.8 787.978 3572.4 789.378 3567.2 791.178C3562 793.078 3556.9 795.378 3552.2 798.178C3549.3 799.878 3546.6 801.878 3544 804.078C3543.4 804.578 3543.9 805.478 3544.6 805.278C3551 803.578 3557.4 801.978 3563.9 800.578C3570.3 799.278 3576.8 798.278 3583.3 797.678C3590 797.078 3596.6 796.978 3603.3 797.478C3610.1 798.078 3616.9 798.878 3623.7 799.678C3627.4 800.078 3631 800.578 3634.7 801.078C3669.7 805.578 3703.1 797.378 3737.4 785.778C3755.4 779.678 3768.2 773.278 3781 760.778C3781.3 760.478 3781 759.978 3780.6 760.078C3753.1 766.078 3726.3 773.778 3699.2 781.378Z" fill="black" fill-opacity="0.03"/>
<path d="M3853.8 987.478C3816.1 992.878 3780.2 1004.28 3743.8 1014.98C3713.4 1023.88 3682.3 1029.18 3650.6 1030.78C3641.4 1031.28 3632.2 1031.68 3622.9 1032.08C3613.8 1032.48 3604.7 1032.78 3595.6 1033.38C3586.6 1033.88 3577.6 1034.78 3568.6 1035.58C3559.6 1036.38 3550.5 1037.28 3541.5 1037.98C3532.5 1038.68 3523.6 1039.18 3514.6 1039.38C3505.8 1039.58 3496.9 1039.38 3488.1 1038.68C3485.6 1038.48 3483 1038.18 3480.5 1037.88C3462 1035.58 3446.7 1032.38 3434.5 1028.18C3387.8 1012.18 3353.5 1003.18 3312.7 990.878C3288.6 983.578 3267.2 980.178 3241.8 983.578C3220.2 986.478 3198.6 989.078 3177 991.578C3170.4 992.378 3164 993.978 3157.9 996.478C3156.4 997.078 3156 998.978 3157.1 1000.08C3157.6 1000.68 3158.6 1001.08 3160 1001.28C3190 1006.88 3220.3 1003.18 3250.8 1001.28C3273 999.878 3295.2 1002.98 3317.5 1010.58C3348.7 1021.28 3380.2 1031.18 3411.6 1041.38C3452.5 1054.68 3490.6 1061.88 3533.2 1058.58C3542.3 1057.88 3551.5 1057.18 3560.6 1056.48C3569.8 1055.78 3579 1055.08 3588.2 1054.38C3597.3 1053.68 3606.4 1053.08 3615.5 1052.78C3624.4 1052.58 3633.3 1052.08 3642.2 1051.58C3651.2 1051.18 3660.1 1050.58 3669.1 1049.78C3678 1048.98 3686.9 1047.88 3695.7 1046.48C3700.4 1045.68 3705 1044.88 3709.6 1043.88C3732.6 1038.88 3761 1031.88 3795 1022.68C3814.1 1017.58 3831.3 1013.68 3846.5 1011.08C3880.7 1005.28 3919.2 1007.48 3952.6 1018.78C3967.8 1023.88 3987.5 1034.08 4000.3 1039.48C4026.8 1050.68 4061.6 1054.18 4089 1043.48C4095.1 1041.08 4102.2 1037.78 4110.2 1033.58C4121.9 1027.38 4135.7 1022.38 4151.5 1018.48C4179.5 1011.58 4206.7 1014.18 4235.3 1020.48C4258 1025.48 4284.8 1032.68 4315.9 1042.18C4344.3 1050.88 4371.1 1058.18 4400.4 1059.68C4431.3 1061.18 4459 1055.88 4485.8 1062.78C4489.8 1063.78 4497.2 1066.38 4507.9 1070.48C4523.5 1076.38 4539 1081.48 4555.4 1084.58C4583 1089.88 4611.2 1091.58 4639 1096.08C4656.6 1098.88 4674.1 1101.88 4691.8 1104.28C4708.7 1106.58 4725.8 1108.28 4742.9 1108.88C4759.6 1109.38 4776.9 1109.18 4793.4 1106.38C4802.3 1104.88 4811.1 1103.18 4819.8 1101.08C4828.3 1099.08 4836.7 1097.08 4845.4 1095.98C4846.3 1095.88 4847.2 1095.78 4848.1 1095.68C4870.8 1093.48 4891.8 1097.38 4914.1 1100.78C4923.3 1102.18 4933.9 1102.18 4946 1100.68C4972.3 1097.48 4999.7 1089.78 5026.3 1083.68C5057.4 1076.58 5088.4 1076.88 5119.3 1084.78C5136.8 1089.18 5154.2 1093.68 5171.6 1098.28C5200.7 1105.78 5228.5 1112.08 5257.8 1110.68C5303 1108.58 5343.1 1086.88 5386.2 1076.18C5401.9 1072.28 5418.5 1070.58 5436 1071.28C5484 1073.08 5520.8 1105.78 5557.8 1132.68C5594.3 1159.28 5633.8 1169.38 5678.8 1169.88C5695.1 1170.08 5711.4 1170.18 5727.7 1170.28C5755 1170.38 5783.6 1174.38 5814.6 1179.38C5828 1181.58 5835.8 1182.78 5837.8 1182.98C5863.2 1185.38 5886.7 1179.08 5908.4 1164.28C5910.5 1162.88 5910.3 1162.28 5907.8 1162.68C5884.7 1166.38 5863.9 1167.58 5840.9 1161.98C5809 1154.18 5777.1 1145.98 5743.6 1143.58C5728.4 1142.48 5710.5 1142.88 5693.9 1142.48C5644.1 1141.18 5598 1129.88 5555.9 1102.88C5533.2 1088.28 5509.8 1071.38 5486 1061.28C5441.2 1042.28 5391.4 1048.08 5346.7 1064.48C5328.9 1070.98 5314.5 1076.08 5303.7 1079.78C5270.2 1091.08 5236.5 1092.58 5202.7 1084.18C5190.6 1081.18 5176 1075.88 5162.9 1071.28C5115.3 1054.68 5069 1054.48 5019.9 1064.68C4986.8 1071.58 4955.2 1076.88 4920.4 1076.78C4904.1 1076.78 4887.7 1076.58 4871.4 1076.78C4856.1 1076.98 4840.9 1077.48 4825.7 1078.98C4807.8 1080.68 4790 1083.68 4772.1 1085.08C4753.9 1086.48 4735.6 1086.68 4717.4 1085.58C4713.1 1085.28 4708.8 1084.98 4704.5 1084.58C4698.6 1083.98 4685.7 1082.08 4665.9 1078.88C4647.3 1075.88 4629.4 1073.88 4611.1 1071.98C4581.4 1068.78 4552.2 1063.58 4523.2 1056.38C4503 1051.38 4481.8 1043.48 4461 1041.38C4444.1 1039.68 4424.5 1040.88 4409 1039.98C4372.3 1037.78 4335.2 1025.58 4299.2 1015.58C4266.1 1006.38 4232.6 999.778 4198.3 996.378C4171.1 993.678 4141.4 991.678 4116.2 1003.68C4104.3 1009.38 4094.3 1013.88 4086.4 1017.18C4039.3 1036.78 4000.7 1014.28 3957.4 998.278C3923.5 986.078 3889.3 982.478 3853.8 987.478Z" fill="black" fill-opacity="0.03"/>
<path d="M3872.1 634.678C3845.7 645.378 3817.7 652.078 3789.4 654.378C3738.5 658.578 3685.5 657.278 3634.6 653.178C3607.1 650.978 3578.3 647.778 3552.9 658.478C3506.7 677.978 3491.8 731.378 3482.6 775.878C3480.2 787.378 3474.8 798.178 3466.9 806.878C3463 811.178 3458.4 814.878 3453.6 818.178C3443.1 825.178 3431.3 830.478 3419.4 834.278C3407.3 838.178 3394.8 840.578 3382.2 841.978C3370.8 843.278 3359.3 843.778 3347.8 843.778C3295.3 843.878 3238.7 840.978 3189.1 858.278C3173.2 863.878 3150.3 875.478 3131 877.278C3123.7 877.978 3106.7 878.478 3080.1 878.978C3051.5 879.478 3023.9 879.478 2996.8 890.078C2966.4 901.978 2938.5 914.378 2905.8 918.378C2893.7 919.878 2882 920.678 2870.8 920.878C2829.2 921.478 2793.6 922.578 2755.1 927.078C2744.2 928.378 2731.8 930.878 2726 940.278C2725.2 941.678 2726 943.378 2727.5 943.678C2728.3 943.778 2729.2 944.078 2730.2 943.978C2755.2 941.178 2778.2 938.178 2805 939.378C2821.2 940.078 2842.8 942.778 2857.2 943.778C2897.8 946.378 2936.3 938.578 2974 923.878C3009.7 909.978 3034.7 900.878 3068.3 899.878C3103.9 898.878 3135.5 899.778 3168.3 886.578C3172.8 884.778 3182.4 880.478 3197.1 873.678C3227.4 859.678 3259 858.978 3292.1 862.678C3311.7 864.878 3324.5 866.178 3330.6 866.578C3358.8 868.478 3387.9 866.178 3417.9 859.478C3429.3 856.978 3440.4 853.078 3450.6 847.478C3460.8 841.978 3470.1 834.778 3477.5 825.878C3481.2 821.378 3484.3 816.378 3486.9 811.078C3492.6 799.478 3495.4 786.878 3497.8 774.278C3500.1 761.978 3502.1 749.478 3506 737.478C3517.8 701.978 3544.8 674.978 3582.4 668.978C3606.9 665.078 3631.8 668.578 3656.4 671.378C3703.5 676.778 3751.2 679.778 3798.3 674.378C3845.4 668.978 3892.1 654.978 3931.5 628.578C3961 608.778 3987.8 581.678 4022.9 575.878C4061.1 569.578 4098 590.478 4131 610.778C4154.8 625.378 4180.6 640.578 4207.4 645.678C4215.2 647.178 4219.1 636.678 4212.2 632.778C4182.3 615.878 4154 595.778 4123.3 580.178C4083.7 560.078 4036.8 547.778 3994.9 562.478C3967.3 572.178 3945 592.478 3920.7 608.678C3905.5 619.178 3889.1 627.778 3872.1 634.678Z" fill="black" fill-opacity="0.03"/>
<path d="M2400 87.278C2400 96.278 2409.1 102.378 2417.5 98.978C2426.2 95.378 2434.7 91.778 2441.2 89.478C2479.4 76.178 2520.6 72.878 2560.9 79.278C2569.3 80.578 2586.3 83.378 2612 87.778C2636.6 91.878 2666.5 93.478 2684.8 95.678C2718.8 99.678 2749.7 112.078 2782 124.578C2812.6 136.378 2840.6 140.878 2872.9 141.578C2893.9 142.078 2915 142.278 2936 142.378C2977.3 142.478 3018.9 144.678 3059.7 143.178C3074.9 142.578 3092.9 139.078 3106.3 137.578C3121.8 135.878 3139.2 135.378 3158.5 135.978C3193.8 137.078 3228.7 141.678 3263.1 149.678C3292.8 156.578 3322.6 164.478 3351.4 174.578C3360.1 177.678 3370.7 181.278 3383.1 185.378C3410 194.378 3435.1 195.878 3462.9 192.878C3495.1 189.378 3526.7 182.578 3558.5 176.578C3597.4 169.178 3636.6 180.878 3675.7 176.378C3694.1 174.278 3713.6 168.078 3731.6 161.978C3744.6 157.578 3754.2 155.578 3766.7 155.278C3790 154.878 3810.6 157.878 3833.4 163.778C3851.5 168.478 3869.9 171.878 3888.5 174.178C3910.4 176.778 3929 181.778 3951.6 188.078C3982.3 196.678 4014.6 200.278 4048.5 199.078C4074.6 198.178 4106.9 194.278 4124.8 192.878C4148.6 190.978 4175.4 190.278 4205.2 190.778C4222.7 191.078 4241.2 192.978 4260.9 196.478C4286.6 201.078 4311.1 202.978 4337.2 201.278C4356.6 200.078 4377.5 196.778 4397.5 194.078C4442.1 188.178 4494.6 197.978 4533.9 220.178C4545.5 226.678 4557.1 232.978 4570 236.378C4587.1 240.878 4607.8 240.278 4625.6 238.378C4632.2 237.678 4638.9 236.978 4645.5 236.178C4652.2 235.478 4658.8 234.678 4665.5 233.978C4672.2 233.278 4678.9 232.678 4685.6 232.078C4692.3 231.478 4699 230.978 4705.7 230.578C4712.4 230.178 4719.1 229.878 4725.8 229.678C4732.5 229.478 4739.3 229.478 4746 229.578C4752.8 229.678 4759.6 229.978 4766.3 230.478C4773.1 230.978 4779.9 231.678 4786.7 232.578C4793.4 233.478 4800.1 234.578 4806.7 236.078C4813.3 237.578 4819.8 239.178 4826.4 240.678C4833 242.178 4839.6 243.578 4846.3 244.678C4852.9 245.778 4859.6 246.578 4866.3 246.878C4868.7 246.978 4871.1 247.078 4873.6 247.078C4897.3 247.078 4921.3 246.378 4945 247.778C4983.2 249.978 5021.6 254.778 5059.5 260.078C5065.4 260.878 5073.1 262.178 5082.6 263.978C5143.5 275.278 5206.6 277.278 5269.3 273.278C5304.2 271.078 5339.2 269.278 5374.2 267.978C5397.9 267.078 5421.7 264.678 5443.6 257.278C5460.6 251.578 5473.5 246.978 5490.7 243.978C5509.3 240.678 5527.7 237.078 5546.1 232.978C5555 230.978 5563.7 228.278 5572.4 224.778C5574.1 224.078 5574.2 223.278 5572.6 222.278C5572.3 222.078 5571.5 221.878 5570.2 221.678C5559.2 219.978 5548.2 219.478 5537 220.178C5506.5 222.178 5476.4 228.978 5446.5 235.278C5430.4 238.678 5411 241.078 5388 242.478C5344.9 245.178 5301.7 247.878 5258.6 250.678C5226.9 252.678 5193.2 253.678 5167.2 252.478C5150.4 251.678 5137.3 250.678 5128.1 249.378C5047.4 237.978 4972.9 229.078 4904.6 222.678C4889.3 221.278 4870.3 220.378 4847.7 220.178C4844.7 220.178 4841.6 219.978 4838.6 219.778C4833.6 219.478 4828.5 219.178 4823.5 218.778C4816.9 218.278 4810.3 217.778 4803.6 217.278C4796.8 216.778 4790 216.278 4783.2 216.078C4780.8 215.978 4778.4 215.978 4776 215.978C4734.3 215.778 4692.6 217.878 4651.1 222.178C4620.4 225.378 4591.2 230.478 4562 216.678C4537.1 204.878 4513.4 192.878 4486.2 184.078C4454.3 173.778 4420.7 171.478 4387.8 176.278C4349.6 181.778 4312.2 183.978 4276.4 177.878C4254.8 174.178 4241.2 171.878 4235.8 171.078C4213.8 167.678 4191.7 166.378 4169.6 166.178C4153.9 165.978 4139.6 166.878 4126.7 168.878C4109.3 171.578 4090.8 174.778 4074 175.578C4046.5 176.878 4018.4 174.378 3989.9 168.078C3950.7 159.378 3927.3 153.378 3889 147.378C3863.4 143.378 3837.8 139.478 3812.2 135.678C3780.4 130.978 3751.9 131.178 3720.8 139.978C3709.7 143.078 3698.6 146.178 3687.6 149.178C3653.8 158.378 3619.9 154.278 3585.5 155.478C3550 156.678 3515.7 166.878 3481.5 175.278C3480.1 175.578 3478.8 175.978 3477.4 176.278C3452.3 182.378 3424.6 184.478 3400.4 175.478C3398.9 174.978 3392.3 171.878 3380.6 166.178C3363.3 157.778 3345.2 151.678 3326.3 147.878C3291.6 140.878 3269.2 134.178 3240.6 127.078C3206.2 118.478 3171.1 116.578 3135.8 117.578C3092 118.878 3048.4 121.578 3004.6 122.678C2968.9 123.578 2933.1 124.478 2897.4 125.378C2863.5 126.278 2830.8 120.178 2799.5 107.278C2760.5 91.178 2733.5 79.778 2698.3 75.178C2681.9 73.078 2661.4 71.2781 2644.3 68.5781C2625.1 65.5781 2603.2 61.478 2578.6 56.278C2521.1 44.078 2461.1 52.278 2407.7 75.878C2402.9 77.778 2400 82.278 2400 87.278Z" fill="black" fill-opacity="0.03"/>
<path d="M4587.7 290.578C4565.5 313.878 4540.9 329.678 4511.4 341.378C4479.5 354.078 4448.1 364.778 4418.9 384.178C4407 392.078 4395 402.778 4383.4 412.478C4370.7 423.178 4355.6 432.078 4338 439.378C4288.7 459.878 4232.2 465.778 4181.3 446.978C4155.3 437.378 4137.7 422.678 4112.7 404.778C4100 395.678 4086.3 389.778 4071.7 386.978C4069.8 386.578 4062 385.678 4048.4 384.078C4032.4 382.178 4015.5 380.478 4000.4 378.178C3978.1 374.778 3955.9 370.678 3933.9 365.878C3916.4 362.078 3898.7 360.478 3880.8 361.278C3866.5 361.878 3841.4 365.978 3827 367.178C3808.1 368.778 3789.2 367.278 3770.6 362.878C3770.4 362.878 3770.2 362.678 3770.3 362.378C3770.3 362.178 3770.5 361.978 3770.7 361.978C3803.6 359.078 3836.4 351.878 3868.8 344.978C3878.9 342.878 3886.6 341.578 3891.9 341.278C3913.3 340.078 3939.9 345.878 3956.1 348.778C3986.9 354.278 4017.8 357.978 4049 360.078C4070.8 361.578 4091 367.578 4109.5 378.278C4118 383.178 4133.4 393.178 4145.2 400.678C4192.8 430.778 4249.3 444.278 4304.3 427.678C4329.7 419.978 4357.6 408.278 4377.4 392.478C4391.8 380.878 4401 373.578 4404.8 370.378C4423.3 355.178 4444.2 344.278 4467.3 337.778C4506.6 326.778 4542.3 318.778 4570.3 287.678C4577.8 279.378 4590.7 262.478 4601.4 259.078C4602.8 258.678 4604.3 259.678 4604.4 261.178C4605 270.078 4593.8 284.078 4587.7 290.578Z" fill="black" fill-opacity="0.03"/>
<path d="M3699.2 781.378C3692.9 783.178 3686.4 784.378 3679.8 785.178C3673.3 785.978 3666.7 786.278 3660.1 786.378C3653.5 786.478 3646.9 786.278 3640.2 785.978C3633.5 785.678 3626.9 785.378 3620.2 785.078C3613.5 784.778 3606.7 784.478 3600 784.778C3594.3 785.078 3588.7 785.778 3583.2 786.878C3577.8 787.978 3572.4 789.378 3567.2 791.178C3562 793.078 3556.9 795.378 3552.2 798.178C3549.3 799.878 3546.6 801.878 3544 804.078C3543.4 804.578 3543.9 805.478 3544.6 805.278C3551 803.578 3557.4 801.978 3563.9 800.578C3570.3 799.278 3576.8 798.278 3583.3 797.678C3590 797.078 3596.6 796.978 3603.3 797.478C3610.1 798.078 3616.9 798.878 3623.7 799.678C3627.4 800.078 3631 800.578 3634.7 801.078C3669.7 805.578 3703.1 797.378 3737.4 785.778C3755.4 779.678 3768.2 773.278 3781 760.778C3781.3 760.478 3781 759.978 3780.6 760.078C3753.1 766.078 3726.3 773.778 3699.2 781.378Z" fill="black" fill-opacity="0.03"/>
<path d="M3817 701.878C3808.2 702.978 3799.3 703.978 3790.4 705.078C3771.1 707.278 3748.9 704.178 3726.5 702.478C3713 701.478 3699.9 702.378 3687 705.078C3668.7 708.978 3651.8 718.178 3633.5 720.778C3631 721.178 3628.4 721.478 3625.8 721.778C3622.9 722.078 3620 722.378 3617.1 722.678C3613.9 722.978 3610.6 723.178 3607.4 723.478C3604 723.678 3600.6 723.878 3597.2 724.078C3594 724.278 3590.9 724.478 3587.7 724.778C3584.7 725.078 3581.7 725.478 3578.8 726.078C3575.9 726.678 3573.1 727.378 3570.4 728.378C3569.6 728.678 3568.8 728.978 3568 729.378C3567.6 729.578 3567.2 729.678 3566.9 729.878C3566.8 729.978 3565.8 730.378 3565.8 730.478C3561.4 732.778 3561.6 738.278 3566.6 739.678C3569 740.378 3571.5 740.778 3574 741.078C3576.8 741.378 3579.5 741.478 3582.3 741.578C3585 741.578 3587.7 741.578 3590.4 741.478C3593.2 741.378 3596 741.278 3598.8 741.178C3602.1 741.078 3605.5 740.978 3608.8 740.778C3612 740.578 3615.1 740.178 3618.3 739.678C3621.4 739.178 3624.4 738.678 3627.4 737.978C3630.4 737.378 3633.4 736.678 3636.3 735.878C3639.3 735.078 3642.2 734.278 3645.1 733.378C3648.1 732.478 3651 731.578 3654 730.678C3657 729.778 3660 728.778 3663.1 727.778C3663.6 727.678 3664 727.478 3664.5 727.378C3690.1 719.378 3713.9 721.378 3740 724.778C3759.1 727.278 3777.2 727.278 3796.6 723.678C3817.4 719.778 3838 715.078 3858.5 709.778C3862.1 708.878 3865.4 707.678 3868.7 706.378C3869.2 706.178 3869.2 705.378 3868.6 705.278C3851.5 700.978 3834.3 699.778 3817 701.878Z" fill="black" fill-opacity="0.03"/>
<path d="M2399.9 1227.88C2396.8 1229.28 2393.7 1230.78 2390.6 1232.28C2383.1 1235.88 2375.2 1238.78 2367.7 1242.28C2355.7 1247.88 2344 1254.28 2333.4 1262.28C2309.2 1280.48 2289.7 1310.48 2258 1316.38C2253.1 1317.28 2245.3 1317.48 2234.6 1316.98C2203.8 1315.58 2173.1 1312.88 2142.5 1308.98C2119.8 1306.08 2096.9 1300.78 2076.8 1291.48C2064.1 1285.58 2045.2 1274.18 2030.1 1268.28C2020.7 1264.58 2011.3 1261.78 2002 1259.88C1971.8 1253.68 1948 1249.38 1922.9 1236.98C1911.7 1231.48 1898.5 1222.68 1886.5 1215.38C1868.9 1204.88 1849.8 1199.88 1829.1 1200.38C1805.9 1200.88 1782.5 1202.28 1759.6 1202.18C1740.9 1202.18 1717.6 1200.58 1702.8 1200.18C1694.4 1199.98 1632.5 1201.08 1633.4 1214.08C1633.4 1214.48 1633.6 1214.78 1633.9 1214.98C1635.9 1216.28 1637.8 1217.08 1639.7 1217.38C1661.6 1221.68 1684.1 1222.98 1707.1 1221.08C1742.9 1218.28 1771.6 1215.98 1804 1216.88C1826.3 1217.48 1847.2 1220.58 1866.6 1231.48C1873.6 1235.38 1883.4 1242.18 1891.1 1246.38C1905.6 1254.18 1922 1260.78 1940.2 1266.28C1961 1272.58 1981.7 1278.88 2002.5 1285.28C2020.6 1290.88 2039.8 1301.98 2057.4 1308.88C2075.9 1316.18 2095 1321.58 2114.7 1324.78C2150.5 1330.78 2186.2 1336.78 2222.2 1341.78C2252.9 1346.08 2285.3 1341.58 2306.3 1317.98C2316.9 1306.08 2328.8 1295.28 2341.5 1285.58C2354.2 1275.98 2367.7 1267.48 2381.7 1259.78C2396.9 1251.48 2412.8 1244.38 2429 1237.88C2431 1237.08 2433.1 1236.28 2435.1 1235.48C2461.9 1225.28 2489.8 1220.38 2519 1220.88C2524.2 1220.98 2529.7 1220.58 2534.8 1220.98C2607.9 1227.18 2666.3 1228.48 2732.5 1226.78C2746.5 1226.38 2760.3 1225.48 2774 1224.08C2774.5 1224.08 2774.5 1223.38 2774.1 1223.28C2748.8 1213.48 2724.2 1209.58 2697.2 1209.18C2665.1 1208.68 2637.9 1207.48 2615.8 1205.48C2598.9 1203.98 2582 1202.38 2565.1 1201.38C2548.1 1200.28 2531 1199.68 2514 1200.18C2497.1 1200.68 2480.2 1202.28 2463.5 1205.58C2446.4 1208.98 2430.1 1214.58 2414.2 1221.38C2409.5 1223.58 2404.7 1225.68 2399.9 1227.88Z" fill="black" fill-opacity="0.03"/>
<path d="M2531.2 1126.48C2578.6 1130.08 2623.9 1147.98 2671 1153.88C2803 1170.48 2941 1093.58 3066.2 1138.78C3110.9 1154.98 3149.1 1185.48 3193 1203.78C3241.9 1224.18 3295.9 1228.58 3348.9 1229.78C3382.1 1230.48 3415.7 1230.08 3448.1 1222.98C3491 1213.48 3389.6 1265.38 3313.2 1253.38C3282.2 1248.48 3252.1 1250.58 3221.7 1240.18C3191.6 1229.88 3163.9 1213.98 3136.1 1198.88C3106.9 1182.98 3077.2 1167.08 3045 1158.28C2941.9 1130.18 2834.3 1181.28 2727.4 1181.28C2646.1 1181.28 2566.1 1151.58 2485.2 1158.58C2422.6 1163.98 2482.6 1122.78 2531.2 1126.48Z" fill="black" fill-opacity="0.03"/>
<path d="M2783.9 1256.78C2785.2 1256.08 2786.8 1255.88 2788.8 1256.18C2810.7 1259.78 2833.7 1265.48 2855.7 1262.38C2865.6 1260.98 2876.7 1256.48 2886.8 1252.88C2900.6 1247.88 2914.9 1245.08 2929.6 1244.38C2964.7 1242.68 3001.5 1246.88 3030.5 1267.28C3030.9 1267.58 3030.7 1268.28 3030.2 1268.18C3000.6 1265.68 2972.7 1261.78 2941.7 1261.68C2924.3 1261.58 2906.9 1265.18 2889.5 1272.38C2857 1285.88 2822 1283.98 2791.4 1267.08C2788.3 1265.38 2785.9 1262.68 2783.5 1260.08C2782.4 1259.08 2782.7 1257.48 2783.9 1256.78Z" fill="black" fill-opacity="0.03"/>
<path d="M3599.9 1227.88C3596.8 1229.28 3593.7 1230.78 3590.6 1232.28C3583.1 1235.88 3575.2 1238.78 3567.7 1242.28C3555.7 1247.88 3544 1254.28 3533.4 1262.28C3509.2 1280.48 3489.7 1310.48 3458 1316.38C3453.1 1317.28 3445.3 1317.48 3434.6 1316.98C3403.8 1315.58 3373.1 1312.88 3342.5 1308.98C3319.8 1306.08 3296.9 1300.78 3276.8 1291.48C3264.1 1285.58 3245.2 1274.18 3230.1 1268.28C3220.7 1264.58 3211.3 1261.78 3202 1259.88C3171.8 1253.68 3148 1249.38 3122.9 1236.98C3111.7 1231.48 3098.5 1222.68 3086.5 1215.38C3068.9 1204.88 3049.8 1199.88 3029.1 1200.38C3005.9 1200.88 2982.5 1202.28 2959.6 1202.18C2940.8 1202.18 2917.6 1200.58 2902.8 1200.18C2894.4 1199.98 2832.5 1201.08 2833.4 1214.08C2833.4 1214.48 2833.6 1214.78 2833.9 1214.98C2835.9 1216.28 2837.8 1217.08 2839.7 1217.38C2861.6 1221.68 2884.1 1222.98 2907.1 1221.08C2942.9 1218.28 2971.6 1215.98 3004 1216.88C3026.3 1217.48 3047.2 1220.58 3066.6 1231.48C3073.6 1235.38 3083.4 1242.18 3091.1 1246.38C3105.6 1254.18 3122 1260.78 3140.2 1266.28C3161 1272.58 3181.7 1278.88 3202.5 1285.28C3220.6 1290.88 3239.8 1301.98 3257.4 1308.88C3275.9 1316.18 3295 1321.58 3314.7 1324.78C3350.5 1330.78 3386.2 1336.78 3422.2 1341.78C3452.9 1346.08 3485.3 1341.58 3506.3 1317.98C3516.9 1306.08 3528.8 1295.28 3541.5 1285.58C3554.2 1275.98 3567.7 1267.48 3581.7 1259.78C3596.9 1251.48 3612.8 1244.38 3629 1237.88C3631 1237.08 3633.1 1236.28 3635.1 1235.48C3661.9 1225.28 3689.8 1220.38 3719 1220.88C3724.2 1220.98 3729.7 1220.58 3734.8 1220.98C3807.9 1227.18 3866.3 1228.48 3932.5 1226.78C3946.5 1226.38 3960.3 1225.48 3974 1224.08C3974.5 1224.08 3974.5 1223.38 3974.1 1223.28C3948.8 1213.48 3924.2 1209.58 3897.2 1209.18C3865.1 1208.68 3837.9 1207.48 3815.8 1205.48C3798.9 1203.98 3782 1202.38 3765.1 1201.38C3748.1 1200.28 3731 1199.68 3714 1200.18C3697.1 1200.68 3680.2 1202.28 3663.5 1205.58C3646.4 1208.98 3630.1 1214.58 3614.2 1221.38C3609.5 1223.58 3604.7 1225.68 3599.9 1227.88Z" fill="black" fill-opacity="0.03"/>
<path d="M3731.2 1126.48C3778.6 1130.08 3823.9 1147.98 3871 1153.88C4003 1170.48 4141 1093.58 4266.2 1138.78C4310.9 1154.98 4349.1 1185.48 4393 1203.78C4441.9 1224.18 4495.9 1228.58 4548.9 1229.78C4582.1 1230.48 4615.7 1230.08 4648.1 1222.98C4691 1213.48 4589.6 1265.38 4513.2 1253.38C4482.2 1248.48 4452.1 1250.58 4421.7 1240.18C4391.6 1229.88 4363.9 1213.98 4336.1 1198.88C4306.9 1182.98 4277.2 1167.08 4245 1158.28C4141.9 1130.18 4034.3 1181.28 3927.4 1181.28C3846.1 1181.28 3766.1 1151.58 3685.2 1158.58C3622.6 1163.98 3682.6 1122.78 3731.2 1126.48Z" fill="black" fill-opacity="0.03"/>
<path d="M3600 1287.28C3600 1296.28 3609.1 1302.38 3617.5 1298.98C3626.2 1295.38 3634.7 1291.78 3641.2 1289.48C3679.4 1276.18 3720.6 1272.88 3760.9 1279.28C3769.3 1280.58 3786.3 1283.38 3812 1287.78C3836.6 1291.88 3866.5 1293.48 3884.8 1295.68C3918.8 1299.68 3949.7 1312.08 3982 1324.58C4012.6 1336.38 4040.6 1340.88 4072.9 1341.58C4093.9 1342.08 4115 1342.28 4136 1342.38C4177.3 1342.48 4218.9 1344.68 4259.7 1343.18C4274.9 1342.58 4292.9 1339.08 4306.3 1337.58C4321.8 1335.88 4339.2 1335.38 4358.5 1335.98C4393.8 1337.08 4428.7 1341.68 4463.1 1349.68C4492.8 1356.58 4522.6 1364.48 4551.4 1374.58C4560.1 1377.68 4570.7 1381.28 4583.1 1385.38C4610 1394.38 4635.1 1395.88 4662.9 1392.88C4695.1 1389.38 4726.7 1382.58 4758.5 1376.58C4797.4 1369.18 4836.6 1380.88 4875.7 1376.38C4894.1 1374.28 4913.6 1368.08 4931.6 1361.98C4944.6 1357.58 4954.2 1355.58 4966.7 1355.28C4990 1354.88 5010.6 1357.88 5033.4 1363.78C5051.5 1368.48 5069.9 1371.88 5088.5 1374.18C5110.4 1376.78 5129 1381.78 5151.6 1388.08C5182.3 1396.68 5214.6 1400.28 5248.5 1399.08C5274.6 1398.18 5306.9 1394.28 5324.8 1392.88C5348.6 1390.98 5375.4 1390.28 5405.2 1390.78C5422.7 1391.08 5441.2 1392.98 5460.9 1396.48C5486.6 1401.08 5511.1 1402.98 5537.2 1401.28C5556.6 1400.08 5577.5 1396.78 5597.5 1394.08C5642.1 1388.18 5694.6 1397.98 5733.9 1420.18C5745.5 1426.68 5757.1 1432.98 5770 1436.38C5787.1 1440.88 5807.8 1440.28 5825.6 1438.38C5832.2 1437.68 5838.9 1436.98 5845.5 1436.18C5852.2 1435.48 5858.8 1434.68 5865.5 1433.98C5872.2 1433.28 5878.9 1432.68 5885.6 1432.08C5892.3 1431.48 5899 1430.98 5905.7 1430.58C5912.4 1430.18 5919.1 1429.88 5925.8 1429.68C5932.5 1429.48 5939.3 1429.48 5946 1429.58C5952.8 1429.68 5959.6 1429.98 5966.3 1430.48C5973.1 1430.98 5979.9 1431.68 5986.7 1432.58C5993.4 1433.48 6000.1 1434.58 6006.7 1436.08C6013.3 1437.58 6019.8 1439.18 6026.4 1440.68C6033 1442.18 6039.6 1443.58 6046.3 1444.68C6052.9 1445.78 6059.6 1446.58 6066.3 1446.88C6068.7 1446.98 6071.1 1447.08 6073.6 1447.08C6097.3 1447.08 6121.3 1446.38 6145 1447.78C6183.2 1449.98 6221.6 1454.78 6259.5 1460.08C6265.4 1460.88 6273.1 1462.18 6282.6 1463.98C6343.5 1475.28 6406.6 1477.28 6469.3 1473.28C6504.2 1471.08 6539.2 1469.28 6574.2 1467.98C6597.9 1467.08 6621.7 1464.68 6643.6 1457.28C6660.6 1451.58 6673.5 1446.98 6690.7 1443.98C6709.3 1440.68 6727.7 1437.08 6746.1 1432.98C6755 1430.98 6763.7 1428.28 6772.4 1424.78C6774.1 1424.08 6774.2 1423.28 6772.6 1422.28C6772.3 1422.08 6771.5 1421.88 6770.2 1421.68C6759.2 1419.98 6748.2 1419.48 6737 1420.18C6706.5 1422.18 6676.4 1428.98 6646.5 1435.28C6630.4 1438.68 6611 1441.08 6588 1442.48C6544.9 1445.18 6501.7 1447.88 6458.6 1450.68C6426.9 1452.68 6393.2 1453.68 6367.2 1452.48C6350.4 1451.68 6337.3 1450.68 6328.1 1449.38C6247.4 1437.98 6172.9 1429.08 6104.6 1422.68C6089.3 1421.28 6070.3 1420.38 6047.7 1420.18C6044.7 1420.18 6041.6 1419.98 6038.6 1419.78C6033.6 1419.48 6028.5 1419.18 6023.5 1418.78C6016.9 1418.28 6010.3 1417.78 6003.6 1417.28C5996.8 1416.78 5990 1416.28 5983.2 1416.08C5980.8 1415.98 5978.4 1415.98 5976 1415.98C5934.3 1415.78 5892.6 1417.88 5851.1 1422.18C5820.4 1425.38 5791.2 1430.48 5762 1416.68C5737.1 1404.88 5713.4 1392.88 5686.2 1384.08C5654.3 1373.78 5620.7 1371.48 5587.8 1376.28C5549.6 1381.78 5512.2 1383.98 5476.4 1377.88C5454.8 1374.18 5441.2 1371.88 5435.8 1371.08C5413.8 1367.68 5391.7 1366.38 5369.6 1366.18C5353.9 1365.98 5339.6 1366.88 5326.7 1368.88C5309.3 1371.58 5290.8 1374.78 5274 1375.58C5246.5 1376.88 5218.4 1374.38 5189.9 1368.08C5150.7 1359.38 5127.3 1353.38 5089 1347.38C5063.4 1343.38 5037.8 1339.48 5012.2 1335.68C4980.4 1330.98 4951.9 1331.18 4920.8 1339.98C4909.7 1343.08 4898.6 1346.18 4887.6 1349.18C4853.8 1358.38 4819.9 1354.28 4785.5 1355.48C4750 1356.68 4715.7 1366.88 4681.5 1375.28C4680.1 1375.58 4678.8 1375.98 4677.4 1376.28C4652.3 1382.38 4624.6 1384.48 4600.4 1375.48C4598.9 1374.98 4592.3 1371.88 4580.6 1366.18C4563.3 1357.78 4545.2 1351.68 4526.3 1347.88C4491.6 1340.88 4469.2 1334.18 4440.6 1327.08C4406.2 1318.48 4371.1 1316.58 4335.8 1317.58C4292 1318.88 4248.4 1321.58 4204.6 1322.68C4168.9 1323.58 4133.1 1324.48 4097.4 1325.38C4063.5 1326.28 4030.8 1320.18 3999.5 1307.28C3960.5 1291.18 3933.5 1279.78 3898.3 1275.18C3881.9 1273.08 3861.4 1271.28 3844.3 1268.58C3825.1 1265.58 3803.2 1261.48 3778.6 1256.28C3721.1 1244.08 3661.1 1252.28 3607.7 1275.88C3602.9 1277.78 3600 1282.28 3600 1287.28Z" fill="black" fill-opacity="0.03"/>
</svg>
